<?xml version="1.0" encoding="utf-8" standalone="no"?>
<!DOCTYPE svg PUBLIC "-//W3C//DTD SVG 1.1//EN"
  "http://www.w3.org/Graphics/SVG/1.1/DTD/svg11.dtd">
<!-- Created with matplotlib (https://matplotlib.org/) -->
<svg height="360pt" version="1.1" viewBox="0 0 1440 360" width="1440pt" xmlns="http://www.w3.org/2000/svg" xmlns:xlink="http://www.w3.org/1999/xlink">
 <defs>
  <style type="text/css">
*{stroke-linecap:butt;stroke-linejoin:round;}
  </style>
 </defs>
 <g id="figure_1">
  <g id="patch_1">
   <path d="M 0 360 
L 1440 360 
L 1440 0 
L 0 0 
z
" style="fill:#ffffff;"/>
  </g>
  <g id="axes_1">
   <g id="patch_2">
    <path d="M 180 320.4 
L 422.608696 320.4 
L 422.608696 43.2 
L 180 43.2 
z
" style="fill:#ffffff;"/>
   </g>
   <g id="patch_3">
    <path clip-path="url(#p58dde337be)" d="M 191.027668 320.4 
L 197.329193 320.4 
L 197.329193 75.591489 
L 191.027668 75.591489 
z
" style="fill:#1f77b4;"/>
   </g>
   <g id="patch_4">
    <path clip-path="url(#p58dde337be)" d="M 254.042914 320.4 
L 260.344438 320.4 
L 260.344438 132.697872 
L 254.042914 132.697872 
z
" style="fill:#1f77b4;"/>
   </g>
   <g id="patch_5">
    <path clip-path="url(#p58dde337be)" d="M 317.058159 320.4 
L 323.359684 320.4 
L 323.359684 179.974468 
L 317.058159 179.974468 
z
" style="fill:#1f77b4;"/>
   </g>
   <g id="patch_6">
    <path clip-path="url(#p58dde337be)" d="M 380.073405 320.4 
L 386.374929 320.4 
L 386.374929 205.719149 
L 380.073405 205.719149 
z
" style="fill:#1f77b4;"/>
   </g>
   <g id="patch_7">
    <path clip-path="url(#p58dde337be)" d="M 197.329193 320.4 
L 203.630717 320.4 
L 203.630717 61.548936 
L 197.329193 61.548936 
z
" style="fill:#ff7f0e;"/>
   </g>
   <g id="patch_8">
    <path clip-path="url(#p58dde337be)" d="M 260.344438 320.4 
L 266.645963 320.4 
L 266.645963 120.52766 
L 260.344438 120.52766 
z
" style="fill:#ff7f0e;"/>
   </g>
   <g id="patch_9">
    <path clip-path="url(#p58dde337be)" d="M 323.359684 320.4 
L 329.661208 320.4 
L 329.661208 175.761702 
L 323.359684 175.761702 
z
" style="fill:#ff7f0e;"/>
   </g>
   <g id="patch_10">
    <path clip-path="url(#p58dde337be)" d="M 386.374929 320.4 
L 392.676454 320.4 
L 392.676454 188.4 
L 386.374929 188.4 
z
" style="fill:#ff7f0e;"/>
   </g>
   <g id="patch_11">
    <path clip-path="url(#p58dde337be)" d="M 203.630717 320.4 
L 209.932242 320.4 
L 209.932242 56.868085 
L 203.630717 56.868085 
z
" style="fill:#2ca02c;"/>
   </g>
   <g id="patch_12">
    <path clip-path="url(#p58dde337be)" d="M 266.645963 320.4 
L 272.947487 320.4 
L 272.947487 123.804255 
L 266.645963 123.804255 
z
" style="fill:#2ca02c;"/>
   </g>
   <g id="patch_13">
    <path clip-path="url(#p58dde337be)" d="M 329.661208 320.4 
L 335.962733 320.4 
L 335.962733 184.655319 
L 329.661208 184.655319 
z
" style="fill:#2ca02c;"/>
   </g>
   <g id="patch_14">
    <path clip-path="url(#p58dde337be)" d="M 392.676454 320.4 
L 398.977979 320.4 
L 398.977979 199.165957 
L 392.676454 199.165957 
z
" style="fill:#2ca02c;"/>
   </g>
   <g id="patch_15">
    <path clip-path="url(#p58dde337be)" d="M 209.932242 320.4 
L 216.233766 320.4 
L 216.233766 66.229787 
L 209.932242 66.229787 
z
" style="fill:#d62728;"/>
   </g>
   <g id="patch_16">
    <path clip-path="url(#p58dde337be)" d="M 272.947487 320.4 
L 279.249012 320.4 
L 279.249012 94.314894 
L 272.947487 94.314894 
z
" style="fill:#d62728;"/>
   </g>
   <g id="patch_17">
    <path clip-path="url(#p58dde337be)" d="M 335.962733 320.4 
L 342.264257 320.4 
L 342.264257 139.719149 
L 335.962733 139.719149 
z
" style="fill:#d62728;"/>
   </g>
   <g id="patch_18">
    <path clip-path="url(#p58dde337be)" d="M 398.977979 320.4 
L 405.279503 320.4 
L 405.279503 179.038298 
L 398.977979 179.038298 
z
" style="fill:#d62728;"/>
   </g>
   <g id="patch_19">
    <path clip-path="url(#p58dde337be)" d="M 216.233766 320.4 
L 222.535291 320.4 
L 222.535291 56.4 
L 216.233766 56.4 
z
" style="fill:#9467bd;"/>
   </g>
   <g id="patch_20">
    <path clip-path="url(#p58dde337be)" d="M 279.249012 320.4 
L 285.550536 320.4 
L 285.550536 68.570213 
L 279.249012 68.570213 
z
" style="fill:#9467bd;"/>
   </g>
   <g id="patch_21">
    <path clip-path="url(#p58dde337be)" d="M 342.264257 320.4 
L 348.565782 320.4 
L 348.565782 124.27234 
L 342.264257 124.27234 
z
" style="fill:#9467bd;"/>
   </g>
   <g id="patch_22">
    <path clip-path="url(#p58dde337be)" d="M 405.279503 320.4 
L 411.581028 320.4 
L 411.581028 151.889362 
L 405.279503 151.889362 
z
" style="fill:#9467bd;"/>
   </g>
   <g id="matplotlib.axis_1">
    <g id="xtick_1">
     <g id="line2d_1">
      <defs>
       <path d="M 0 0 
L 0 3.5 
" id="m17d1f7747d" style="stroke:#000000;stroke-width:0.8;"/>
      </defs>
      <g>
       <use style="stroke:#000000;stroke-width:0.8;" x="206.781479" xlink:href="#m17d1f7747d" y="320.4"/>
      </g>
     </g>
     <g id="text_1">
      <!-- Free -->
      <defs>
       <path d="M 9.8125 72.90625 
L 51.703125 72.90625 
L 51.703125 64.59375 
L 19.671875 64.59375 
L 19.671875 43.109375 
L 48.578125 43.109375 
L 48.578125 34.8125 
L 19.671875 34.8125 
L 19.671875 0 
L 9.8125 0 
z
" id="DejaVuSans-70"/>
       <path d="M 41.109375 46.296875 
Q 39.59375 47.171875 37.8125 47.578125 
Q 36.03125 48 33.890625 48 
Q 26.265625 48 22.1875 43.046875 
Q 18.109375 38.09375 18.109375 28.8125 
L 18.109375 0 
L 9.078125 0 
L 9.078125 54.6875 
L 18.109375 54.6875 
L 18.109375 46.1875 
Q 20.953125 51.171875 25.484375 53.578125 
Q 30.03125 56 36.53125 56 
Q 37.453125 56 38.578125 55.875 
Q 39.703125 55.765625 41.0625 55.515625 
z
" id="DejaVuSans-114"/>
       <path d="M 56.203125 29.59375 
L 56.203125 25.203125 
L 14.890625 25.203125 
Q 15.484375 15.921875 20.484375 11.0625 
Q 25.484375 6.203125 34.421875 6.203125 
Q 39.59375 6.203125 44.453125 7.46875 
Q 49.3125 8.734375 54.109375 11.28125 
L 54.109375 2.78125 
Q 49.265625 0.734375 44.1875 -0.34375 
Q 39.109375 -1.421875 33.890625 -1.421875 
Q 20.796875 -1.421875 13.15625 6.1875 
Q 5.515625 13.8125 5.515625 26.8125 
Q 5.515625 40.234375 12.765625 48.109375 
Q 20.015625 56 32.328125 56 
Q 43.359375 56 49.78125 48.890625 
Q 56.203125 41.796875 56.203125 29.59375 
z
M 47.21875 32.234375 
Q 47.125 39.59375 43.09375 43.984375 
Q 39.0625 48.390625 32.421875 48.390625 
Q 24.90625 48.390625 20.390625 44.140625 
Q 15.875 39.890625 15.1875 32.171875 
z
" id="DejaVuSans-101"/>
      </defs>
      <g transform="translate(196.172104 334.998438)scale(0.1 -0.1)">
       <use xlink:href="#DejaVuSans-70"/>
       <use x="50.269531" xlink:href="#DejaVuSans-114"/>
       <use x="89.132812" xlink:href="#DejaVuSans-101"/>
       <use x="150.65625" xlink:href="#DejaVuSans-101"/>
      </g>
     </g>
    </g>
    <g id="xtick_2">
     <g id="line2d_2">
      <g>
       <use style="stroke:#000000;stroke-width:0.8;" x="269.796725" xlink:href="#m17d1f7747d" y="320.4"/>
      </g>
     </g>
     <g id="text_2">
      <!-- Decongested -->
      <defs>
       <path d="M 19.671875 64.796875 
L 19.671875 8.109375 
L 31.59375 8.109375 
Q 46.6875 8.109375 53.6875 14.9375 
Q 60.6875 21.78125 60.6875 36.53125 
Q 60.6875 51.171875 53.6875 57.984375 
Q 46.6875 64.796875 31.59375 64.796875 
z
M 9.8125 72.90625 
L 30.078125 72.90625 
Q 51.265625 72.90625 61.171875 64.09375 
Q 71.09375 55.28125 71.09375 36.53125 
Q 71.09375 17.671875 61.125 8.828125 
Q 51.171875 0 30.078125 0 
L 9.8125 0 
z
" id="DejaVuSans-68"/>
       <path d="M 48.78125 52.59375 
L 48.78125 44.1875 
Q 44.96875 46.296875 41.140625 47.34375 
Q 37.3125 48.390625 33.40625 48.390625 
Q 24.65625 48.390625 19.8125 42.84375 
Q 14.984375 37.3125 14.984375 27.296875 
Q 14.984375 17.28125 19.8125 11.734375 
Q 24.65625 6.203125 33.40625 6.203125 
Q 37.3125 6.203125 41.140625 7.25 
Q 44.96875 8.296875 48.78125 10.40625 
L 48.78125 2.09375 
Q 45.015625 0.34375 40.984375 -0.53125 
Q 36.96875 -1.421875 32.421875 -1.421875 
Q 20.0625 -1.421875 12.78125 6.34375 
Q 5.515625 14.109375 5.515625 27.296875 
Q 5.515625 40.671875 12.859375 48.328125 
Q 20.21875 56 33.015625 56 
Q 37.15625 56 41.109375 55.140625 
Q 45.0625 54.296875 48.78125 52.59375 
z
" id="DejaVuSans-99"/>
       <path d="M 30.609375 48.390625 
Q 23.390625 48.390625 19.1875 42.75 
Q 14.984375 37.109375 14.984375 27.296875 
Q 14.984375 17.484375 19.15625 11.84375 
Q 23.34375 6.203125 30.609375 6.203125 
Q 37.796875 6.203125 41.984375 11.859375 
Q 46.1875 17.53125 46.1875 27.296875 
Q 46.1875 37.015625 41.984375 42.703125 
Q 37.796875 48.390625 30.609375 48.390625 
z
M 30.609375 56 
Q 42.328125 56 49.015625 48.375 
Q 55.71875 40.765625 55.71875 27.296875 
Q 55.71875 13.875 49.015625 6.21875 
Q 42.328125 -1.421875 30.609375 -1.421875 
Q 18.84375 -1.421875 12.171875 6.21875 
Q 5.515625 13.875 5.515625 27.296875 
Q 5.515625 40.765625 12.171875 48.375 
Q 18.84375 56 30.609375 56 
z
" id="DejaVuSans-111"/>
       <path d="M 54.890625 33.015625 
L 54.890625 0 
L 45.90625 0 
L 45.90625 32.71875 
Q 45.90625 40.484375 42.875 44.328125 
Q 39.84375 48.1875 33.796875 48.1875 
Q 26.515625 48.1875 22.3125 43.546875 
Q 18.109375 38.921875 18.109375 30.90625 
L 18.109375 0 
L 9.078125 0 
L 9.078125 54.6875 
L 18.109375 54.6875 
L 18.109375 46.1875 
Q 21.34375 51.125 25.703125 53.5625 
Q 30.078125 56 35.796875 56 
Q 45.21875 56 50.046875 50.171875 
Q 54.890625 44.34375 54.890625 33.015625 
z
" id="DejaVuSans-110"/>
       <path d="M 45.40625 27.984375 
Q 45.40625 37.75 41.375 43.109375 
Q 37.359375 48.484375 30.078125 48.484375 
Q 22.859375 48.484375 18.828125 43.109375 
Q 14.796875 37.75 14.796875 27.984375 
Q 14.796875 18.265625 18.828125 12.890625 
Q 22.859375 7.515625 30.078125 7.515625 
Q 37.359375 7.515625 41.375 12.890625 
Q 45.40625 18.265625 45.40625 27.984375 
z
M 54.390625 6.78125 
Q 54.390625 -7.171875 48.1875 -13.984375 
Q 42 -20.796875 29.203125 -20.796875 
Q 24.46875 -20.796875 20.265625 -20.09375 
Q 16.0625 -19.390625 12.109375 -17.921875 
L 12.109375 -9.1875 
Q 16.0625 -11.328125 19.921875 -12.34375 
Q 23.78125 -13.375 27.78125 -13.375 
Q 36.625 -13.375 41.015625 -8.765625 
Q 45.40625 -4.15625 45.40625 5.171875 
L 45.40625 9.625 
Q 42.625 4.78125 38.28125 2.390625 
Q 33.9375 0 27.875 0 
Q 17.828125 0 11.671875 7.65625 
Q 5.515625 15.328125 5.515625 27.984375 
Q 5.515625 40.671875 11.671875 48.328125 
Q 17.828125 56 27.875 56 
Q 33.9375 56 38.28125 53.609375 
Q 42.625 51.21875 45.40625 46.390625 
L 45.40625 54.6875 
L 54.390625 54.6875 
z
" id="DejaVuSans-103"/>
       <path d="M 44.28125 53.078125 
L 44.28125 44.578125 
Q 40.484375 46.53125 36.375 47.5 
Q 32.28125 48.484375 27.875 48.484375 
Q 21.1875 48.484375 17.84375 46.4375 
Q 14.5 44.390625 14.5 40.28125 
Q 14.5 37.15625 16.890625 35.375 
Q 19.28125 33.59375 26.515625 31.984375 
L 29.59375 31.296875 
Q 39.15625 29.25 43.1875 25.515625 
Q 47.21875 21.78125 47.21875 15.09375 
Q 47.21875 7.46875 41.1875 3.015625 
Q 35.15625 -1.421875 24.609375 -1.421875 
Q 20.21875 -1.421875 15.453125 -0.5625 
Q 10.6875 0.296875 5.421875 2 
L 5.421875 11.28125 
Q 10.40625 8.6875 15.234375 7.390625 
Q 20.0625 6.109375 24.8125 6.109375 
Q 31.15625 6.109375 34.5625 8.28125 
Q 37.984375 10.453125 37.984375 14.40625 
Q 37.984375 18.0625 35.515625 20.015625 
Q 33.0625 21.96875 24.703125 23.78125 
L 21.578125 24.515625 
Q 13.234375 26.265625 9.515625 29.90625 
Q 5.8125 33.546875 5.8125 39.890625 
Q 5.8125 47.609375 11.28125 51.796875 
Q 16.75 56 26.8125 56 
Q 31.78125 56 36.171875 55.265625 
Q 40.578125 54.546875 44.28125 53.078125 
z
" id="DejaVuSans-115"/>
       <path d="M 18.3125 70.21875 
L 18.3125 54.6875 
L 36.8125 54.6875 
L 36.8125 47.703125 
L 18.3125 47.703125 
L 18.3125 18.015625 
Q 18.3125 11.328125 20.140625 9.421875 
Q 21.96875 7.515625 27.59375 7.515625 
L 36.8125 7.515625 
L 36.8125 0 
L 27.59375 0 
Q 17.1875 0 13.234375 3.875 
Q 9.28125 7.765625 9.28125 18.015625 
L 9.28125 47.703125 
L 2.6875 47.703125 
L 2.6875 54.6875 
L 9.28125 54.6875 
L 9.28125 70.21875 
z
" id="DejaVuSans-116"/>
       <path d="M 45.40625 46.390625 
L 45.40625 75.984375 
L 54.390625 75.984375 
L 54.390625 0 
L 45.40625 0 
L 45.40625 8.203125 
Q 42.578125 3.328125 38.25 0.953125 
Q 33.9375 -1.421875 27.875 -1.421875 
Q 17.96875 -1.421875 11.734375 6.484375 
Q 5.515625 14.40625 5.515625 27.296875 
Q 5.515625 40.1875 11.734375 48.09375 
Q 17.96875 56 27.875 56 
Q 33.9375 56 38.25 53.625 
Q 42.578125 51.265625 45.40625 46.390625 
z
M 14.796875 27.296875 
Q 14.796875 17.390625 18.875 11.75 
Q 22.953125 6.109375 30.078125 6.109375 
Q 37.203125 6.109375 41.296875 11.75 
Q 45.40625 17.390625 45.40625 27.296875 
Q 45.40625 37.203125 41.296875 42.84375 
Q 37.203125 48.484375 30.078125 48.484375 
Q 22.953125 48.484375 18.875 42.84375 
Q 14.796875 37.203125 14.796875 27.296875 
z
" id="DejaVuSans-100"/>
      </defs>
      <g transform="translate(236.826413 334.998438)scale(0.1 -0.1)">
       <use xlink:href="#DejaVuSans-68"/>
       <use x="77.001953" xlink:href="#DejaVuSans-101"/>
       <use x="138.525391" xlink:href="#DejaVuSans-99"/>
       <use x="193.505859" xlink:href="#DejaVuSans-111"/>
       <use x="254.6875" xlink:href="#DejaVuSans-110"/>
       <use x="318.066406" xlink:href="#DejaVuSans-103"/>
       <use x="381.542969" xlink:href="#DejaVuSans-101"/>
       <use x="443.066406" xlink:href="#DejaVuSans-115"/>
       <use x="495.166016" xlink:href="#DejaVuSans-116"/>
       <use x="534.375" xlink:href="#DejaVuSans-101"/>
       <use x="595.898438" xlink:href="#DejaVuSans-100"/>
      </g>
     </g>
    </g>
    <g id="xtick_3">
     <g id="line2d_3">
      <g>
       <use style="stroke:#000000;stroke-width:0.8;" x="332.811971" xlink:href="#m17d1f7747d" y="320.4"/>
      </g>
     </g>
     <g id="text_3">
      <!-- Traffic -->
      <defs>
       <path d="M -0.296875 72.90625 
L 61.375 72.90625 
L 61.375 64.59375 
L 35.5 64.59375 
L 35.5 0 
L 25.59375 0 
L 25.59375 64.59375 
L -0.296875 64.59375 
z
" id="DejaVuSans-84"/>
       <path d="M 34.28125 27.484375 
Q 23.390625 27.484375 19.1875 25 
Q 14.984375 22.515625 14.984375 16.5 
Q 14.984375 11.71875 18.140625 8.90625 
Q 21.296875 6.109375 26.703125 6.109375 
Q 34.1875 6.109375 38.703125 11.40625 
Q 43.21875 16.703125 43.21875 25.484375 
L 43.21875 27.484375 
z
M 52.203125 31.203125 
L 52.203125 0 
L 43.21875 0 
L 43.21875 8.296875 
Q 40.140625 3.328125 35.546875 0.953125 
Q 30.953125 -1.421875 24.3125 -1.421875 
Q 15.921875 -1.421875 10.953125 3.296875 
Q 6 8.015625 6 15.921875 
Q 6 25.140625 12.171875 29.828125 
Q 18.359375 34.515625 30.609375 34.515625 
L 43.21875 34.515625 
L 43.21875 35.40625 
Q 43.21875 41.609375 39.140625 45 
Q 35.0625 48.390625 27.6875 48.390625 
Q 23 48.390625 18.546875 47.265625 
Q 14.109375 46.140625 10.015625 43.890625 
L 10.015625 52.203125 
Q 14.9375 54.109375 19.578125 55.046875 
Q 24.21875 56 28.609375 56 
Q 40.484375 56 46.34375 49.84375 
Q 52.203125 43.703125 52.203125 31.203125 
z
" id="DejaVuSans-97"/>
       <path d="M 37.109375 75.984375 
L 37.109375 68.5 
L 28.515625 68.5 
Q 23.6875 68.5 21.796875 66.546875 
Q 19.921875 64.59375 19.921875 59.515625 
L 19.921875 54.6875 
L 34.71875 54.6875 
L 34.71875 47.703125 
L 19.921875 47.703125 
L 19.921875 0 
L 10.890625 0 
L 10.890625 47.703125 
L 2.296875 47.703125 
L 2.296875 54.6875 
L 10.890625 54.6875 
L 10.890625 58.5 
Q 10.890625 67.625 15.140625 71.796875 
Q 19.390625 75.984375 28.609375 75.984375 
z
" id="DejaVuSans-102"/>
       <path d="M 9.421875 54.6875 
L 18.40625 54.6875 
L 18.40625 0 
L 9.421875 0 
z
M 9.421875 75.984375 
L 18.40625 75.984375 
L 18.40625 64.59375 
L 9.421875 64.59375 
z
" id="DejaVuSans-105"/>
      </defs>
      <g transform="translate(317.717439 334.998438)scale(0.1 -0.1)">
       <use xlink:href="#DejaVuSans-84"/>
       <use x="46.333984" xlink:href="#DejaVuSans-114"/>
       <use x="87.447266" xlink:href="#DejaVuSans-97"/>
       <use x="148.726562" xlink:href="#DejaVuSans-102"/>
       <use x="183.931641" xlink:href="#DejaVuSans-102"/>
       <use x="219.136719" xlink:href="#DejaVuSans-105"/>
       <use x="246.919922" xlink:href="#DejaVuSans-99"/>
      </g>
     </g>
    </g>
    <g id="xtick_4">
     <g id="line2d_4">
      <g>
       <use style="stroke:#000000;stroke-width:0.8;" x="395.827216" xlink:href="#m17d1f7747d" y="320.4"/>
      </g>
     </g>
     <g id="text_4">
      <!-- Congested -->
      <defs>
       <path d="M 64.40625 67.28125 
L 64.40625 56.890625 
Q 59.421875 61.53125 53.78125 63.8125 
Q 48.140625 66.109375 41.796875 66.109375 
Q 29.296875 66.109375 22.65625 58.46875 
Q 16.015625 50.828125 16.015625 36.375 
Q 16.015625 21.96875 22.65625 14.328125 
Q 29.296875 6.6875 41.796875 6.6875 
Q 48.140625 6.6875 53.78125 8.984375 
Q 59.421875 11.28125 64.40625 15.921875 
L 64.40625 5.609375 
Q 59.234375 2.09375 53.4375 0.328125 
Q 47.65625 -1.421875 41.21875 -1.421875 
Q 24.65625 -1.421875 15.125 8.703125 
Q 5.609375 18.84375 5.609375 36.375 
Q 5.609375 53.953125 15.125 64.078125 
Q 24.65625 74.21875 41.21875 74.21875 
Q 47.75 74.21875 53.53125 72.484375 
Q 59.328125 70.75 64.40625 67.28125 
z
" id="DejaVuSans-67"/>
      </defs>
      <g transform="translate(369.041279 334.998438)scale(0.1 -0.1)">
       <use xlink:href="#DejaVuSans-67"/>
       <use x="69.824219" xlink:href="#DejaVuSans-111"/>
       <use x="131.005859" xlink:href="#DejaVuSans-110"/>
       <use x="194.384766" xlink:href="#DejaVuSans-103"/>
       <use x="257.861328" xlink:href="#DejaVuSans-101"/>
       <use x="319.384766" xlink:href="#DejaVuSans-115"/>
       <use x="371.484375" xlink:href="#DejaVuSans-116"/>
       <use x="410.693359" xlink:href="#DejaVuSans-101"/>
       <use x="472.216797" xlink:href="#DejaVuSans-100"/>
      </g>
     </g>
    </g>
   </g>
   <g id="matplotlib.axis_2">
    <g id="ytick_1">
     <g id="line2d_5">
      <defs>
       <path d="M 0 0 
L -3.5 0 
" id="m49f2a08d86" style="stroke:#000000;stroke-width:0.8;"/>
      </defs>
      <g>
       <use style="stroke:#000000;stroke-width:0.8;" x="180" xlink:href="#m49f2a08d86" y="320.4"/>
      </g>
     </g>
     <g id="text_5">
      <!-- 0 -->
      <defs>
       <path d="M 31.78125 66.40625 
Q 24.171875 66.40625 20.328125 58.90625 
Q 16.5 51.421875 16.5 36.375 
Q 16.5 21.390625 20.328125 13.890625 
Q 24.171875 6.390625 31.78125 6.390625 
Q 39.453125 6.390625 43.28125 13.890625 
Q 47.125 21.390625 47.125 36.375 
Q 47.125 51.421875 43.28125 58.90625 
Q 39.453125 66.40625 31.78125 66.40625 
z
M 31.78125 74.21875 
Q 44.046875 74.21875 50.515625 64.515625 
Q 56.984375 54.828125 56.984375 36.375 
Q 56.984375 17.96875 50.515625 8.265625 
Q 44.046875 -1.421875 31.78125 -1.421875 
Q 19.53125 -1.421875 13.0625 8.265625 
Q 6.59375 17.96875 6.59375 36.375 
Q 6.59375 54.828125 13.0625 64.515625 
Q 19.53125 74.21875 31.78125 74.21875 
z
" id="DejaVuSans-48"/>
      </defs>
      <g transform="translate(166.6375 324.199219)scale(0.1 -0.1)">
       <use xlink:href="#DejaVuSans-48"/>
      </g>
     </g>
    </g>
    <g id="ytick_2">
     <g id="line2d_6">
      <g>
       <use style="stroke:#000000;stroke-width:0.8;" x="180" xlink:href="#m49f2a08d86" y="273.591489"/>
      </g>
     </g>
     <g id="text_6">
      <!-- 1 -->
      <defs>
       <path d="M 12.40625 8.296875 
L 28.515625 8.296875 
L 28.515625 63.921875 
L 10.984375 60.40625 
L 10.984375 69.390625 
L 28.421875 72.90625 
L 38.28125 72.90625 
L 38.28125 8.296875 
L 54.390625 8.296875 
L 54.390625 0 
L 12.40625 0 
z
" id="DejaVuSans-49"/>
      </defs>
      <g transform="translate(166.6375 277.390708)scale(0.1 -0.1)">
       <use xlink:href="#DejaVuSans-49"/>
      </g>
     </g>
    </g>
    <g id="ytick_3">
     <g id="line2d_7">
      <g>
       <use style="stroke:#000000;stroke-width:0.8;" x="180" xlink:href="#m49f2a08d86" y="226.782979"/>
      </g>
     </g>
     <g id="text_7">
      <!-- 2 -->
      <defs>
       <path d="M 19.1875 8.296875 
L 53.609375 8.296875 
L 53.609375 0 
L 7.328125 0 
L 7.328125 8.296875 
Q 12.9375 14.109375 22.625 23.890625 
Q 32.328125 33.6875 34.8125 36.53125 
Q 39.546875 41.84375 41.421875 45.53125 
Q 43.3125 49.21875 43.3125 52.78125 
Q 43.3125 58.59375 39.234375 62.25 
Q 35.15625 65.921875 28.609375 65.921875 
Q 23.96875 65.921875 18.8125 64.3125 
Q 13.671875 62.703125 7.8125 59.421875 
L 7.8125 69.390625 
Q 13.765625 71.78125 18.9375 73 
Q 24.125 74.21875 28.421875 74.21875 
Q 39.75 74.21875 46.484375 68.546875 
Q 53.21875 62.890625 53.21875 53.421875 
Q 53.21875 48.921875 51.53125 44.890625 
Q 49.859375 40.875 45.40625 35.40625 
Q 44.1875 33.984375 37.640625 27.21875 
Q 31.109375 20.453125 19.1875 8.296875 
z
" id="DejaVuSans-50"/>
      </defs>
      <g transform="translate(166.6375 230.582197)scale(0.1 -0.1)">
       <use xlink:href="#DejaVuSans-50"/>
      </g>
     </g>
    </g>
    <g id="ytick_4">
     <g id="line2d_8">
      <g>
       <use style="stroke:#000000;stroke-width:0.8;" x="180" xlink:href="#m49f2a08d86" y="179.974468"/>
      </g>
     </g>
     <g id="text_8">
      <!-- 3 -->
      <defs>
       <path d="M 40.578125 39.3125 
Q 47.65625 37.796875 51.625 33 
Q 55.609375 28.21875 55.609375 21.1875 
Q 55.609375 10.40625 48.1875 4.484375 
Q 40.765625 -1.421875 27.09375 -1.421875 
Q 22.515625 -1.421875 17.65625 -0.515625 
Q 12.796875 0.390625 7.625 2.203125 
L 7.625 11.71875 
Q 11.71875 9.328125 16.59375 8.109375 
Q 21.484375 6.890625 26.8125 6.890625 
Q 36.078125 6.890625 40.9375 10.546875 
Q 45.796875 14.203125 45.796875 21.1875 
Q 45.796875 27.640625 41.28125 31.265625 
Q 36.765625 34.90625 28.71875 34.90625 
L 20.21875 34.90625 
L 20.21875 43.015625 
L 29.109375 43.015625 
Q 36.375 43.015625 40.234375 45.921875 
Q 44.09375 48.828125 44.09375 54.296875 
Q 44.09375 59.90625 40.109375 62.90625 
Q 36.140625 65.921875 28.71875 65.921875 
Q 24.65625 65.921875 20.015625 65.03125 
Q 15.375 64.15625 9.8125 62.3125 
L 9.8125 71.09375 
Q 15.4375 72.65625 20.34375 73.4375 
Q 25.25 74.21875 29.59375 74.21875 
Q 40.828125 74.21875 47.359375 69.109375 
Q 53.90625 64.015625 53.90625 55.328125 
Q 53.90625 49.265625 50.4375 45.09375 
Q 46.96875 40.921875 40.578125 39.3125 
z
" id="DejaVuSans-51"/>
      </defs>
      <g transform="translate(166.6375 183.773687)scale(0.1 -0.1)">
       <use xlink:href="#DejaVuSans-51"/>
      </g>
     </g>
    </g>
    <g id="ytick_5">
     <g id="line2d_9">
      <g>
       <use style="stroke:#000000;stroke-width:0.8;" x="180" xlink:href="#m49f2a08d86" y="133.165957"/>
      </g>
     </g>
     <g id="text_9">
      <!-- 4 -->
      <defs>
       <path d="M 37.796875 64.3125 
L 12.890625 25.390625 
L 37.796875 25.390625 
z
M 35.203125 72.90625 
L 47.609375 72.90625 
L 47.609375 25.390625 
L 58.015625 25.390625 
L 58.015625 17.1875 
L 47.609375 17.1875 
L 47.609375 0 
L 37.796875 0 
L 37.796875 17.1875 
L 4.890625 17.1875 
L 4.890625 26.703125 
z
" id="DejaVuSans-52"/>
      </defs>
      <g transform="translate(166.6375 136.965176)scale(0.1 -0.1)">
       <use xlink:href="#DejaVuSans-52"/>
      </g>
     </g>
    </g>
    <g id="ytick_6">
     <g id="line2d_10">
      <g>
       <use style="stroke:#000000;stroke-width:0.8;" x="180" xlink:href="#m49f2a08d86" y="86.357447"/>
      </g>
     </g>
     <g id="text_10">
      <!-- 5 -->
      <defs>
       <path d="M 10.796875 72.90625 
L 49.515625 72.90625 
L 49.515625 64.59375 
L 19.828125 64.59375 
L 19.828125 46.734375 
Q 21.96875 47.46875 24.109375 47.828125 
Q 26.265625 48.1875 28.421875 48.1875 
Q 40.625 48.1875 47.75 41.5 
Q 54.890625 34.8125 54.890625 23.390625 
Q 54.890625 11.625 47.5625 5.09375 
Q 40.234375 -1.421875 26.90625 -1.421875 
Q 22.3125 -1.421875 17.546875 -0.640625 
Q 12.796875 0.140625 7.71875 1.703125 
L 7.71875 11.625 
Q 12.109375 9.234375 16.796875 8.0625 
Q 21.484375 6.890625 26.703125 6.890625 
Q 35.15625 6.890625 40.078125 11.328125 
Q 45.015625 15.765625 45.015625 23.390625 
Q 45.015625 31 40.078125 35.4375 
Q 35.15625 39.890625 26.703125 39.890625 
Q 22.75 39.890625 18.8125 39.015625 
Q 14.890625 38.140625 10.796875 36.28125 
z
" id="DejaVuSans-53"/>
      </defs>
      <g transform="translate(166.6375 90.156666)scale(0.1 -0.1)">
       <use xlink:href="#DejaVuSans-53"/>
      </g>
     </g>
    </g>
    <g id="text_11">
     <!-- Avg. Speed -->
     <defs>
      <path d="M 34.1875 63.1875 
L 20.796875 26.90625 
L 47.609375 26.90625 
z
M 28.609375 72.90625 
L 39.796875 72.90625 
L 67.578125 0 
L 57.328125 0 
L 50.6875 18.703125 
L 17.828125 18.703125 
L 11.1875 0 
L 0.78125 0 
z
" id="DejaVuSans-65"/>
      <path d="M 2.984375 54.6875 
L 12.5 54.6875 
L 29.59375 8.796875 
L 46.6875 54.6875 
L 56.203125 54.6875 
L 35.6875 0 
L 23.484375 0 
z
" id="DejaVuSans-118"/>
      <path d="M 10.6875 12.40625 
L 21 12.40625 
L 21 0 
L 10.6875 0 
z
" id="DejaVuSans-46"/>
      <path id="DejaVuSans-32"/>
      <path d="M 53.515625 70.515625 
L 53.515625 60.890625 
Q 47.90625 63.578125 42.921875 64.890625 
Q 37.9375 66.21875 33.296875 66.21875 
Q 25.25 66.21875 20.875 63.09375 
Q 16.5 59.96875 16.5 54.203125 
Q 16.5 49.359375 19.40625 46.890625 
Q 22.3125 44.4375 30.421875 42.921875 
L 36.375 41.703125 
Q 47.40625 39.59375 52.65625 34.296875 
Q 57.90625 29 57.90625 20.125 
Q 57.90625 9.515625 50.796875 4.046875 
Q 43.703125 -1.421875 29.984375 -1.421875 
Q 24.8125 -1.421875 18.96875 -0.25 
Q 13.140625 0.921875 6.890625 3.21875 
L 6.890625 13.375 
Q 12.890625 10.015625 18.65625 8.296875 
Q 24.421875 6.59375 29.984375 6.59375 
Q 38.421875 6.59375 43.015625 9.90625 
Q 47.609375 13.234375 47.609375 19.390625 
Q 47.609375 24.75 44.3125 27.78125 
Q 41.015625 30.8125 33.5 32.328125 
L 27.484375 33.5 
Q 16.453125 35.6875 11.515625 40.375 
Q 6.59375 45.0625 6.59375 53.421875 
Q 6.59375 63.09375 13.40625 68.65625 
Q 20.21875 74.21875 32.171875 74.21875 
Q 37.3125 74.21875 42.625 73.28125 
Q 47.953125 72.359375 53.515625 70.515625 
z
" id="DejaVuSans-83"/>
      <path d="M 18.109375 8.203125 
L 18.109375 -20.796875 
L 9.078125 -20.796875 
L 9.078125 54.6875 
L 18.109375 54.6875 
L 18.109375 46.390625 
Q 20.953125 51.265625 25.265625 53.625 
Q 29.59375 56 35.59375 56 
Q 45.5625 56 51.78125 48.09375 
Q 58.015625 40.1875 58.015625 27.296875 
Q 58.015625 14.40625 51.78125 6.484375 
Q 45.5625 -1.421875 35.59375 -1.421875 
Q 29.59375 -1.421875 25.265625 0.953125 
Q 20.953125 3.328125 18.109375 8.203125 
z
M 48.6875 27.296875 
Q 48.6875 37.203125 44.609375 42.84375 
Q 40.53125 48.484375 33.40625 48.484375 
Q 26.265625 48.484375 22.1875 42.84375 
Q 18.109375 37.203125 18.109375 27.296875 
Q 18.109375 17.390625 22.1875 11.75 
Q 26.265625 6.109375 33.40625 6.109375 
Q 40.53125 6.109375 44.609375 11.75 
Q 48.6875 17.390625 48.6875 27.296875 
z
" id="DejaVuSans-112"/>
     </defs>
     <g transform="translate(160.557812 209.914062)rotate(-90)scale(0.1 -0.1)">
      <use xlink:href="#DejaVuSans-65"/>
      <use x="62.533203" xlink:href="#DejaVuSans-118"/>
      <use x="121.712891" xlink:href="#DejaVuSans-103"/>
      <use x="185.189453" xlink:href="#DejaVuSans-46"/>
      <use x="216.976562" xlink:href="#DejaVuSans-32"/>
      <use x="248.763672" xlink:href="#DejaVuSans-83"/>
      <use x="312.240234" xlink:href="#DejaVuSans-112"/>
      <use x="375.716797" xlink:href="#DejaVuSans-101"/>
      <use x="437.240234" xlink:href="#DejaVuSans-101"/>
      <use x="498.763672" xlink:href="#DejaVuSans-100"/>
     </g>
    </g>
   </g>
   <g id="patch_23">
    <path d="M 180 320.4 
L 180 43.2 
" style="fill:none;stroke:#000000;stroke-linecap:square;stroke-linejoin:miter;stroke-width:0.8;"/>
   </g>
   <g id="patch_24">
    <path d="M 422.608696 320.4 
L 422.608696 43.2 
" style="fill:none;stroke:#000000;stroke-linecap:square;stroke-linejoin:miter;stroke-width:0.8;"/>
   </g>
   <g id="patch_25">
    <path d="M 180 320.4 
L 422.608696 320.4 
" style="fill:none;stroke:#000000;stroke-linecap:square;stroke-linejoin:miter;stroke-width:0.8;"/>
   </g>
   <g id="patch_26">
    <path d="M 180 43.2 
L 422.608696 43.2 
" style="fill:none;stroke:#000000;stroke-linecap:square;stroke-linejoin:miter;stroke-width:0.8;"/>
   </g>
   <g id="legend_1">
    <g id="patch_27">
     <path d="M 305.188383 124.590625 
L 415.608696 124.590625 
Q 417.608696 124.590625 417.608696 122.590625 
L 417.608696 50.2 
Q 417.608696 48.2 415.608696 48.2 
L 305.188383 48.2 
Q 303.188383 48.2 303.188383 50.2 
L 303.188383 122.590625 
Q 303.188383 124.590625 305.188383 124.590625 
z
" style="fill:#ffffff;opacity:0.8;stroke:#cccccc;stroke-linejoin:miter;"/>
    </g>
    <g id="patch_28">
     <path d="M 307.188383 59.798437 
L 327.188383 59.798437 
L 327.188383 52.798437 
L 307.188383 52.798437 
z
" style="fill:#1f77b4;"/>
    </g>
    <g id="text_12">
     <!-- Timed -->
     <defs>
      <path d="M 52 44.1875 
Q 55.375 50.25 60.0625 53.125 
Q 64.75 56 71.09375 56 
Q 79.640625 56 84.28125 50.015625 
Q 88.921875 44.046875 88.921875 33.015625 
L 88.921875 0 
L 79.890625 0 
L 79.890625 32.71875 
Q 79.890625 40.578125 77.09375 44.375 
Q 74.3125 48.1875 68.609375 48.1875 
Q 61.625 48.1875 57.5625 43.546875 
Q 53.515625 38.921875 53.515625 30.90625 
L 53.515625 0 
L 44.484375 0 
L 44.484375 32.71875 
Q 44.484375 40.625 41.703125 44.40625 
Q 38.921875 48.1875 33.109375 48.1875 
Q 26.21875 48.1875 22.15625 43.53125 
Q 18.109375 38.875 18.109375 30.90625 
L 18.109375 0 
L 9.078125 0 
L 9.078125 54.6875 
L 18.109375 54.6875 
L 18.109375 46.1875 
Q 21.1875 51.21875 25.484375 53.609375 
Q 29.78125 56 35.6875 56 
Q 41.65625 56 45.828125 52.96875 
Q 50 49.953125 52 44.1875 
z
" id="DejaVuSans-109"/>
     </defs>
     <g transform="translate(335.188383 59.798437)scale(0.1 -0.1)">
      <use xlink:href="#DejaVuSans-84"/>
      <use x="57.958984" xlink:href="#DejaVuSans-105"/>
      <use x="85.742188" xlink:href="#DejaVuSans-109"/>
      <use x="183.154297" xlink:href="#DejaVuSans-101"/>
      <use x="244.677734" xlink:href="#DejaVuSans-100"/>
     </g>
    </g>
    <g id="patch_29">
     <path d="M 307.188383 74.476562 
L 327.188383 74.476562 
L 327.188383 67.476562 
L 307.188383 67.476562 
z
" style="fill:#ff7f0e;"/>
    </g>
    <g id="text_13">
     <!-- Webster -->
     <defs>
      <path d="M 3.328125 72.90625 
L 13.28125 72.90625 
L 28.609375 11.28125 
L 43.890625 72.90625 
L 54.984375 72.90625 
L 70.3125 11.28125 
L 85.59375 72.90625 
L 95.609375 72.90625 
L 77.296875 0 
L 64.890625 0 
L 49.515625 63.28125 
L 33.984375 0 
L 21.578125 0 
z
" id="DejaVuSans-87"/>
      <path d="M 48.6875 27.296875 
Q 48.6875 37.203125 44.609375 42.84375 
Q 40.53125 48.484375 33.40625 48.484375 
Q 26.265625 48.484375 22.1875 42.84375 
Q 18.109375 37.203125 18.109375 27.296875 
Q 18.109375 17.390625 22.1875 11.75 
Q 26.265625 6.109375 33.40625 6.109375 
Q 40.53125 6.109375 44.609375 11.75 
Q 48.6875 17.390625 48.6875 27.296875 
z
M 18.109375 46.390625 
Q 20.953125 51.265625 25.265625 53.625 
Q 29.59375 56 35.59375 56 
Q 45.5625 56 51.78125 48.09375 
Q 58.015625 40.1875 58.015625 27.296875 
Q 58.015625 14.40625 51.78125 6.484375 
Q 45.5625 -1.421875 35.59375 -1.421875 
Q 29.59375 -1.421875 25.265625 0.953125 
Q 20.953125 3.328125 18.109375 8.203125 
L 18.109375 0 
L 9.078125 0 
L 9.078125 75.984375 
L 18.109375 75.984375 
z
" id="DejaVuSans-98"/>
     </defs>
     <g transform="translate(335.188383 74.476562)scale(0.1 -0.1)">
      <use xlink:href="#DejaVuSans-87"/>
      <use x="93.001953" xlink:href="#DejaVuSans-101"/>
      <use x="154.525391" xlink:href="#DejaVuSans-98"/>
      <use x="218.001953" xlink:href="#DejaVuSans-115"/>
      <use x="270.101562" xlink:href="#DejaVuSans-116"/>
      <use x="309.310547" xlink:href="#DejaVuSans-101"/>
      <use x="370.833984" xlink:href="#DejaVuSans-114"/>
     </g>
    </g>
    <g id="patch_30">
     <path d="M 307.188383 89.154687 
L 327.188383 89.154687 
L 327.188383 82.154687 
L 307.188383 82.154687 
z
" style="fill:#2ca02c;"/>
    </g>
    <g id="text_14">
     <!-- Coordinated -->
     <g transform="translate(335.188383 89.154687)scale(0.1 -0.1)">
      <use xlink:href="#DejaVuSans-67"/>
      <use x="69.824219" xlink:href="#DejaVuSans-111"/>
      <use x="131.005859" xlink:href="#DejaVuSans-111"/>
      <use x="192.1875" xlink:href="#DejaVuSans-114"/>
      <use x="231.550781" xlink:href="#DejaVuSans-100"/>
      <use x="295.027344" xlink:href="#DejaVuSans-105"/>
      <use x="322.810547" xlink:href="#DejaVuSans-110"/>
      <use x="386.189453" xlink:href="#DejaVuSans-97"/>
      <use x="447.46875" xlink:href="#DejaVuSans-116"/>
      <use x="486.677734" xlink:href="#DejaVuSans-101"/>
      <use x="548.201172" xlink:href="#DejaVuSans-100"/>
     </g>
    </g>
    <g id="patch_31">
     <path d="M 307.188383 103.832812 
L 327.188383 103.832812 
L 327.188383 96.832812 
L 307.188383 96.832812 
z
" style="fill:#d62728;"/>
    </g>
    <g id="text_15">
     <!-- Collaborative P -->
     <defs>
      <path d="M 9.421875 75.984375 
L 18.40625 75.984375 
L 18.40625 0 
L 9.421875 0 
z
" id="DejaVuSans-108"/>
      <path d="M 19.671875 64.796875 
L 19.671875 37.40625 
L 32.078125 37.40625 
Q 38.96875 37.40625 42.71875 40.96875 
Q 46.484375 44.53125 46.484375 51.125 
Q 46.484375 57.671875 42.71875 61.234375 
Q 38.96875 64.796875 32.078125 64.796875 
z
M 9.8125 72.90625 
L 32.078125 72.90625 
Q 44.34375 72.90625 50.609375 67.359375 
Q 56.890625 61.8125 56.890625 51.125 
Q 56.890625 40.328125 50.609375 34.8125 
Q 44.34375 29.296875 32.078125 29.296875 
L 19.671875 29.296875 
L 19.671875 0 
L 9.8125 0 
z
" id="DejaVuSans-80"/>
     </defs>
     <g transform="translate(335.188383 103.832812)scale(0.1 -0.1)">
      <use xlink:href="#DejaVuSans-67"/>
      <use x="69.824219" xlink:href="#DejaVuSans-111"/>
      <use x="131.005859" xlink:href="#DejaVuSans-108"/>
      <use x="158.789062" xlink:href="#DejaVuSans-108"/>
      <use x="186.572266" xlink:href="#DejaVuSans-97"/>
      <use x="247.851562" xlink:href="#DejaVuSans-98"/>
      <use x="311.328125" xlink:href="#DejaVuSans-111"/>
      <use x="372.509766" xlink:href="#DejaVuSans-114"/>
      <use x="413.623047" xlink:href="#DejaVuSans-97"/>
      <use x="474.902344" xlink:href="#DejaVuSans-116"/>
      <use x="514.111328" xlink:href="#DejaVuSans-105"/>
      <use x="541.894531" xlink:href="#DejaVuSans-118"/>
      <use x="601.074219" xlink:href="#DejaVuSans-101"/>
      <use x="662.597656" xlink:href="#DejaVuSans-32"/>
      <use x="694.384766" xlink:href="#DejaVuSans-80"/>
     </g>
    </g>
    <g id="patch_32">
     <path d="M 307.188383 118.510937 
L 327.188383 118.510937 
L 327.188383 111.510937 
L 307.188383 111.510937 
z
" style="fill:#9467bd;"/>
    </g>
    <g id="text_16">
     <!-- Collaborative PI -->
     <defs>
      <path d="M 9.8125 72.90625 
L 19.671875 72.90625 
L 19.671875 0 
L 9.8125 0 
z
" id="DejaVuSans-73"/>
     </defs>
     <g transform="translate(335.188383 118.510937)scale(0.1 -0.1)">
      <use xlink:href="#DejaVuSans-67"/>
      <use x="69.824219" xlink:href="#DejaVuSans-111"/>
      <use x="131.005859" xlink:href="#DejaVuSans-108"/>
      <use x="158.789062" xlink:href="#DejaVuSans-108"/>
      <use x="186.572266" xlink:href="#DejaVuSans-97"/>
      <use x="247.851562" xlink:href="#DejaVuSans-98"/>
      <use x="311.328125" xlink:href="#DejaVuSans-111"/>
      <use x="372.509766" xlink:href="#DejaVuSans-114"/>
      <use x="413.623047" xlink:href="#DejaVuSans-97"/>
      <use x="474.902344" xlink:href="#DejaVuSans-116"/>
      <use x="514.111328" xlink:href="#DejaVuSans-105"/>
      <use x="541.894531" xlink:href="#DejaVuSans-118"/>
      <use x="601.074219" xlink:href="#DejaVuSans-101"/>
      <use x="662.597656" xlink:href="#DejaVuSans-32"/>
      <use x="694.384766" xlink:href="#DejaVuSans-80"/>
      <use x="754.6875" xlink:href="#DejaVuSans-73"/>
     </g>
    </g>
   </g>
  </g>
  <g id="axes_2">
   <g id="patch_33">
    <path d="M 471.130435 320.4 
L 713.73913 320.4 
L 713.73913 43.2 
L 471.130435 43.2 
z
" style="fill:#ffffff;"/>
   </g>
   <g id="patch_34">
    <path clip-path="url(#pb053b6c26e)" d="M 482.158103 320.4 
L 488.459627 320.4 
L 488.459627 271.913335 
L 482.158103 271.913335 
z
" style="fill:#1f77b4;"/>
   </g>
   <g id="patch_35">
    <path clip-path="url(#pb053b6c26e)" d="M 545.173348 320.4 
L 551.474873 320.4 
L 551.474873 230.164961 
L 545.173348 230.164961 
z
" style="fill:#1f77b4;"/>
   </g>
   <g id="patch_36">
    <path clip-path="url(#pb053b6c26e)" d="M 608.188594 320.4 
L 614.490119 320.4 
L 614.490119 136.03208 
L 608.188594 136.03208 
z
" style="fill:#1f77b4;"/>
   </g>
   <g id="patch_37">
    <path clip-path="url(#pb053b6c26e)" d="M 671.20384 320.4 
L 677.505364 320.4 
L 677.505364 77.411026 
L 671.20384 77.411026 
z
" style="fill:#1f77b4;"/>
   </g>
   <g id="patch_38">
    <path clip-path="url(#pb053b6c26e)" d="M 488.459627 320.4 
L 494.761152 320.4 
L 494.761152 273.75859 
L 488.459627 273.75859 
z
" style="fill:#ff7f0e;"/>
   </g>
   <g id="patch_39">
    <path clip-path="url(#pb053b6c26e)" d="M 551.474873 320.4 
L 557.776398 320.4 
L 557.776398 240.7928 
L 551.474873 240.7928 
z
" style="fill:#ff7f0e;"/>
   </g>
   <g id="patch_40">
    <path clip-path="url(#pb053b6c26e)" d="M 614.490119 320.4 
L 620.791643 320.4 
L 620.791643 174.114824 
L 614.490119 174.114824 
z
" style="fill:#ff7f0e;"/>
   </g>
   <g id="patch_41">
    <path clip-path="url(#pb053b6c26e)" d="M 677.505364 320.4 
L 683.806889 320.4 
L 683.806889 127.6766 
L 677.505364 127.6766 
z
" style="fill:#ff7f0e;"/>
   </g>
   <g id="patch_42">
    <path clip-path="url(#pb053b6c26e)" d="M 494.761152 320.4 
L 501.062676 320.4 
L 501.062676 274.907209 
L 494.761152 274.907209 
z
" style="fill:#2ca02c;"/>
   </g>
   <g id="patch_43">
    <path clip-path="url(#pb053b6c26e)" d="M 557.776398 320.4 
L 564.077922 320.4 
L 564.077922 225.218019 
L 557.776398 225.218019 
z
" style="fill:#2ca02c;"/>
   </g>
   <g id="patch_44">
    <path clip-path="url(#pb053b6c26e)" d="M 620.791643 320.4 
L 627.093168 320.4 
L 627.093168 108.602054 
L 620.791643 108.602054 
z
" style="fill:#2ca02c;"/>
   </g>
   <g id="patch_45">
    <path clip-path="url(#pb053b6c26e)" d="M 683.806889 320.4 
L 690.108413 320.4 
L 690.108413 56.4 
L 683.806889 56.4 
z
" style="fill:#2ca02c;"/>
   </g>
   <g id="patch_46">
    <path clip-path="url(#pb053b6c26e)" d="M 501.062676 320.4 
L 507.364201 320.4 
L 507.364201 274.028122 
L 501.062676 274.028122 
z
" style="fill:#d62728;"/>
   </g>
   <g id="patch_47">
    <path clip-path="url(#pb053b6c26e)" d="M 564.077922 320.4 
L 570.379447 320.4 
L 570.379447 265.801187 
L 564.077922 265.801187 
z
" style="fill:#d62728;"/>
   </g>
   <g id="patch_48">
    <path clip-path="url(#pb053b6c26e)" d="M 627.093168 320.4 
L 633.394692 320.4 
L 633.394692 243.960833 
L 627.093168 243.960833 
z
" style="fill:#d62728;"/>
   </g>
   <g id="patch_49">
    <path clip-path="url(#pb053b6c26e)" d="M 690.108413 320.4 
L 696.409938 320.4 
L 696.409938 194.18871 
L 690.108413 194.18871 
z
" style="fill:#d62728;"/>
   </g>
   <g id="patch_50">
    <path clip-path="url(#pb053b6c26e)" d="M 507.364201 320.4 
L 513.665726 320.4 
L 513.665726 276.706851 
L 507.364201 276.706851 
z
" style="fill:#9467bd;"/>
   </g>
   <g id="patch_51">
    <path clip-path="url(#pb053b6c26e)" d="M 570.379447 320.4 
L 576.680971 320.4 
L 576.680971 274.011535 
L 570.379447 274.011535 
z
" style="fill:#9467bd;"/>
   </g>
   <g id="patch_52">
    <path clip-path="url(#pb053b6c26e)" d="M 633.394692 320.4 
L 639.696217 320.4 
L 639.696217 252.063368 
L 633.394692 252.063368 
z
" style="fill:#9467bd;"/>
   </g>
   <g id="patch_53">
    <path clip-path="url(#pb053b6c26e)" d="M 696.409938 320.4 
L 702.711462 320.4 
L 702.711462 221.826067 
L 696.409938 221.826067 
z
" style="fill:#9467bd;"/>
   </g>
   <g id="matplotlib.axis_3">
    <g id="xtick_5">
     <g id="line2d_11">
      <g>
       <use style="stroke:#000000;stroke-width:0.8;" x="497.911914" xlink:href="#m17d1f7747d" y="320.4"/>
      </g>
     </g>
     <g id="text_17">
      <!-- Free -->
      <g transform="translate(487.302539 334.998438)scale(0.1 -0.1)">
       <use xlink:href="#DejaVuSans-70"/>
       <use x="50.269531" xlink:href="#DejaVuSans-114"/>
       <use x="89.132812" xlink:href="#DejaVuSans-101"/>
       <use x="150.65625" xlink:href="#DejaVuSans-101"/>
      </g>
     </g>
    </g>
    <g id="xtick_6">
     <g id="line2d_12">
      <g>
       <use style="stroke:#000000;stroke-width:0.8;" x="560.92716" xlink:href="#m17d1f7747d" y="320.4"/>
      </g>
     </g>
     <g id="text_18">
      <!-- Decongested -->
      <g transform="translate(527.956847 334.998438)scale(0.1 -0.1)">
       <use xlink:href="#DejaVuSans-68"/>
       <use x="77.001953" xlink:href="#DejaVuSans-101"/>
       <use x="138.525391" xlink:href="#DejaVuSans-99"/>
       <use x="193.505859" xlink:href="#DejaVuSans-111"/>
       <use x="254.6875" xlink:href="#DejaVuSans-110"/>
       <use x="318.066406" xlink:href="#DejaVuSans-103"/>
       <use x="381.542969" xlink:href="#DejaVuSans-101"/>
       <use x="443.066406" xlink:href="#DejaVuSans-115"/>
       <use x="495.166016" xlink:href="#DejaVuSans-116"/>
       <use x="534.375" xlink:href="#DejaVuSans-101"/>
       <use x="595.898438" xlink:href="#DejaVuSans-100"/>
      </g>
     </g>
    </g>
    <g id="xtick_7">
     <g id="line2d_13">
      <g>
       <use style="stroke:#000000;stroke-width:0.8;" x="623.942405" xlink:href="#m17d1f7747d" y="320.4"/>
      </g>
     </g>
     <g id="text_19">
      <!-- Traffic -->
      <g transform="translate(608.847874 334.998438)scale(0.1 -0.1)">
       <use xlink:href="#DejaVuSans-84"/>
       <use x="46.333984" xlink:href="#DejaVuSans-114"/>
       <use x="87.447266" xlink:href="#DejaVuSans-97"/>
       <use x="148.726562" xlink:href="#DejaVuSans-102"/>
       <use x="183.931641" xlink:href="#DejaVuSans-102"/>
       <use x="219.136719" xlink:href="#DejaVuSans-105"/>
       <use x="246.919922" xlink:href="#DejaVuSans-99"/>
      </g>
     </g>
    </g>
    <g id="xtick_8">
     <g id="line2d_14">
      <g>
       <use style="stroke:#000000;stroke-width:0.8;" x="686.957651" xlink:href="#m17d1f7747d" y="320.4"/>
      </g>
     </g>
     <g id="text_20">
      <!-- Congested -->
      <g transform="translate(660.171714 334.998438)scale(0.1 -0.1)">
       <use xlink:href="#DejaVuSans-67"/>
       <use x="69.824219" xlink:href="#DejaVuSans-111"/>
       <use x="131.005859" xlink:href="#DejaVuSans-110"/>
       <use x="194.384766" xlink:href="#DejaVuSans-103"/>
       <use x="257.861328" xlink:href="#DejaVuSans-101"/>
       <use x="319.384766" xlink:href="#DejaVuSans-115"/>
       <use x="371.484375" xlink:href="#DejaVuSans-116"/>
       <use x="410.693359" xlink:href="#DejaVuSans-101"/>
       <use x="472.216797" xlink:href="#DejaVuSans-100"/>
      </g>
     </g>
    </g>
   </g>
   <g id="matplotlib.axis_4">
    <g id="ytick_7">
     <g id="line2d_15">
      <g>
       <use style="stroke:#000000;stroke-width:0.8;" x="471.130435" xlink:href="#m49f2a08d86" y="320.4"/>
      </g>
     </g>
     <g id="text_21">
      <!-- 0 -->
      <g transform="translate(457.767935 324.199219)scale(0.1 -0.1)">
       <use xlink:href="#DejaVuSans-48"/>
      </g>
     </g>
    </g>
    <g id="ytick_8">
     <g id="line2d_16">
      <g>
       <use style="stroke:#000000;stroke-width:0.8;" x="471.130435" xlink:href="#m49f2a08d86" y="278.933597"/>
      </g>
     </g>
     <g id="text_22">
      <!-- 100 -->
      <g transform="translate(445.042935 282.732816)scale(0.1 -0.1)">
       <use xlink:href="#DejaVuSans-49"/>
       <use x="63.623047" xlink:href="#DejaVuSans-48"/>
       <use x="127.246094" xlink:href="#DejaVuSans-48"/>
      </g>
     </g>
    </g>
    <g id="ytick_9">
     <g id="line2d_17">
      <g>
       <use style="stroke:#000000;stroke-width:0.8;" x="471.130435" xlink:href="#m49f2a08d86" y="237.467194"/>
      </g>
     </g>
     <g id="text_23">
      <!-- 200 -->
      <g transform="translate(445.042935 241.266413)scale(0.1 -0.1)">
       <use xlink:href="#DejaVuSans-50"/>
       <use x="63.623047" xlink:href="#DejaVuSans-48"/>
       <use x="127.246094" xlink:href="#DejaVuSans-48"/>
      </g>
     </g>
    </g>
    <g id="ytick_10">
     <g id="line2d_18">
      <g>
       <use style="stroke:#000000;stroke-width:0.8;" x="471.130435" xlink:href="#m49f2a08d86" y="196.000792"/>
      </g>
     </g>
     <g id="text_24">
      <!-- 300 -->
      <g transform="translate(445.042935 199.80001)scale(0.1 -0.1)">
       <use xlink:href="#DejaVuSans-51"/>
       <use x="63.623047" xlink:href="#DejaVuSans-48"/>
       <use x="127.246094" xlink:href="#DejaVuSans-48"/>
      </g>
     </g>
    </g>
    <g id="ytick_11">
     <g id="line2d_19">
      <g>
       <use style="stroke:#000000;stroke-width:0.8;" x="471.130435" xlink:href="#m49f2a08d86" y="154.534389"/>
      </g>
     </g>
     <g id="text_25">
      <!-- 400 -->
      <g transform="translate(445.042935 158.333608)scale(0.1 -0.1)">
       <use xlink:href="#DejaVuSans-52"/>
       <use x="63.623047" xlink:href="#DejaVuSans-48"/>
       <use x="127.246094" xlink:href="#DejaVuSans-48"/>
      </g>
     </g>
    </g>
    <g id="ytick_12">
     <g id="line2d_20">
      <g>
       <use style="stroke:#000000;stroke-width:0.8;" x="471.130435" xlink:href="#m49f2a08d86" y="113.067986"/>
      </g>
     </g>
     <g id="text_26">
      <!-- 500 -->
      <g transform="translate(445.042935 116.867205)scale(0.1 -0.1)">
       <use xlink:href="#DejaVuSans-53"/>
       <use x="63.623047" xlink:href="#DejaVuSans-48"/>
       <use x="127.246094" xlink:href="#DejaVuSans-48"/>
      </g>
     </g>
    </g>
    <g id="ytick_13">
     <g id="line2d_21">
      <g>
       <use style="stroke:#000000;stroke-width:0.8;" x="471.130435" xlink:href="#m49f2a08d86" y="71.601583"/>
      </g>
     </g>
     <g id="text_27">
      <!-- 600 -->
      <defs>
       <path d="M 33.015625 40.375 
Q 26.375 40.375 22.484375 35.828125 
Q 18.609375 31.296875 18.609375 23.390625 
Q 18.609375 15.53125 22.484375 10.953125 
Q 26.375 6.390625 33.015625 6.390625 
Q 39.65625 6.390625 43.53125 10.953125 
Q 47.40625 15.53125 47.40625 23.390625 
Q 47.40625 31.296875 43.53125 35.828125 
Q 39.65625 40.375 33.015625 40.375 
z
M 52.59375 71.296875 
L 52.59375 62.3125 
Q 48.875 64.0625 45.09375 64.984375 
Q 41.3125 65.921875 37.59375 65.921875 
Q 27.828125 65.921875 22.671875 59.328125 
Q 17.53125 52.734375 16.796875 39.40625 
Q 19.671875 43.65625 24.015625 45.921875 
Q 28.375 48.1875 33.59375 48.1875 
Q 44.578125 48.1875 50.953125 41.515625 
Q 57.328125 34.859375 57.328125 23.390625 
Q 57.328125 12.15625 50.6875 5.359375 
Q 44.046875 -1.421875 33.015625 -1.421875 
Q 20.359375 -1.421875 13.671875 8.265625 
Q 6.984375 17.96875 6.984375 36.375 
Q 6.984375 53.65625 15.1875 63.9375 
Q 23.390625 74.21875 37.203125 74.21875 
Q 40.921875 74.21875 44.703125 73.484375 
Q 48.484375 72.75 52.59375 71.296875 
z
" id="DejaVuSans-54"/>
      </defs>
      <g transform="translate(445.042935 75.400802)scale(0.1 -0.1)">
       <use xlink:href="#DejaVuSans-54"/>
       <use x="63.623047" xlink:href="#DejaVuSans-48"/>
       <use x="127.246094" xlink:href="#DejaVuSans-48"/>
      </g>
     </g>
    </g>
    <g id="text_28">
     <!-- Avg. Trip Duration -->
     <defs>
      <path d="M 8.5 21.578125 
L 8.5 54.6875 
L 17.484375 54.6875 
L 17.484375 21.921875 
Q 17.484375 14.15625 20.5 10.265625 
Q 23.53125 6.390625 29.59375 6.390625 
Q 36.859375 6.390625 41.078125 11.03125 
Q 45.3125 15.671875 45.3125 23.6875 
L 45.3125 54.6875 
L 54.296875 54.6875 
L 54.296875 0 
L 45.3125 0 
L 45.3125 8.40625 
Q 42.046875 3.421875 37.71875 1 
Q 33.40625 -1.421875 27.6875 -1.421875 
Q 18.265625 -1.421875 13.375 4.4375 
Q 8.5 10.296875 8.5 21.578125 
z
M 31.109375 56 
z
" id="DejaVuSans-117"/>
     </defs>
     <g transform="translate(438.963247 226.478125)rotate(-90)scale(0.1 -0.1)">
      <use xlink:href="#DejaVuSans-65"/>
      <use x="62.533203" xlink:href="#DejaVuSans-118"/>
      <use x="121.712891" xlink:href="#DejaVuSans-103"/>
      <use x="185.189453" xlink:href="#DejaVuSans-46"/>
      <use x="216.976562" xlink:href="#DejaVuSans-32"/>
      <use x="248.763672" xlink:href="#DejaVuSans-84"/>
      <use x="295.097656" xlink:href="#DejaVuSans-114"/>
      <use x="336.210938" xlink:href="#DejaVuSans-105"/>
      <use x="363.994141" xlink:href="#DejaVuSans-112"/>
      <use x="427.470703" xlink:href="#DejaVuSans-32"/>
      <use x="459.257812" xlink:href="#DejaVuSans-68"/>
      <use x="536.259766" xlink:href="#DejaVuSans-117"/>
      <use x="599.638672" xlink:href="#DejaVuSans-114"/>
      <use x="640.751953" xlink:href="#DejaVuSans-97"/>
      <use x="702.03125" xlink:href="#DejaVuSans-116"/>
      <use x="741.240234" xlink:href="#DejaVuSans-105"/>
      <use x="769.023438" xlink:href="#DejaVuSans-111"/>
      <use x="830.205078" xlink:href="#DejaVuSans-110"/>
     </g>
    </g>
   </g>
   <g id="patch_54">
    <path d="M 471.130435 320.4 
L 471.130435 43.2 
" style="fill:none;stroke:#000000;stroke-linecap:square;stroke-linejoin:miter;stroke-width:0.8;"/>
   </g>
   <g id="patch_55">
    <path d="M 713.73913 320.4 
L 713.73913 43.2 
" style="fill:none;stroke:#000000;stroke-linecap:square;stroke-linejoin:miter;stroke-width:0.8;"/>
   </g>
   <g id="patch_56">
    <path d="M 471.130435 320.4 
L 713.73913 320.4 
" style="fill:none;stroke:#000000;stroke-linecap:square;stroke-linejoin:miter;stroke-width:0.8;"/>
   </g>
   <g id="patch_57">
    <path d="M 471.130435 43.2 
L 713.73913 43.2 
" style="fill:none;stroke:#000000;stroke-linecap:square;stroke-linejoin:miter;stroke-width:0.8;"/>
   </g>
   <g id="legend_2">
    <g id="patch_58">
     <path d="M 478.130435 124.590625 
L 588.550747 124.590625 
Q 590.550747 124.590625 590.550747 122.590625 
L 590.550747 50.2 
Q 590.550747 48.2 588.550747 48.2 
L 478.130435 48.2 
Q 476.130435 48.2 476.130435 50.2 
L 476.130435 122.590625 
Q 476.130435 124.590625 478.130435 124.590625 
z
" style="fill:#ffffff;opacity:0.8;stroke:#cccccc;stroke-linejoin:miter;"/>
    </g>
    <g id="patch_59">
     <path d="M 480.130435 59.798437 
L 500.130435 59.798437 
L 500.130435 52.798437 
L 480.130435 52.798437 
z
" style="fill:#1f77b4;"/>
    </g>
    <g id="text_29">
     <!-- Timed -->
     <g transform="translate(508.130435 59.798437)scale(0.1 -0.1)">
      <use xlink:href="#DejaVuSans-84"/>
      <use x="57.958984" xlink:href="#DejaVuSans-105"/>
      <use x="85.742188" xlink:href="#DejaVuSans-109"/>
      <use x="183.154297" xlink:href="#DejaVuSans-101"/>
      <use x="244.677734" xlink:href="#DejaVuSans-100"/>
     </g>
    </g>
    <g id="patch_60">
     <path d="M 480.130435 74.476562 
L 500.130435 74.476562 
L 500.130435 67.476562 
L 480.130435 67.476562 
z
" style="fill:#ff7f0e;"/>
    </g>
    <g id="text_30">
     <!-- Webster -->
     <g transform="translate(508.130435 74.476562)scale(0.1 -0.1)">
      <use xlink:href="#DejaVuSans-87"/>
      <use x="93.001953" xlink:href="#DejaVuSans-101"/>
      <use x="154.525391" xlink:href="#DejaVuSans-98"/>
      <use x="218.001953" xlink:href="#DejaVuSans-115"/>
      <use x="270.101562" xlink:href="#DejaVuSans-116"/>
      <use x="309.310547" xlink:href="#DejaVuSans-101"/>
      <use x="370.833984" xlink:href="#DejaVuSans-114"/>
     </g>
    </g>
    <g id="patch_61">
     <path d="M 480.130435 89.154687 
L 500.130435 89.154687 
L 500.130435 82.154687 
L 480.130435 82.154687 
z
" style="fill:#2ca02c;"/>
    </g>
    <g id="text_31">
     <!-- Coordinated -->
     <g transform="translate(508.130435 89.154687)scale(0.1 -0.1)">
      <use xlink:href="#DejaVuSans-67"/>
      <use x="69.824219" xlink:href="#DejaVuSans-111"/>
      <use x="131.005859" xlink:href="#DejaVuSans-111"/>
      <use x="192.1875" xlink:href="#DejaVuSans-114"/>
      <use x="231.550781" xlink:href="#DejaVuSans-100"/>
      <use x="295.027344" xlink:href="#DejaVuSans-105"/>
      <use x="322.810547" xlink:href="#DejaVuSans-110"/>
      <use x="386.189453" xlink:href="#DejaVuSans-97"/>
      <use x="447.46875" xlink:href="#DejaVuSans-116"/>
      <use x="486.677734" xlink:href="#DejaVuSans-101"/>
      <use x="548.201172" xlink:href="#DejaVuSans-100"/>
     </g>
    </g>
    <g id="patch_62">
     <path d="M 480.130435 103.832812 
L 500.130435 103.832812 
L 500.130435 96.832812 
L 480.130435 96.832812 
z
" style="fill:#d62728;"/>
    </g>
    <g id="text_32">
     <!-- Collaborative P -->
     <g transform="translate(508.130435 103.832812)scale(0.1 -0.1)">
      <use xlink:href="#DejaVuSans-67"/>
      <use x="69.824219" xlink:href="#DejaVuSans-111"/>
      <use x="131.005859" xlink:href="#DejaVuSans-108"/>
      <use x="158.789062" xlink:href="#DejaVuSans-108"/>
      <use x="186.572266" xlink:href="#DejaVuSans-97"/>
      <use x="247.851562" xlink:href="#DejaVuSans-98"/>
      <use x="311.328125" xlink:href="#DejaVuSans-111"/>
      <use x="372.509766" xlink:href="#DejaVuSans-114"/>
      <use x="413.623047" xlink:href="#DejaVuSans-97"/>
      <use x="474.902344" xlink:href="#DejaVuSans-116"/>
      <use x="514.111328" xlink:href="#DejaVuSans-105"/>
      <use x="541.894531" xlink:href="#DejaVuSans-118"/>
      <use x="601.074219" xlink:href="#DejaVuSans-101"/>
      <use x="662.597656" xlink:href="#DejaVuSans-32"/>
      <use x="694.384766" xlink:href="#DejaVuSans-80"/>
     </g>
    </g>
    <g id="patch_63">
     <path d="M 480.130435 118.510937 
L 500.130435 118.510937 
L 500.130435 111.510937 
L 480.130435 111.510937 
z
" style="fill:#9467bd;"/>
    </g>
    <g id="text_33">
     <!-- Collaborative PI -->
     <g transform="translate(508.130435 118.510937)scale(0.1 -0.1)">
      <use xlink:href="#DejaVuSans-67"/>
      <use x="69.824219" xlink:href="#DejaVuSans-111"/>
      <use x="131.005859" xlink:href="#DejaVuSans-108"/>
      <use x="158.789062" xlink:href="#DejaVuSans-108"/>
      <use x="186.572266" xlink:href="#DejaVuSans-97"/>
      <use x="247.851562" xlink:href="#DejaVuSans-98"/>
      <use x="311.328125" xlink:href="#DejaVuSans-111"/>
      <use x="372.509766" xlink:href="#DejaVuSans-114"/>
      <use x="413.623047" xlink:href="#DejaVuSans-97"/>
      <use x="474.902344" xlink:href="#DejaVuSans-116"/>
      <use x="514.111328" xlink:href="#DejaVuSans-105"/>
      <use x="541.894531" xlink:href="#DejaVuSans-118"/>
      <use x="601.074219" xlink:href="#DejaVuSans-101"/>
      <use x="662.597656" xlink:href="#DejaVuSans-32"/>
      <use x="694.384766" xlink:href="#DejaVuSans-80"/>
      <use x="754.6875" xlink:href="#DejaVuSans-73"/>
     </g>
    </g>
   </g>
  </g>
  <g id="axes_3">
   <g id="patch_64">
    <path d="M 762.26087 320.4 
L 1004.869565 320.4 
L 1004.869565 43.2 
L 762.26087 43.2 
z
" style="fill:#ffffff;"/>
   </g>
   <g id="patch_65">
    <path clip-path="url(#p6ad537f779)" d="M 773.288538 320.4 
L 779.590062 320.4 
L 779.590062 300.772786 
L 773.288538 300.772786 
z
" style="fill:#1f77b4;"/>
   </g>
   <g id="patch_66">
    <path clip-path="url(#p6ad537f779)" d="M 836.303783 320.4 
L 842.605308 320.4 
L 842.605308 255.795233 
L 836.303783 255.795233 
z
" style="fill:#1f77b4;"/>
   </g>
   <g id="patch_67">
    <path clip-path="url(#p6ad537f779)" d="M 899.319029 320.4 
L 905.620553 320.4 
L 905.620553 148.371147 
L 899.319029 148.371147 
z
" style="fill:#1f77b4;"/>
   </g>
   <g id="patch_68">
    <path clip-path="url(#p6ad537f779)" d="M 962.334274 320.4 
L 968.635799 320.4 
L 968.635799 80.617901 
L 962.334274 80.617901 
z
" style="fill:#1f77b4;"/>
   </g>
   <g id="patch_69">
    <path clip-path="url(#p6ad537f779)" d="M 779.590062 320.4 
L 785.891587 320.4 
L 785.891587 303.57087 
L 779.590062 303.57087 
z
" style="fill:#ff7f0e;"/>
   </g>
   <g id="patch_70">
    <path clip-path="url(#p6ad537f779)" d="M 842.605308 320.4 
L 848.906832 320.4 
L 848.906832 269.577448 
L 842.605308 269.577448 
z
" style="fill:#ff7f0e;"/>
   </g>
   <g id="patch_71">
    <path clip-path="url(#p6ad537f779)" d="M 905.620553 320.4 
L 911.922078 320.4 
L 911.922078 197.086248 
L 905.620553 197.086248 
z
" style="fill:#ff7f0e;"/>
   </g>
   <g id="patch_72">
    <path clip-path="url(#p6ad537f779)" d="M 968.635799 320.4 
L 974.937324 320.4 
L 974.937324 142.754666 
L 968.635799 142.754666 
z
" style="fill:#ff7f0e;"/>
   </g>
   <g id="patch_73">
    <path clip-path="url(#p6ad537f779)" d="M 785.891587 320.4 
L 792.193111 320.4 
L 792.193111 303.459149 
L 785.891587 303.459149 
z
" style="fill:#2ca02c;"/>
   </g>
   <g id="patch_74">
    <path clip-path="url(#p6ad537f779)" d="M 848.906832 320.4 
L 855.208357 320.4 
L 855.208357 249.264678 
L 848.906832 249.264678 
z
" style="fill:#2ca02c;"/>
   </g>
   <g id="patch_75">
    <path clip-path="url(#p6ad537f779)" d="M 911.922078 320.4 
L 918.223602 320.4 
L 918.223602 116.708616 
L 911.922078 116.708616 
z
" style="fill:#2ca02c;"/>
   </g>
   <g id="patch_76">
    <path clip-path="url(#p6ad537f779)" d="M 974.937324 320.4 
L 981.238848 320.4 
L 981.238848 56.4 
L 974.937324 56.4 
z
" style="fill:#2ca02c;"/>
   </g>
   <g id="patch_77">
    <path clip-path="url(#p6ad537f779)" d="M 792.193111 320.4 
L 798.494636 320.4 
L 798.494636 304.119314 
L 792.193111 304.119314 
z
" style="fill:#d62728;"/>
   </g>
   <g id="patch_78">
    <path clip-path="url(#p6ad537f779)" d="M 855.208357 320.4 
L 861.509881 320.4 
L 861.509881 295.989128 
L 855.208357 295.989128 
z
" style="fill:#d62728;"/>
   </g>
   <g id="patch_79">
    <path clip-path="url(#p6ad537f779)" d="M 918.223602 320.4 
L 924.525127 320.4 
L 924.525127 275.427526 
L 918.223602 275.427526 
z
" style="fill:#d62728;"/>
   </g>
   <g id="patch_80">
    <path clip-path="url(#p6ad537f779)" d="M 981.238848 320.4 
L 987.540373 320.4 
L 987.540373 219.633424 
L 981.238848 219.633424 
z
" style="fill:#d62728;"/>
   </g>
   <g id="patch_81">
    <path clip-path="url(#p6ad537f779)" d="M 798.494636 320.4 
L 804.79616 320.4 
L 804.79616 306.831069 
L 798.494636 306.831069 
z
" style="fill:#9467bd;"/>
   </g>
   <g id="patch_82">
    <path clip-path="url(#p6ad537f779)" d="M 861.509881 320.4 
L 867.811406 320.4 
L 867.811406 303.57087 
L 861.509881 303.57087 
z
" style="fill:#9467bd;"/>
   </g>
   <g id="patch_83">
    <path clip-path="url(#p6ad537f779)" d="M 924.525127 320.4 
L 930.826652 320.4 
L 930.826652 282.841687 
L 924.525127 282.841687 
z
" style="fill:#9467bd;"/>
   </g>
   <g id="patch_84">
    <path clip-path="url(#p6ad537f779)" d="M 987.540373 320.4 
L 993.841897 320.4 
L 993.841897 249.940077 
L 987.540373 249.940077 
z
" style="fill:#9467bd;"/>
   </g>
   <g id="matplotlib.axis_5">
    <g id="xtick_9">
     <g id="line2d_22">
      <g>
       <use style="stroke:#000000;stroke-width:0.8;" x="789.042349" xlink:href="#m17d1f7747d" y="320.4"/>
      </g>
     </g>
     <g id="text_34">
      <!-- Free -->
      <g transform="translate(778.432974 334.998438)scale(0.1 -0.1)">
       <use xlink:href="#DejaVuSans-70"/>
       <use x="50.269531" xlink:href="#DejaVuSans-114"/>
       <use x="89.132812" xlink:href="#DejaVuSans-101"/>
       <use x="150.65625" xlink:href="#DejaVuSans-101"/>
      </g>
     </g>
    </g>
    <g id="xtick_10">
     <g id="line2d_23">
      <g>
       <use style="stroke:#000000;stroke-width:0.8;" x="852.057595" xlink:href="#m17d1f7747d" y="320.4"/>
      </g>
     </g>
     <g id="text_35">
      <!-- Decongested -->
      <g transform="translate(819.087282 334.998438)scale(0.1 -0.1)">
       <use xlink:href="#DejaVuSans-68"/>
       <use x="77.001953" xlink:href="#DejaVuSans-101"/>
       <use x="138.525391" xlink:href="#DejaVuSans-99"/>
       <use x="193.505859" xlink:href="#DejaVuSans-111"/>
       <use x="254.6875" xlink:href="#DejaVuSans-110"/>
       <use x="318.066406" xlink:href="#DejaVuSans-103"/>
       <use x="381.542969" xlink:href="#DejaVuSans-101"/>
       <use x="443.066406" xlink:href="#DejaVuSans-115"/>
       <use x="495.166016" xlink:href="#DejaVuSans-116"/>
       <use x="534.375" xlink:href="#DejaVuSans-101"/>
       <use x="595.898438" xlink:href="#DejaVuSans-100"/>
      </g>
     </g>
    </g>
    <g id="xtick_11">
     <g id="line2d_24">
      <g>
       <use style="stroke:#000000;stroke-width:0.8;" x="915.07284" xlink:href="#m17d1f7747d" y="320.4"/>
      </g>
     </g>
     <g id="text_36">
      <!-- Traffic -->
      <g transform="translate(899.978309 334.998438)scale(0.1 -0.1)">
       <use xlink:href="#DejaVuSans-84"/>
       <use x="46.333984" xlink:href="#DejaVuSans-114"/>
       <use x="87.447266" xlink:href="#DejaVuSans-97"/>
       <use x="148.726562" xlink:href="#DejaVuSans-102"/>
       <use x="183.931641" xlink:href="#DejaVuSans-102"/>
       <use x="219.136719" xlink:href="#DejaVuSans-105"/>
       <use x="246.919922" xlink:href="#DejaVuSans-99"/>
      </g>
     </g>
    </g>
    <g id="xtick_12">
     <g id="line2d_25">
      <g>
       <use style="stroke:#000000;stroke-width:0.8;" x="978.088086" xlink:href="#m17d1f7747d" y="320.4"/>
      </g>
     </g>
     <g id="text_37">
      <!-- Congested -->
      <g transform="translate(951.302148 334.998438)scale(0.1 -0.1)">
       <use xlink:href="#DejaVuSans-67"/>
       <use x="69.824219" xlink:href="#DejaVuSans-111"/>
       <use x="131.005859" xlink:href="#DejaVuSans-110"/>
       <use x="194.384766" xlink:href="#DejaVuSans-103"/>
       <use x="257.861328" xlink:href="#DejaVuSans-101"/>
       <use x="319.384766" xlink:href="#DejaVuSans-115"/>
       <use x="371.484375" xlink:href="#DejaVuSans-116"/>
       <use x="410.693359" xlink:href="#DejaVuSans-101"/>
       <use x="472.216797" xlink:href="#DejaVuSans-100"/>
      </g>
     </g>
    </g>
   </g>
   <g id="matplotlib.axis_6">
    <g id="ytick_14">
     <g id="line2d_26">
      <g>
       <use style="stroke:#000000;stroke-width:0.8;" x="762.26087" xlink:href="#m49f2a08d86" y="320.4"/>
      </g>
     </g>
     <g id="text_38">
      <!-- 0 -->
      <g transform="translate(748.89837 324.199219)scale(0.1 -0.1)">
       <use xlink:href="#DejaVuSans-48"/>
      </g>
     </g>
    </g>
    <g id="ytick_15">
     <g id="line2d_27">
      <g>
       <use style="stroke:#000000;stroke-width:0.8;" x="762.26087" xlink:href="#m49f2a08d86" y="269.618074"/>
      </g>
     </g>
     <g id="text_39">
      <!-- 100 -->
      <g transform="translate(736.17337 273.417292)scale(0.1 -0.1)">
       <use xlink:href="#DejaVuSans-49"/>
       <use x="63.623047" xlink:href="#DejaVuSans-48"/>
       <use x="127.246094" xlink:href="#DejaVuSans-48"/>
      </g>
     </g>
    </g>
    <g id="ytick_16">
     <g id="line2d_28">
      <g>
       <use style="stroke:#000000;stroke-width:0.8;" x="762.26087" xlink:href="#m49f2a08d86" y="218.836147"/>
      </g>
     </g>
     <g id="text_40">
      <!-- 200 -->
      <g transform="translate(736.17337 222.635366)scale(0.1 -0.1)">
       <use xlink:href="#DejaVuSans-50"/>
       <use x="63.623047" xlink:href="#DejaVuSans-48"/>
       <use x="127.246094" xlink:href="#DejaVuSans-48"/>
      </g>
     </g>
    </g>
    <g id="ytick_17">
     <g id="line2d_29">
      <g>
       <use style="stroke:#000000;stroke-width:0.8;" x="762.26087" xlink:href="#m49f2a08d86" y="168.054221"/>
      </g>
     </g>
     <g id="text_41">
      <!-- 300 -->
      <g transform="translate(736.17337 171.85344)scale(0.1 -0.1)">
       <use xlink:href="#DejaVuSans-51"/>
       <use x="63.623047" xlink:href="#DejaVuSans-48"/>
       <use x="127.246094" xlink:href="#DejaVuSans-48"/>
      </g>
     </g>
    </g>
    <g id="ytick_18">
     <g id="line2d_30">
      <g>
       <use style="stroke:#000000;stroke-width:0.8;" x="762.26087" xlink:href="#m49f2a08d86" y="117.272295"/>
      </g>
     </g>
     <g id="text_42">
      <!-- 400 -->
      <g transform="translate(736.17337 121.071514)scale(0.1 -0.1)">
       <use xlink:href="#DejaVuSans-52"/>
       <use x="63.623047" xlink:href="#DejaVuSans-48"/>
       <use x="127.246094" xlink:href="#DejaVuSans-48"/>
      </g>
     </g>
    </g>
    <g id="ytick_19">
     <g id="line2d_31">
      <g>
       <use style="stroke:#000000;stroke-width:0.8;" x="762.26087" xlink:href="#m49f2a08d86" y="66.490369"/>
      </g>
     </g>
     <g id="text_43">
      <!-- 500 -->
      <g transform="translate(736.17337 70.289587)scale(0.1 -0.1)">
       <use xlink:href="#DejaVuSans-53"/>
       <use x="63.623047" xlink:href="#DejaVuSans-48"/>
       <use x="127.246094" xlink:href="#DejaVuSans-48"/>
      </g>
     </g>
    </g>
    <g id="text_44">
     <!-- Avg. Waiting Time -->
     <g transform="translate(730.093682 226.83125)rotate(-90)scale(0.1 -0.1)">
      <use xlink:href="#DejaVuSans-65"/>
      <use x="62.533203" xlink:href="#DejaVuSans-118"/>
      <use x="121.712891" xlink:href="#DejaVuSans-103"/>
      <use x="185.189453" xlink:href="#DejaVuSans-46"/>
      <use x="216.976562" xlink:href="#DejaVuSans-32"/>
      <use x="248.763672" xlink:href="#DejaVuSans-87"/>
      <use x="341.265625" xlink:href="#DejaVuSans-97"/>
      <use x="402.544922" xlink:href="#DejaVuSans-105"/>
      <use x="430.328125" xlink:href="#DejaVuSans-116"/>
      <use x="469.537109" xlink:href="#DejaVuSans-105"/>
      <use x="497.320312" xlink:href="#DejaVuSans-110"/>
      <use x="560.699219" xlink:href="#DejaVuSans-103"/>
      <use x="624.175781" xlink:href="#DejaVuSans-32"/>
      <use x="655.962891" xlink:href="#DejaVuSans-84"/>
      <use x="713.921875" xlink:href="#DejaVuSans-105"/>
      <use x="741.705078" xlink:href="#DejaVuSans-109"/>
      <use x="839.117188" xlink:href="#DejaVuSans-101"/>
     </g>
    </g>
   </g>
   <g id="patch_85">
    <path d="M 762.26087 320.4 
L 762.26087 43.2 
" style="fill:none;stroke:#000000;stroke-linecap:square;stroke-linejoin:miter;stroke-width:0.8;"/>
   </g>
   <g id="patch_86">
    <path d="M 1004.869565 320.4 
L 1004.869565 43.2 
" style="fill:none;stroke:#000000;stroke-linecap:square;stroke-linejoin:miter;stroke-width:0.8;"/>
   </g>
   <g id="patch_87">
    <path d="M 762.26087 320.4 
L 1004.869565 320.4 
" style="fill:none;stroke:#000000;stroke-linecap:square;stroke-linejoin:miter;stroke-width:0.8;"/>
   </g>
   <g id="patch_88">
    <path d="M 762.26087 43.2 
L 1004.869565 43.2 
" style="fill:none;stroke:#000000;stroke-linecap:square;stroke-linejoin:miter;stroke-width:0.8;"/>
   </g>
   <g id="legend_3">
    <g id="patch_89">
     <path d="M 769.26087 124.590625 
L 879.681182 124.590625 
Q 881.681182 124.590625 881.681182 122.590625 
L 881.681182 50.2 
Q 881.681182 48.2 879.681182 48.2 
L 769.26087 48.2 
Q 767.26087 48.2 767.26087 50.2 
L 767.26087 122.590625 
Q 767.26087 124.590625 769.26087 124.590625 
z
" style="fill:#ffffff;opacity:0.8;stroke:#cccccc;stroke-linejoin:miter;"/>
    </g>
    <g id="patch_90">
     <path d="M 771.26087 59.798437 
L 791.26087 59.798437 
L 791.26087 52.798437 
L 771.26087 52.798437 
z
" style="fill:#1f77b4;"/>
    </g>
    <g id="text_45">
     <!-- Timed -->
     <g transform="translate(799.26087 59.798437)scale(0.1 -0.1)">
      <use xlink:href="#DejaVuSans-84"/>
      <use x="57.958984" xlink:href="#DejaVuSans-105"/>
      <use x="85.742188" xlink:href="#DejaVuSans-109"/>
      <use x="183.154297" xlink:href="#DejaVuSans-101"/>
      <use x="244.677734" xlink:href="#DejaVuSans-100"/>
     </g>
    </g>
    <g id="patch_91">
     <path d="M 771.26087 74.476562 
L 791.26087 74.476562 
L 791.26087 67.476562 
L 771.26087 67.476562 
z
" style="fill:#ff7f0e;"/>
    </g>
    <g id="text_46">
     <!-- Webster -->
     <g transform="translate(799.26087 74.476562)scale(0.1 -0.1)">
      <use xlink:href="#DejaVuSans-87"/>
      <use x="93.001953" xlink:href="#DejaVuSans-101"/>
      <use x="154.525391" xlink:href="#DejaVuSans-98"/>
      <use x="218.001953" xlink:href="#DejaVuSans-115"/>
      <use x="270.101562" xlink:href="#DejaVuSans-116"/>
      <use x="309.310547" xlink:href="#DejaVuSans-101"/>
      <use x="370.833984" xlink:href="#DejaVuSans-114"/>
     </g>
    </g>
    <g id="patch_92">
     <path d="M 771.26087 89.154687 
L 791.26087 89.154687 
L 791.26087 82.154687 
L 771.26087 82.154687 
z
" style="fill:#2ca02c;"/>
    </g>
    <g id="text_47">
     <!-- Coordinated -->
     <g transform="translate(799.26087 89.154687)scale(0.1 -0.1)">
      <use xlink:href="#DejaVuSans-67"/>
      <use x="69.824219" xlink:href="#DejaVuSans-111"/>
      <use x="131.005859" xlink:href="#DejaVuSans-111"/>
      <use x="192.1875" xlink:href="#DejaVuSans-114"/>
      <use x="231.550781" xlink:href="#DejaVuSans-100"/>
      <use x="295.027344" xlink:href="#DejaVuSans-105"/>
      <use x="322.810547" xlink:href="#DejaVuSans-110"/>
      <use x="386.189453" xlink:href="#DejaVuSans-97"/>
      <use x="447.46875" xlink:href="#DejaVuSans-116"/>
      <use x="486.677734" xlink:href="#DejaVuSans-101"/>
      <use x="548.201172" xlink:href="#DejaVuSans-100"/>
     </g>
    </g>
    <g id="patch_93">
     <path d="M 771.26087 103.832812 
L 791.26087 103.832812 
L 791.26087 96.832812 
L 771.26087 96.832812 
z
" style="fill:#d62728;"/>
    </g>
    <g id="text_48">
     <!-- Collaborative P -->
     <g transform="translate(799.26087 103.832812)scale(0.1 -0.1)">
      <use xlink:href="#DejaVuSans-67"/>
      <use x="69.824219" xlink:href="#DejaVuSans-111"/>
      <use x="131.005859" xlink:href="#DejaVuSans-108"/>
      <use x="158.789062" xlink:href="#DejaVuSans-108"/>
      <use x="186.572266" xlink:href="#DejaVuSans-97"/>
      <use x="247.851562" xlink:href="#DejaVuSans-98"/>
      <use x="311.328125" xlink:href="#DejaVuSans-111"/>
      <use x="372.509766" xlink:href="#DejaVuSans-114"/>
      <use x="413.623047" xlink:href="#DejaVuSans-97"/>
      <use x="474.902344" xlink:href="#DejaVuSans-116"/>
      <use x="514.111328" xlink:href="#DejaVuSans-105"/>
      <use x="541.894531" xlink:href="#DejaVuSans-118"/>
      <use x="601.074219" xlink:href="#DejaVuSans-101"/>
      <use x="662.597656" xlink:href="#DejaVuSans-32"/>
      <use x="694.384766" xlink:href="#DejaVuSans-80"/>
     </g>
    </g>
    <g id="patch_94">
     <path d="M 771.26087 118.510937 
L 791.26087 118.510937 
L 791.26087 111.510937 
L 771.26087 111.510937 
z
" style="fill:#9467bd;"/>
    </g>
    <g id="text_49">
     <!-- Collaborative PI -->
     <g transform="translate(799.26087 118.510937)scale(0.1 -0.1)">
      <use xlink:href="#DejaVuSans-67"/>
      <use x="69.824219" xlink:href="#DejaVuSans-111"/>
      <use x="131.005859" xlink:href="#DejaVuSans-108"/>
      <use x="158.789062" xlink:href="#DejaVuSans-108"/>
      <use x="186.572266" xlink:href="#DejaVuSans-97"/>
      <use x="247.851562" xlink:href="#DejaVuSans-98"/>
      <use x="311.328125" xlink:href="#DejaVuSans-111"/>
      <use x="372.509766" xlink:href="#DejaVuSans-114"/>
      <use x="413.623047" xlink:href="#DejaVuSans-97"/>
      <use x="474.902344" xlink:href="#DejaVuSans-116"/>
      <use x="514.111328" xlink:href="#DejaVuSans-105"/>
      <use x="541.894531" xlink:href="#DejaVuSans-118"/>
      <use x="601.074219" xlink:href="#DejaVuSans-101"/>
      <use x="662.597656" xlink:href="#DejaVuSans-32"/>
      <use x="694.384766" xlink:href="#DejaVuSans-80"/>
      <use x="754.6875" xlink:href="#DejaVuSans-73"/>
     </g>
    </g>
   </g>
  </g>
  <g id="axes_4">
   <g id="patch_95">
    <path d="M 1053.391304 320.4 
L 1296 320.4 
L 1296 43.2 
L 1053.391304 43.2 
z
" style="fill:#ffffff;"/>
   </g>
   <g id="patch_96">
    <path clip-path="url(#pfb8cd5738a)" d="M 1064.418972 320.4 
L 1070.720497 320.4 
L 1070.720497 292.056864 
L 1064.418972 292.056864 
z
" style="fill:#1f77b4;"/>
   </g>
   <g id="patch_97">
    <path clip-path="url(#pfb8cd5738a)" d="M 1127.434218 320.4 
L 1133.735743 320.4 
L 1133.735743 244.415591 
L 1127.434218 244.415591 
z
" style="fill:#1f77b4;"/>
   </g>
   <g id="patch_98">
    <path clip-path="url(#pfb8cd5738a)" d="M 1190.449464 320.4 
L 1196.750988 320.4 
L 1196.750988 142.260867 
L 1190.449464 142.260867 
z
" style="fill:#1f77b4;"/>
   </g>
   <g id="patch_99">
    <path clip-path="url(#pfb8cd5738a)" d="M 1253.464709 320.4 
L 1259.766234 320.4 
L 1259.766234 77.861771 
L 1253.464709 77.861771 
z
" style="fill:#1f77b4;"/>
   </g>
   <g id="patch_100">
    <path clip-path="url(#pfb8cd5738a)" d="M 1070.720497 320.4 
L 1077.022021 320.4 
L 1077.022021 294.08728 
L 1070.720497 294.08728 
z
" style="fill:#ff7f0e;"/>
   </g>
   <g id="patch_101">
    <path clip-path="url(#pfb8cd5738a)" d="M 1133.735743 320.4 
L 1140.037267 320.4 
L 1140.037267 256.152497 
L 1133.735743 256.152497 
z
" style="fill:#ff7f0e;"/>
   </g>
   <g id="patch_102">
    <path clip-path="url(#pfb8cd5738a)" d="M 1196.750988 320.4 
L 1203.052513 320.4 
L 1203.052513 183.1494 
L 1196.750988 183.1494 
z
" style="fill:#ff7f0e;"/>
   </g>
   <g id="patch_103">
    <path clip-path="url(#pfb8cd5738a)" d="M 1259.766234 320.4 
L 1266.067758 320.4 
L 1266.067758 132.618688 
L 1259.766234 132.618688 
z
" style="fill:#ff7f0e;"/>
   </g>
   <g id="patch_104">
    <path clip-path="url(#pfb8cd5738a)" d="M 1077.022021 320.4 
L 1083.323546 320.4 
L 1083.323546 295.382704 
L 1077.022021 295.382704 
z
" style="fill:#2ca02c;"/>
   </g>
   <g id="patch_105">
    <path clip-path="url(#pfb8cd5738a)" d="M 1140.037267 320.4 
L 1146.338792 320.4 
L 1146.338792 239.546268 
L 1140.037267 239.546268 
z
" style="fill:#2ca02c;"/>
   </g>
   <g id="patch_106">
    <path clip-path="url(#pfb8cd5738a)" d="M 1203.052513 320.4 
L 1209.354037 320.4 
L 1209.354037 113.104646 
L 1203.052513 113.104646 
z
" style="fill:#2ca02c;"/>
   </g>
   <g id="patch_107">
    <path clip-path="url(#pfb8cd5738a)" d="M 1266.067758 320.4 
L 1272.369283 320.4 
L 1272.369283 56.4 
L 1266.067758 56.4 
z
" style="fill:#2ca02c;"/>
   </g>
   <g id="patch_108">
    <path clip-path="url(#pfb8cd5738a)" d="M 1083.323546 320.4 
L 1089.625071 320.4 
L 1089.625071 294.395058 
L 1083.323546 294.395058 
z
" style="fill:#d62728;"/>
   </g>
   <g id="patch_109">
    <path clip-path="url(#pfb8cd5738a)" d="M 1146.338792 320.4 
L 1152.640316 320.4 
L 1152.640316 283.889264 
L 1146.338792 283.889264 
z
" style="fill:#d62728;"/>
   </g>
   <g id="patch_110">
    <path clip-path="url(#pfb8cd5738a)" d="M 1209.354037 320.4 
L 1215.655562 320.4 
L 1215.655562 260.263859 
L 1209.354037 260.263859 
z
" style="fill:#d62728;"/>
   </g>
   <g id="patch_111">
    <path clip-path="url(#pfb8cd5738a)" d="M 1272.369283 320.4 
L 1278.670807 320.4 
L 1278.670807 205.506943 
L 1272.369283 205.506943 
z
" style="fill:#d62728;"/>
   </g>
   <g id="patch_112">
    <path clip-path="url(#pfb8cd5738a)" d="M 1089.625071 320.4 
L 1095.926595 320.4 
L 1095.926595 297.353402 
L 1089.625071 297.353402 
z
" style="fill:#9467bd;"/>
   </g>
   <g id="patch_113">
    <path clip-path="url(#pfb8cd5738a)" d="M 1152.640316 320.4 
L 1158.941841 320.4 
L 1158.941841 293.026135 
L 1152.640316 293.026135 
z
" style="fill:#9467bd;"/>
   </g>
   <g id="patch_114">
    <path clip-path="url(#pfb8cd5738a)" d="M 1215.655562 320.4 
L 1221.957086 320.4 
L 1221.957086 269.272107 
L 1215.655562 269.272107 
z
" style="fill:#9467bd;"/>
   </g>
   <g id="patch_115">
    <path clip-path="url(#pfb8cd5738a)" d="M 1278.670807 320.4 
L 1284.972332 320.4 
L 1284.972332 235.659997 
L 1278.670807 235.659997 
z
" style="fill:#9467bd;"/>
   </g>
   <g id="matplotlib.axis_7">
    <g id="xtick_13">
     <g id="line2d_32">
      <g>
       <use style="stroke:#000000;stroke-width:0.8;" x="1080.172784" xlink:href="#m17d1f7747d" y="320.4"/>
      </g>
     </g>
     <g id="text_50">
      <!-- Free -->
      <g transform="translate(1069.563409 334.998438)scale(0.1 -0.1)">
       <use xlink:href="#DejaVuSans-70"/>
       <use x="50.269531" xlink:href="#DejaVuSans-114"/>
       <use x="89.132812" xlink:href="#DejaVuSans-101"/>
       <use x="150.65625" xlink:href="#DejaVuSans-101"/>
      </g>
     </g>
    </g>
    <g id="xtick_14">
     <g id="line2d_33">
      <g>
       <use style="stroke:#000000;stroke-width:0.8;" x="1143.188029" xlink:href="#m17d1f7747d" y="320.4"/>
      </g>
     </g>
     <g id="text_51">
      <!-- Decongested -->
      <g transform="translate(1110.217717 334.998438)scale(0.1 -0.1)">
       <use xlink:href="#DejaVuSans-68"/>
       <use x="77.001953" xlink:href="#DejaVuSans-101"/>
       <use x="138.525391" xlink:href="#DejaVuSans-99"/>
       <use x="193.505859" xlink:href="#DejaVuSans-111"/>
       <use x="254.6875" xlink:href="#DejaVuSans-110"/>
       <use x="318.066406" xlink:href="#DejaVuSans-103"/>
       <use x="381.542969" xlink:href="#DejaVuSans-101"/>
       <use x="443.066406" xlink:href="#DejaVuSans-115"/>
       <use x="495.166016" xlink:href="#DejaVuSans-116"/>
       <use x="534.375" xlink:href="#DejaVuSans-101"/>
       <use x="595.898438" xlink:href="#DejaVuSans-100"/>
      </g>
     </g>
    </g>
    <g id="xtick_15">
     <g id="line2d_34">
      <g>
       <use style="stroke:#000000;stroke-width:0.8;" x="1206.203275" xlink:href="#m17d1f7747d" y="320.4"/>
      </g>
     </g>
     <g id="text_52">
      <!-- Traffic -->
      <g transform="translate(1191.108744 334.998438)scale(0.1 -0.1)">
       <use xlink:href="#DejaVuSans-84"/>
       <use x="46.333984" xlink:href="#DejaVuSans-114"/>
       <use x="87.447266" xlink:href="#DejaVuSans-97"/>
       <use x="148.726562" xlink:href="#DejaVuSans-102"/>
       <use x="183.931641" xlink:href="#DejaVuSans-102"/>
       <use x="219.136719" xlink:href="#DejaVuSans-105"/>
       <use x="246.919922" xlink:href="#DejaVuSans-99"/>
      </g>
     </g>
    </g>
    <g id="xtick_16">
     <g id="line2d_35">
      <g>
       <use style="stroke:#000000;stroke-width:0.8;" x="1269.218521" xlink:href="#m17d1f7747d" y="320.4"/>
      </g>
     </g>
     <g id="text_53">
      <!-- Congested -->
      <g transform="translate(1242.432583 334.998438)scale(0.1 -0.1)">
       <use xlink:href="#DejaVuSans-67"/>
       <use x="69.824219" xlink:href="#DejaVuSans-111"/>
       <use x="131.005859" xlink:href="#DejaVuSans-110"/>
       <use x="194.384766" xlink:href="#DejaVuSans-103"/>
       <use x="257.861328" xlink:href="#DejaVuSans-101"/>
       <use x="319.384766" xlink:href="#DejaVuSans-115"/>
       <use x="371.484375" xlink:href="#DejaVuSans-116"/>
       <use x="410.693359" xlink:href="#DejaVuSans-101"/>
       <use x="472.216797" xlink:href="#DejaVuSans-100"/>
      </g>
     </g>
    </g>
   </g>
   <g id="matplotlib.axis_8">
    <g id="ytick_20">
     <g id="line2d_36">
      <g>
       <use style="stroke:#000000;stroke-width:0.8;" x="1053.391304" xlink:href="#m49f2a08d86" y="320.4"/>
      </g>
     </g>
     <g id="text_54">
      <!-- 0 -->
      <g transform="translate(1040.028804 324.199219)scale(0.1 -0.1)">
       <use xlink:href="#DejaVuSans-48"/>
      </g>
     </g>
    </g>
    <g id="ytick_21">
     <g id="line2d_37">
      <g>
       <use style="stroke:#000000;stroke-width:0.8;" x="1053.391304" xlink:href="#m49f2a08d86" y="274.462989"/>
      </g>
     </g>
     <g id="text_55">
      <!-- 100 -->
      <g transform="translate(1027.303804 278.262208)scale(0.1 -0.1)">
       <use xlink:href="#DejaVuSans-49"/>
       <use x="63.623047" xlink:href="#DejaVuSans-48"/>
       <use x="127.246094" xlink:href="#DejaVuSans-48"/>
      </g>
     </g>
    </g>
    <g id="ytick_22">
     <g id="line2d_38">
      <g>
       <use style="stroke:#000000;stroke-width:0.8;" x="1053.391304" xlink:href="#m49f2a08d86" y="228.525979"/>
      </g>
     </g>
     <g id="text_56">
      <!-- 200 -->
      <g transform="translate(1027.303804 232.325198)scale(0.1 -0.1)">
       <use xlink:href="#DejaVuSans-50"/>
       <use x="63.623047" xlink:href="#DejaVuSans-48"/>
       <use x="127.246094" xlink:href="#DejaVuSans-48"/>
      </g>
     </g>
    </g>
    <g id="ytick_23">
     <g id="line2d_39">
      <g>
       <use style="stroke:#000000;stroke-width:0.8;" x="1053.391304" xlink:href="#m49f2a08d86" y="182.588968"/>
      </g>
     </g>
     <g id="text_57">
      <!-- 300 -->
      <g transform="translate(1027.303804 186.388187)scale(0.1 -0.1)">
       <use xlink:href="#DejaVuSans-51"/>
       <use x="63.623047" xlink:href="#DejaVuSans-48"/>
       <use x="127.246094" xlink:href="#DejaVuSans-48"/>
      </g>
     </g>
    </g>
    <g id="ytick_24">
     <g id="line2d_40">
      <g>
       <use style="stroke:#000000;stroke-width:0.8;" x="1053.391304" xlink:href="#m49f2a08d86" y="136.651958"/>
      </g>
     </g>
     <g id="text_58">
      <!-- 400 -->
      <g transform="translate(1027.303804 140.451176)scale(0.1 -0.1)">
       <use xlink:href="#DejaVuSans-52"/>
       <use x="63.623047" xlink:href="#DejaVuSans-48"/>
       <use x="127.246094" xlink:href="#DejaVuSans-48"/>
      </g>
     </g>
    </g>
    <g id="ytick_25">
     <g id="line2d_41">
      <g>
       <use style="stroke:#000000;stroke-width:0.8;" x="1053.391304" xlink:href="#m49f2a08d86" y="90.714947"/>
      </g>
     </g>
     <g id="text_59">
      <!-- 500 -->
      <g transform="translate(1027.303804 94.514166)scale(0.1 -0.1)">
       <use xlink:href="#DejaVuSans-53"/>
       <use x="63.623047" xlink:href="#DejaVuSans-48"/>
       <use x="127.246094" xlink:href="#DejaVuSans-48"/>
      </g>
     </g>
    </g>
    <g id="ytick_26">
     <g id="line2d_42">
      <g>
       <use style="stroke:#000000;stroke-width:0.8;" x="1053.391304" xlink:href="#m49f2a08d86" y="44.777936"/>
      </g>
     </g>
     <g id="text_60">
      <!-- 600 -->
      <g transform="translate(1027.303804 48.577155)scale(0.1 -0.1)">
       <use xlink:href="#DejaVuSans-54"/>
       <use x="63.623047" xlink:href="#DejaVuSans-48"/>
       <use x="127.246094" xlink:href="#DejaVuSans-48"/>
      </g>
     </g>
    </g>
    <g id="text_61">
     <!-- Avg. Time Loss -->
     <defs>
      <path d="M 9.8125 72.90625 
L 19.671875 72.90625 
L 19.671875 8.296875 
L 55.171875 8.296875 
L 55.171875 0 
L 9.8125 0 
z
" id="DejaVuSans-76"/>
     </defs>
     <g transform="translate(1021.224117 219.028125)rotate(-90)scale(0.1 -0.1)">
      <use xlink:href="#DejaVuSans-65"/>
      <use x="62.533203" xlink:href="#DejaVuSans-118"/>
      <use x="121.712891" xlink:href="#DejaVuSans-103"/>
      <use x="185.189453" xlink:href="#DejaVuSans-46"/>
      <use x="216.976562" xlink:href="#DejaVuSans-32"/>
      <use x="248.763672" xlink:href="#DejaVuSans-84"/>
      <use x="306.722656" xlink:href="#DejaVuSans-105"/>
      <use x="334.505859" xlink:href="#DejaVuSans-109"/>
      <use x="431.917969" xlink:href="#DejaVuSans-101"/>
      <use x="493.441406" xlink:href="#DejaVuSans-32"/>
      <use x="525.228516" xlink:href="#DejaVuSans-76"/>
      <use x="579.191406" xlink:href="#DejaVuSans-111"/>
      <use x="640.373047" xlink:href="#DejaVuSans-115"/>
      <use x="692.472656" xlink:href="#DejaVuSans-115"/>
     </g>
    </g>
   </g>
   <g id="patch_116">
    <path d="M 1053.391304 320.4 
L 1053.391304 43.2 
" style="fill:none;stroke:#000000;stroke-linecap:square;stroke-linejoin:miter;stroke-width:0.8;"/>
   </g>
   <g id="patch_117">
    <path d="M 1296 320.4 
L 1296 43.2 
" style="fill:none;stroke:#000000;stroke-linecap:square;stroke-linejoin:miter;stroke-width:0.8;"/>
   </g>
   <g id="patch_118">
    <path d="M 1053.391304 320.4 
L 1296 320.4 
" style="fill:none;stroke:#000000;stroke-linecap:square;stroke-linejoin:miter;stroke-width:0.8;"/>
   </g>
   <g id="patch_119">
    <path d="M 1053.391304 43.2 
L 1296 43.2 
" style="fill:none;stroke:#000000;stroke-linecap:square;stroke-linejoin:miter;stroke-width:0.8;"/>
   </g>
   <g id="legend_4">
    <g id="patch_120">
     <path d="M 1060.391304 124.590625 
L 1170.811617 124.590625 
Q 1172.811617 124.590625 1172.811617 122.590625 
L 1172.811617 50.2 
Q 1172.811617 48.2 1170.811617 48.2 
L 1060.391304 48.2 
Q 1058.391304 48.2 1058.391304 50.2 
L 1058.391304 122.590625 
Q 1058.391304 124.590625 1060.391304 124.590625 
z
" style="fill:#ffffff;opacity:0.8;stroke:#cccccc;stroke-linejoin:miter;"/>
    </g>
    <g id="patch_121">
     <path d="M 1062.391304 59.798437 
L 1082.391304 59.798437 
L 1082.391304 52.798437 
L 1062.391304 52.798437 
z
" style="fill:#1f77b4;"/>
    </g>
    <g id="text_62">
     <!-- Timed -->
     <g transform="translate(1090.391304 59.798437)scale(0.1 -0.1)">
      <use xlink:href="#DejaVuSans-84"/>
      <use x="57.958984" xlink:href="#DejaVuSans-105"/>
      <use x="85.742188" xlink:href="#DejaVuSans-109"/>
      <use x="183.154297" xlink:href="#DejaVuSans-101"/>
      <use x="244.677734" xlink:href="#DejaVuSans-100"/>
     </g>
    </g>
    <g id="patch_122">
     <path d="M 1062.391304 74.476562 
L 1082.391304 74.476562 
L 1082.391304 67.476562 
L 1062.391304 67.476562 
z
" style="fill:#ff7f0e;"/>
    </g>
    <g id="text_63">
     <!-- Webster -->
     <g transform="translate(1090.391304 74.476562)scale(0.1 -0.1)">
      <use xlink:href="#DejaVuSans-87"/>
      <use x="93.001953" xlink:href="#DejaVuSans-101"/>
      <use x="154.525391" xlink:href="#DejaVuSans-98"/>
      <use x="218.001953" xlink:href="#DejaVuSans-115"/>
      <use x="270.101562" xlink:href="#DejaVuSans-116"/>
      <use x="309.310547" xlink:href="#DejaVuSans-101"/>
      <use x="370.833984" xlink:href="#DejaVuSans-114"/>
     </g>
    </g>
    <g id="patch_123">
     <path d="M 1062.391304 89.154687 
L 1082.391304 89.154687 
L 1082.391304 82.154687 
L 1062.391304 82.154687 
z
" style="fill:#2ca02c;"/>
    </g>
    <g id="text_64">
     <!-- Coordinated -->
     <g transform="translate(1090.391304 89.154687)scale(0.1 -0.1)">
      <use xlink:href="#DejaVuSans-67"/>
      <use x="69.824219" xlink:href="#DejaVuSans-111"/>
      <use x="131.005859" xlink:href="#DejaVuSans-111"/>
      <use x="192.1875" xlink:href="#DejaVuSans-114"/>
      <use x="231.550781" xlink:href="#DejaVuSans-100"/>
      <use x="295.027344" xlink:href="#DejaVuSans-105"/>
      <use x="322.810547" xlink:href="#DejaVuSans-110"/>
      <use x="386.189453" xlink:href="#DejaVuSans-97"/>
      <use x="447.46875" xlink:href="#DejaVuSans-116"/>
      <use x="486.677734" xlink:href="#DejaVuSans-101"/>
      <use x="548.201172" xlink:href="#DejaVuSans-100"/>
     </g>
    </g>
    <g id="patch_124">
     <path d="M 1062.391304 103.832812 
L 1082.391304 103.832812 
L 1082.391304 96.832812 
L 1062.391304 96.832812 
z
" style="fill:#d62728;"/>
    </g>
    <g id="text_65">
     <!-- Collaborative P -->
     <g transform="translate(1090.391304 103.832812)scale(0.1 -0.1)">
      <use xlink:href="#DejaVuSans-67"/>
      <use x="69.824219" xlink:href="#DejaVuSans-111"/>
      <use x="131.005859" xlink:href="#DejaVuSans-108"/>
      <use x="158.789062" xlink:href="#DejaVuSans-108"/>
      <use x="186.572266" xlink:href="#DejaVuSans-97"/>
      <use x="247.851562" xlink:href="#DejaVuSans-98"/>
      <use x="311.328125" xlink:href="#DejaVuSans-111"/>
      <use x="372.509766" xlink:href="#DejaVuSans-114"/>
      <use x="413.623047" xlink:href="#DejaVuSans-97"/>
      <use x="474.902344" xlink:href="#DejaVuSans-116"/>
      <use x="514.111328" xlink:href="#DejaVuSans-105"/>
      <use x="541.894531" xlink:href="#DejaVuSans-118"/>
      <use x="601.074219" xlink:href="#DejaVuSans-101"/>
      <use x="662.597656" xlink:href="#DejaVuSans-32"/>
      <use x="694.384766" xlink:href="#DejaVuSans-80"/>
     </g>
    </g>
    <g id="patch_125">
     <path d="M 1062.391304 118.510937 
L 1082.391304 118.510937 
L 1082.391304 111.510937 
L 1062.391304 111.510937 
z
" style="fill:#9467bd;"/>
    </g>
    <g id="text_66">
     <!-- Collaborative PI -->
     <g transform="translate(1090.391304 118.510937)scale(0.1 -0.1)">
      <use xlink:href="#DejaVuSans-67"/>
      <use x="69.824219" xlink:href="#DejaVuSans-111"/>
      <use x="131.005859" xlink:href="#DejaVuSans-108"/>
      <use x="158.789062" xlink:href="#DejaVuSans-108"/>
      <use x="186.572266" xlink:href="#DejaVuSans-97"/>
      <use x="247.851562" xlink:href="#DejaVuSans-98"/>
      <use x="311.328125" xlink:href="#DejaVuSans-111"/>
      <use x="372.509766" xlink:href="#DejaVuSans-114"/>
      <use x="413.623047" xlink:href="#DejaVuSans-97"/>
      <use x="474.902344" xlink:href="#DejaVuSans-116"/>
      <use x="514.111328" xlink:href="#DejaVuSans-105"/>
      <use x="541.894531" xlink:href="#DejaVuSans-118"/>
      <use x="601.074219" xlink:href="#DejaVuSans-101"/>
      <use x="662.597656" xlink:href="#DejaVuSans-32"/>
      <use x="694.384766" xlink:href="#DejaVuSans-80"/>
      <use x="754.6875" xlink:href="#DejaVuSans-73"/>
     </g>
    </g>
   </g>
  </g>
 </g>
 <defs>
  <clipPath id="p58dde337be">
   <rect height="277.2" width="242.608696" x="180" y="43.2"/>
  </clipPath>
  <clipPath id="pb053b6c26e">
   <rect height="277.2" width="242.608696" x="471.130435" y="43.2"/>
  </clipPath>
  <clipPath id="p6ad537f779">
   <rect height="277.2" width="242.608696" x="762.26087" y="43.2"/>
  </clipPath>
  <clipPath id="pfb8cd5738a">
   <rect height="277.2" width="242.608696" x="1053.391304" y="43.2"/>
  </clipPath>
 </defs>
</svg>
