<?xml version="1.0" encoding="utf-8" standalone="no"?>
<!DOCTYPE svg PUBLIC "-//W3C//DTD SVG 1.1//EN"
  "http://www.w3.org/Graphics/SVG/1.1/DTD/svg11.dtd">
<!-- Created with matplotlib (https://matplotlib.org/) -->
<svg height="345.6pt" version="1.1" viewBox="0 0 460.8 345.6" width="460.8pt" xmlns="http://www.w3.org/2000/svg" xmlns:xlink="http://www.w3.org/1999/xlink">
 <defs>
  <style type="text/css">
*{stroke-linecap:butt;stroke-linejoin:round;}
  </style>
 </defs>
 <g id="figure_1">
  <g id="patch_1">
   <path d="M 0 345.6 
L 460.8 345.6 
L 460.8 0 
L 0 0 
z
" style="fill:#ffffff;"/>
  </g>
  <g id="axes_1">
   <g id="patch_2">
    <path d="M 57.6 307.584 
L 414.72 307.584 
L 414.72 41.472 
L 57.6 41.472 
z
" style="fill:#ffffff;"/>
   </g>
   <g id="matplotlib.axis_1">
    <g id="xtick_1">
     <g id="line2d_1">
      <defs>
       <path d="M 0 0 
L 0 3.5 
" id="maec4270f6a" style="stroke:#000000;stroke-width:0.8;"/>
      </defs>
      <g>
       <use style="stroke:#000000;stroke-width:0.8;" x="73.832727" xlink:href="#maec4270f6a" y="307.584"/>
      </g>
     </g>
     <g id="text_1">
      <!-- 0 -->
      <defs>
       <path d="M 31.78125 66.40625 
Q 24.171875 66.40625 20.328125 58.90625 
Q 16.5 51.421875 16.5 36.375 
Q 16.5 21.390625 20.328125 13.890625 
Q 24.171875 6.390625 31.78125 6.390625 
Q 39.453125 6.390625 43.28125 13.890625 
Q 47.125 21.390625 47.125 36.375 
Q 47.125 51.421875 43.28125 58.90625 
Q 39.453125 66.40625 31.78125 66.40625 
z
M 31.78125 74.21875 
Q 44.046875 74.21875 50.515625 64.515625 
Q 56.984375 54.828125 56.984375 36.375 
Q 56.984375 17.96875 50.515625 8.265625 
Q 44.046875 -1.421875 31.78125 -1.421875 
Q 19.53125 -1.421875 13.0625 8.265625 
Q 6.59375 17.96875 6.59375 36.375 
Q 6.59375 54.828125 13.0625 64.515625 
Q 19.53125 74.21875 31.78125 74.21875 
z
" id="DejaVuSans-48"/>
      </defs>
      <g transform="translate(70.651477 322.182437)scale(0.1 -0.1)">
       <use xlink:href="#DejaVuSans-48"/>
      </g>
     </g>
    </g>
    <g id="xtick_2">
     <g id="line2d_2">
      <g>
       <use style="stroke:#000000;stroke-width:0.8;" x="149.509777" xlink:href="#maec4270f6a" y="307.584"/>
      </g>
     </g>
     <g id="text_2">
      <!-- 1000 -->
      <defs>
       <path d="M 12.40625 8.296875 
L 28.515625 8.296875 
L 28.515625 63.921875 
L 10.984375 60.40625 
L 10.984375 69.390625 
L 28.421875 72.90625 
L 38.28125 72.90625 
L 38.28125 8.296875 
L 54.390625 8.296875 
L 54.390625 0 
L 12.40625 0 
z
" id="DejaVuSans-49"/>
      </defs>
      <g transform="translate(136.784777 322.182437)scale(0.1 -0.1)">
       <use xlink:href="#DejaVuSans-49"/>
       <use x="63.623047" xlink:href="#DejaVuSans-48"/>
       <use x="127.246094" xlink:href="#DejaVuSans-48"/>
       <use x="190.869141" xlink:href="#DejaVuSans-48"/>
      </g>
     </g>
    </g>
    <g id="xtick_3">
     <g id="line2d_3">
      <g>
       <use style="stroke:#000000;stroke-width:0.8;" x="225.186828" xlink:href="#maec4270f6a" y="307.584"/>
      </g>
     </g>
     <g id="text_3">
      <!-- 2000 -->
      <defs>
       <path d="M 19.1875 8.296875 
L 53.609375 8.296875 
L 53.609375 0 
L 7.328125 0 
L 7.328125 8.296875 
Q 12.9375 14.109375 22.625 23.890625 
Q 32.328125 33.6875 34.8125 36.53125 
Q 39.546875 41.84375 41.421875 45.53125 
Q 43.3125 49.21875 43.3125 52.78125 
Q 43.3125 58.59375 39.234375 62.25 
Q 35.15625 65.921875 28.609375 65.921875 
Q 23.96875 65.921875 18.8125 64.3125 
Q 13.671875 62.703125 7.8125 59.421875 
L 7.8125 69.390625 
Q 13.765625 71.78125 18.9375 73 
Q 24.125 74.21875 28.421875 74.21875 
Q 39.75 74.21875 46.484375 68.546875 
Q 53.21875 62.890625 53.21875 53.421875 
Q 53.21875 48.921875 51.53125 44.890625 
Q 49.859375 40.875 45.40625 35.40625 
Q 44.1875 33.984375 37.640625 27.21875 
Q 31.109375 20.453125 19.1875 8.296875 
z
" id="DejaVuSans-50"/>
      </defs>
      <g transform="translate(212.461828 322.182437)scale(0.1 -0.1)">
       <use xlink:href="#DejaVuSans-50"/>
       <use x="63.623047" xlink:href="#DejaVuSans-48"/>
       <use x="127.246094" xlink:href="#DejaVuSans-48"/>
       <use x="190.869141" xlink:href="#DejaVuSans-48"/>
      </g>
     </g>
    </g>
    <g id="xtick_4">
     <g id="line2d_4">
      <g>
       <use style="stroke:#000000;stroke-width:0.8;" x="300.863878" xlink:href="#maec4270f6a" y="307.584"/>
      </g>
     </g>
     <g id="text_4">
      <!-- 3000 -->
      <defs>
       <path d="M 40.578125 39.3125 
Q 47.65625 37.796875 51.625 33 
Q 55.609375 28.21875 55.609375 21.1875 
Q 55.609375 10.40625 48.1875 4.484375 
Q 40.765625 -1.421875 27.09375 -1.421875 
Q 22.515625 -1.421875 17.65625 -0.515625 
Q 12.796875 0.390625 7.625 2.203125 
L 7.625 11.71875 
Q 11.71875 9.328125 16.59375 8.109375 
Q 21.484375 6.890625 26.8125 6.890625 
Q 36.078125 6.890625 40.9375 10.546875 
Q 45.796875 14.203125 45.796875 21.1875 
Q 45.796875 27.640625 41.28125 31.265625 
Q 36.765625 34.90625 28.71875 34.90625 
L 20.21875 34.90625 
L 20.21875 43.015625 
L 29.109375 43.015625 
Q 36.375 43.015625 40.234375 45.921875 
Q 44.09375 48.828125 44.09375 54.296875 
Q 44.09375 59.90625 40.109375 62.90625 
Q 36.140625 65.921875 28.71875 65.921875 
Q 24.65625 65.921875 20.015625 65.03125 
Q 15.375 64.15625 9.8125 62.3125 
L 9.8125 71.09375 
Q 15.4375 72.65625 20.34375 73.4375 
Q 25.25 74.21875 29.59375 74.21875 
Q 40.828125 74.21875 47.359375 69.109375 
Q 53.90625 64.015625 53.90625 55.328125 
Q 53.90625 49.265625 50.4375 45.09375 
Q 46.96875 40.921875 40.578125 39.3125 
z
" id="DejaVuSans-51"/>
      </defs>
      <g transform="translate(288.138878 322.182437)scale(0.1 -0.1)">
       <use xlink:href="#DejaVuSans-51"/>
       <use x="63.623047" xlink:href="#DejaVuSans-48"/>
       <use x="127.246094" xlink:href="#DejaVuSans-48"/>
       <use x="190.869141" xlink:href="#DejaVuSans-48"/>
      </g>
     </g>
    </g>
    <g id="xtick_5">
     <g id="line2d_5">
      <g>
       <use style="stroke:#000000;stroke-width:0.8;" x="376.540928" xlink:href="#maec4270f6a" y="307.584"/>
      </g>
     </g>
     <g id="text_5">
      <!-- 4000 -->
      <defs>
       <path d="M 37.796875 64.3125 
L 12.890625 25.390625 
L 37.796875 25.390625 
z
M 35.203125 72.90625 
L 47.609375 72.90625 
L 47.609375 25.390625 
L 58.015625 25.390625 
L 58.015625 17.1875 
L 47.609375 17.1875 
L 47.609375 0 
L 37.796875 0 
L 37.796875 17.1875 
L 4.890625 17.1875 
L 4.890625 26.703125 
z
" id="DejaVuSans-52"/>
      </defs>
      <g transform="translate(363.815928 322.182437)scale(0.1 -0.1)">
       <use xlink:href="#DejaVuSans-52"/>
       <use x="63.623047" xlink:href="#DejaVuSans-48"/>
       <use x="127.246094" xlink:href="#DejaVuSans-48"/>
       <use x="190.869141" xlink:href="#DejaVuSans-48"/>
      </g>
     </g>
    </g>
    <g id="text_6">
     <!-- time (s) -->
     <defs>
      <path d="M 18.3125 70.21875 
L 18.3125 54.6875 
L 36.8125 54.6875 
L 36.8125 47.703125 
L 18.3125 47.703125 
L 18.3125 18.015625 
Q 18.3125 11.328125 20.140625 9.421875 
Q 21.96875 7.515625 27.59375 7.515625 
L 36.8125 7.515625 
L 36.8125 0 
L 27.59375 0 
Q 17.1875 0 13.234375 3.875 
Q 9.28125 7.765625 9.28125 18.015625 
L 9.28125 47.703125 
L 2.6875 47.703125 
L 2.6875 54.6875 
L 9.28125 54.6875 
L 9.28125 70.21875 
z
" id="DejaVuSans-116"/>
      <path d="M 9.421875 54.6875 
L 18.40625 54.6875 
L 18.40625 0 
L 9.421875 0 
z
M 9.421875 75.984375 
L 18.40625 75.984375 
L 18.40625 64.59375 
L 9.421875 64.59375 
z
" id="DejaVuSans-105"/>
      <path d="M 52 44.1875 
Q 55.375 50.25 60.0625 53.125 
Q 64.75 56 71.09375 56 
Q 79.640625 56 84.28125 50.015625 
Q 88.921875 44.046875 88.921875 33.015625 
L 88.921875 0 
L 79.890625 0 
L 79.890625 32.71875 
Q 79.890625 40.578125 77.09375 44.375 
Q 74.3125 48.1875 68.609375 48.1875 
Q 61.625 48.1875 57.5625 43.546875 
Q 53.515625 38.921875 53.515625 30.90625 
L 53.515625 0 
L 44.484375 0 
L 44.484375 32.71875 
Q 44.484375 40.625 41.703125 44.40625 
Q 38.921875 48.1875 33.109375 48.1875 
Q 26.21875 48.1875 22.15625 43.53125 
Q 18.109375 38.875 18.109375 30.90625 
L 18.109375 0 
L 9.078125 0 
L 9.078125 54.6875 
L 18.109375 54.6875 
L 18.109375 46.1875 
Q 21.1875 51.21875 25.484375 53.609375 
Q 29.78125 56 35.6875 56 
Q 41.65625 56 45.828125 52.96875 
Q 50 49.953125 52 44.1875 
z
" id="DejaVuSans-109"/>
      <path d="M 56.203125 29.59375 
L 56.203125 25.203125 
L 14.890625 25.203125 
Q 15.484375 15.921875 20.484375 11.0625 
Q 25.484375 6.203125 34.421875 6.203125 
Q 39.59375 6.203125 44.453125 7.46875 
Q 49.3125 8.734375 54.109375 11.28125 
L 54.109375 2.78125 
Q 49.265625 0.734375 44.1875 -0.34375 
Q 39.109375 -1.421875 33.890625 -1.421875 
Q 20.796875 -1.421875 13.15625 6.1875 
Q 5.515625 13.8125 5.515625 26.8125 
Q 5.515625 40.234375 12.765625 48.109375 
Q 20.015625 56 32.328125 56 
Q 43.359375 56 49.78125 48.890625 
Q 56.203125 41.796875 56.203125 29.59375 
z
M 47.21875 32.234375 
Q 47.125 39.59375 43.09375 43.984375 
Q 39.0625 48.390625 32.421875 48.390625 
Q 24.90625 48.390625 20.390625 44.140625 
Q 15.875 39.890625 15.1875 32.171875 
z
" id="DejaVuSans-101"/>
      <path id="DejaVuSans-32"/>
      <path d="M 31 75.875 
Q 24.46875 64.65625 21.28125 53.65625 
Q 18.109375 42.671875 18.109375 31.390625 
Q 18.109375 20.125 21.3125 9.0625 
Q 24.515625 -2 31 -13.1875 
L 23.1875 -13.1875 
Q 15.875 -1.703125 12.234375 9.375 
Q 8.59375 20.453125 8.59375 31.390625 
Q 8.59375 42.28125 12.203125 53.3125 
Q 15.828125 64.359375 23.1875 75.875 
z
" id="DejaVuSans-40"/>
      <path d="M 44.28125 53.078125 
L 44.28125 44.578125 
Q 40.484375 46.53125 36.375 47.5 
Q 32.28125 48.484375 27.875 48.484375 
Q 21.1875 48.484375 17.84375 46.4375 
Q 14.5 44.390625 14.5 40.28125 
Q 14.5 37.15625 16.890625 35.375 
Q 19.28125 33.59375 26.515625 31.984375 
L 29.59375 31.296875 
Q 39.15625 29.25 43.1875 25.515625 
Q 47.21875 21.78125 47.21875 15.09375 
Q 47.21875 7.46875 41.1875 3.015625 
Q 35.15625 -1.421875 24.609375 -1.421875 
Q 20.21875 -1.421875 15.453125 -0.5625 
Q 10.6875 0.296875 5.421875 2 
L 5.421875 11.28125 
Q 10.40625 8.6875 15.234375 7.390625 
Q 20.0625 6.109375 24.8125 6.109375 
Q 31.15625 6.109375 34.5625 8.28125 
Q 37.984375 10.453125 37.984375 14.40625 
Q 37.984375 18.0625 35.515625 20.015625 
Q 33.0625 21.96875 24.703125 23.78125 
L 21.578125 24.515625 
Q 13.234375 26.265625 9.515625 29.90625 
Q 5.8125 33.546875 5.8125 39.890625 
Q 5.8125 47.609375 11.28125 51.796875 
Q 16.75 56 26.8125 56 
Q 31.78125 56 36.171875 55.265625 
Q 40.578125 54.546875 44.28125 53.078125 
z
" id="DejaVuSans-115"/>
      <path d="M 8.015625 75.875 
L 15.828125 75.875 
Q 23.140625 64.359375 26.78125 53.3125 
Q 30.421875 42.28125 30.421875 31.390625 
Q 30.421875 20.453125 26.78125 9.375 
Q 23.140625 -1.703125 15.828125 -13.1875 
L 8.015625 -13.1875 
Q 14.5 -2 17.703125 9.0625 
Q 20.90625 20.125 20.90625 31.390625 
Q 20.90625 42.671875 17.703125 53.65625 
Q 14.5 64.65625 8.015625 75.875 
z
" id="DejaVuSans-41"/>
     </defs>
     <g transform="translate(216.768594 335.860562)scale(0.1 -0.1)">
      <use xlink:href="#DejaVuSans-116"/>
      <use x="39.208984" xlink:href="#DejaVuSans-105"/>
      <use x="66.992188" xlink:href="#DejaVuSans-109"/>
      <use x="164.404297" xlink:href="#DejaVuSans-101"/>
      <use x="225.927734" xlink:href="#DejaVuSans-32"/>
      <use x="257.714844" xlink:href="#DejaVuSans-40"/>
      <use x="296.728516" xlink:href="#DejaVuSans-115"/>
      <use x="348.828125" xlink:href="#DejaVuSans-41"/>
     </g>
    </g>
   </g>
   <g id="matplotlib.axis_2">
    <g id="ytick_1">
     <g id="line2d_6">
      <defs>
       <path d="M 0 0 
L -3.5 0 
" id="m89167ba8d0" style="stroke:#000000;stroke-width:0.8;"/>
      </defs>
      <g>
       <use style="stroke:#000000;stroke-width:0.8;" x="57.6" xlink:href="#m89167ba8d0" y="295.488"/>
      </g>
     </g>
     <g id="text_7">
      <!-- 0 -->
      <g transform="translate(44.2375 299.287219)scale(0.1 -0.1)">
       <use xlink:href="#DejaVuSans-48"/>
      </g>
     </g>
    </g>
    <g id="ytick_2">
     <g id="line2d_7">
      <g>
       <use style="stroke:#000000;stroke-width:0.8;" x="57.6" xlink:href="#m89167ba8d0" y="259.163676"/>
      </g>
     </g>
     <g id="text_8">
      <!-- 25 -->
      <defs>
       <path d="M 10.796875 72.90625 
L 49.515625 72.90625 
L 49.515625 64.59375 
L 19.828125 64.59375 
L 19.828125 46.734375 
Q 21.96875 47.46875 24.109375 47.828125 
Q 26.265625 48.1875 28.421875 48.1875 
Q 40.625 48.1875 47.75 41.5 
Q 54.890625 34.8125 54.890625 23.390625 
Q 54.890625 11.625 47.5625 5.09375 
Q 40.234375 -1.421875 26.90625 -1.421875 
Q 22.3125 -1.421875 17.546875 -0.640625 
Q 12.796875 0.140625 7.71875 1.703125 
L 7.71875 11.625 
Q 12.109375 9.234375 16.796875 8.0625 
Q 21.484375 6.890625 26.703125 6.890625 
Q 35.15625 6.890625 40.078125 11.328125 
Q 45.015625 15.765625 45.015625 23.390625 
Q 45.015625 31 40.078125 35.4375 
Q 35.15625 39.890625 26.703125 39.890625 
Q 22.75 39.890625 18.8125 39.015625 
Q 14.890625 38.140625 10.796875 36.28125 
z
" id="DejaVuSans-53"/>
      </defs>
      <g transform="translate(37.875 262.962894)scale(0.1 -0.1)">
       <use xlink:href="#DejaVuSans-50"/>
       <use x="63.623047" xlink:href="#DejaVuSans-53"/>
      </g>
     </g>
    </g>
    <g id="ytick_3">
     <g id="line2d_8">
      <g>
       <use style="stroke:#000000;stroke-width:0.8;" x="57.6" xlink:href="#m89167ba8d0" y="222.839351"/>
      </g>
     </g>
     <g id="text_9">
      <!-- 50 -->
      <g transform="translate(37.875 226.63857)scale(0.1 -0.1)">
       <use xlink:href="#DejaVuSans-53"/>
       <use x="63.623047" xlink:href="#DejaVuSans-48"/>
      </g>
     </g>
    </g>
    <g id="ytick_4">
     <g id="line2d_9">
      <g>
       <use style="stroke:#000000;stroke-width:0.8;" x="57.6" xlink:href="#m89167ba8d0" y="186.515027"/>
      </g>
     </g>
     <g id="text_10">
      <!-- 75 -->
      <defs>
       <path d="M 8.203125 72.90625 
L 55.078125 72.90625 
L 55.078125 68.703125 
L 28.609375 0 
L 18.3125 0 
L 43.21875 64.59375 
L 8.203125 64.59375 
z
" id="DejaVuSans-55"/>
      </defs>
      <g transform="translate(37.875 190.314246)scale(0.1 -0.1)">
       <use xlink:href="#DejaVuSans-55"/>
       <use x="63.623047" xlink:href="#DejaVuSans-53"/>
      </g>
     </g>
    </g>
    <g id="ytick_5">
     <g id="line2d_10">
      <g>
       <use style="stroke:#000000;stroke-width:0.8;" x="57.6" xlink:href="#m89167ba8d0" y="150.190703"/>
      </g>
     </g>
     <g id="text_11">
      <!-- 100 -->
      <g transform="translate(31.5125 153.989921)scale(0.1 -0.1)">
       <use xlink:href="#DejaVuSans-49"/>
       <use x="63.623047" xlink:href="#DejaVuSans-48"/>
       <use x="127.246094" xlink:href="#DejaVuSans-48"/>
      </g>
     </g>
    </g>
    <g id="ytick_6">
     <g id="line2d_11">
      <g>
       <use style="stroke:#000000;stroke-width:0.8;" x="57.6" xlink:href="#m89167ba8d0" y="113.866378"/>
      </g>
     </g>
     <g id="text_12">
      <!-- 125 -->
      <g transform="translate(31.5125 117.665597)scale(0.1 -0.1)">
       <use xlink:href="#DejaVuSans-49"/>
       <use x="63.623047" xlink:href="#DejaVuSans-50"/>
       <use x="127.246094" xlink:href="#DejaVuSans-53"/>
      </g>
     </g>
    </g>
    <g id="ytick_7">
     <g id="line2d_12">
      <g>
       <use style="stroke:#000000;stroke-width:0.8;" x="57.6" xlink:href="#m89167ba8d0" y="77.542054"/>
      </g>
     </g>
     <g id="text_13">
      <!-- 150 -->
      <g transform="translate(31.5125 81.341273)scale(0.1 -0.1)">
       <use xlink:href="#DejaVuSans-49"/>
       <use x="63.623047" xlink:href="#DejaVuSans-53"/>
       <use x="127.246094" xlink:href="#DejaVuSans-48"/>
      </g>
     </g>
    </g>
    <g id="text_14">
     <!-- meanWaitingTimeToDepart (s) -->
     <defs>
      <path d="M 34.28125 27.484375 
Q 23.390625 27.484375 19.1875 25 
Q 14.984375 22.515625 14.984375 16.5 
Q 14.984375 11.71875 18.140625 8.90625 
Q 21.296875 6.109375 26.703125 6.109375 
Q 34.1875 6.109375 38.703125 11.40625 
Q 43.21875 16.703125 43.21875 25.484375 
L 43.21875 27.484375 
z
M 52.203125 31.203125 
L 52.203125 0 
L 43.21875 0 
L 43.21875 8.296875 
Q 40.140625 3.328125 35.546875 0.953125 
Q 30.953125 -1.421875 24.3125 -1.421875 
Q 15.921875 -1.421875 10.953125 3.296875 
Q 6 8.015625 6 15.921875 
Q 6 25.140625 12.171875 29.828125 
Q 18.359375 34.515625 30.609375 34.515625 
L 43.21875 34.515625 
L 43.21875 35.40625 
Q 43.21875 41.609375 39.140625 45 
Q 35.0625 48.390625 27.6875 48.390625 
Q 23 48.390625 18.546875 47.265625 
Q 14.109375 46.140625 10.015625 43.890625 
L 10.015625 52.203125 
Q 14.9375 54.109375 19.578125 55.046875 
Q 24.21875 56 28.609375 56 
Q 40.484375 56 46.34375 49.84375 
Q 52.203125 43.703125 52.203125 31.203125 
z
" id="DejaVuSans-97"/>
      <path d="M 54.890625 33.015625 
L 54.890625 0 
L 45.90625 0 
L 45.90625 32.71875 
Q 45.90625 40.484375 42.875 44.328125 
Q 39.84375 48.1875 33.796875 48.1875 
Q 26.515625 48.1875 22.3125 43.546875 
Q 18.109375 38.921875 18.109375 30.90625 
L 18.109375 0 
L 9.078125 0 
L 9.078125 54.6875 
L 18.109375 54.6875 
L 18.109375 46.1875 
Q 21.34375 51.125 25.703125 53.5625 
Q 30.078125 56 35.796875 56 
Q 45.21875 56 50.046875 50.171875 
Q 54.890625 44.34375 54.890625 33.015625 
z
" id="DejaVuSans-110"/>
      <path d="M 3.328125 72.90625 
L 13.28125 72.90625 
L 28.609375 11.28125 
L 43.890625 72.90625 
L 54.984375 72.90625 
L 70.3125 11.28125 
L 85.59375 72.90625 
L 95.609375 72.90625 
L 77.296875 0 
L 64.890625 0 
L 49.515625 63.28125 
L 33.984375 0 
L 21.578125 0 
z
" id="DejaVuSans-87"/>
      <path d="M 45.40625 27.984375 
Q 45.40625 37.75 41.375 43.109375 
Q 37.359375 48.484375 30.078125 48.484375 
Q 22.859375 48.484375 18.828125 43.109375 
Q 14.796875 37.75 14.796875 27.984375 
Q 14.796875 18.265625 18.828125 12.890625 
Q 22.859375 7.515625 30.078125 7.515625 
Q 37.359375 7.515625 41.375 12.890625 
Q 45.40625 18.265625 45.40625 27.984375 
z
M 54.390625 6.78125 
Q 54.390625 -7.171875 48.1875 -13.984375 
Q 42 -20.796875 29.203125 -20.796875 
Q 24.46875 -20.796875 20.265625 -20.09375 
Q 16.0625 -19.390625 12.109375 -17.921875 
L 12.109375 -9.1875 
Q 16.0625 -11.328125 19.921875 -12.34375 
Q 23.78125 -13.375 27.78125 -13.375 
Q 36.625 -13.375 41.015625 -8.765625 
Q 45.40625 -4.15625 45.40625 5.171875 
L 45.40625 9.625 
Q 42.625 4.78125 38.28125 2.390625 
Q 33.9375 0 27.875 0 
Q 17.828125 0 11.671875 7.65625 
Q 5.515625 15.328125 5.515625 27.984375 
Q 5.515625 40.671875 11.671875 48.328125 
Q 17.828125 56 27.875 56 
Q 33.9375 56 38.28125 53.609375 
Q 42.625 51.21875 45.40625 46.390625 
L 45.40625 54.6875 
L 54.390625 54.6875 
z
" id="DejaVuSans-103"/>
      <path d="M -0.296875 72.90625 
L 61.375 72.90625 
L 61.375 64.59375 
L 35.5 64.59375 
L 35.5 0 
L 25.59375 0 
L 25.59375 64.59375 
L -0.296875 64.59375 
z
" id="DejaVuSans-84"/>
      <path d="M 30.609375 48.390625 
Q 23.390625 48.390625 19.1875 42.75 
Q 14.984375 37.109375 14.984375 27.296875 
Q 14.984375 17.484375 19.15625 11.84375 
Q 23.34375 6.203125 30.609375 6.203125 
Q 37.796875 6.203125 41.984375 11.859375 
Q 46.1875 17.53125 46.1875 27.296875 
Q 46.1875 37.015625 41.984375 42.703125 
Q 37.796875 48.390625 30.609375 48.390625 
z
M 30.609375 56 
Q 42.328125 56 49.015625 48.375 
Q 55.71875 40.765625 55.71875 27.296875 
Q 55.71875 13.875 49.015625 6.21875 
Q 42.328125 -1.421875 30.609375 -1.421875 
Q 18.84375 -1.421875 12.171875 6.21875 
Q 5.515625 13.875 5.515625 27.296875 
Q 5.515625 40.765625 12.171875 48.375 
Q 18.84375 56 30.609375 56 
z
" id="DejaVuSans-111"/>
      <path d="M 19.671875 64.796875 
L 19.671875 8.109375 
L 31.59375 8.109375 
Q 46.6875 8.109375 53.6875 14.9375 
Q 60.6875 21.78125 60.6875 36.53125 
Q 60.6875 51.171875 53.6875 57.984375 
Q 46.6875 64.796875 31.59375 64.796875 
z
M 9.8125 72.90625 
L 30.078125 72.90625 
Q 51.265625 72.90625 61.171875 64.09375 
Q 71.09375 55.28125 71.09375 36.53125 
Q 71.09375 17.671875 61.125 8.828125 
Q 51.171875 0 30.078125 0 
L 9.8125 0 
z
" id="DejaVuSans-68"/>
      <path d="M 18.109375 8.203125 
L 18.109375 -20.796875 
L 9.078125 -20.796875 
L 9.078125 54.6875 
L 18.109375 54.6875 
L 18.109375 46.390625 
Q 20.953125 51.265625 25.265625 53.625 
Q 29.59375 56 35.59375 56 
Q 45.5625 56 51.78125 48.09375 
Q 58.015625 40.1875 58.015625 27.296875 
Q 58.015625 14.40625 51.78125 6.484375 
Q 45.5625 -1.421875 35.59375 -1.421875 
Q 29.59375 -1.421875 25.265625 0.953125 
Q 20.953125 3.328125 18.109375 8.203125 
z
M 48.6875 27.296875 
Q 48.6875 37.203125 44.609375 42.84375 
Q 40.53125 48.484375 33.40625 48.484375 
Q 26.265625 48.484375 22.1875 42.84375 
Q 18.109375 37.203125 18.109375 27.296875 
Q 18.109375 17.390625 22.1875 11.75 
Q 26.265625 6.109375 33.40625 6.109375 
Q 40.53125 6.109375 44.609375 11.75 
Q 48.6875 17.390625 48.6875 27.296875 
z
" id="DejaVuSans-112"/>
      <path d="M 41.109375 46.296875 
Q 39.59375 47.171875 37.8125 47.578125 
Q 36.03125 48 33.890625 48 
Q 26.265625 48 22.1875 43.046875 
Q 18.109375 38.09375 18.109375 28.8125 
L 18.109375 0 
L 9.078125 0 
L 9.078125 54.6875 
L 18.109375 54.6875 
L 18.109375 46.1875 
Q 20.953125 51.171875 25.484375 53.578125 
Q 30.03125 56 36.53125 56 
Q 37.453125 56 38.578125 55.875 
Q 39.703125 55.765625 41.0625 55.515625 
z
" id="DejaVuSans-114"/>
     </defs>
     <g transform="translate(25.432812 250.250656)rotate(-90)scale(0.1 -0.1)">
      <use xlink:href="#DejaVuSans-109"/>
      <use x="97.412109" xlink:href="#DejaVuSans-101"/>
      <use x="158.935547" xlink:href="#DejaVuSans-97"/>
      <use x="220.214844" xlink:href="#DejaVuSans-110"/>
      <use x="283.59375" xlink:href="#DejaVuSans-87"/>
      <use x="376.095703" xlink:href="#DejaVuSans-97"/>
      <use x="437.375" xlink:href="#DejaVuSans-105"/>
      <use x="465.158203" xlink:href="#DejaVuSans-116"/>
      <use x="504.367188" xlink:href="#DejaVuSans-105"/>
      <use x="532.150391" xlink:href="#DejaVuSans-110"/>
      <use x="595.529297" xlink:href="#DejaVuSans-103"/>
      <use x="659.005859" xlink:href="#DejaVuSans-84"/>
      <use x="716.964844" xlink:href="#DejaVuSans-105"/>
      <use x="744.748047" xlink:href="#DejaVuSans-109"/>
      <use x="842.160156" xlink:href="#DejaVuSans-101"/>
      <use x="903.683594" xlink:href="#DejaVuSans-84"/>
      <use x="947.767578" xlink:href="#DejaVuSans-111"/>
      <use x="1008.949219" xlink:href="#DejaVuSans-68"/>
      <use x="1085.951172" xlink:href="#DejaVuSans-101"/>
      <use x="1147.474609" xlink:href="#DejaVuSans-112"/>
      <use x="1210.951172" xlink:href="#DejaVuSans-97"/>
      <use x="1272.230469" xlink:href="#DejaVuSans-114"/>
      <use x="1313.34375" xlink:href="#DejaVuSans-116"/>
      <use x="1352.552734" xlink:href="#DejaVuSans-32"/>
      <use x="1384.339844" xlink:href="#DejaVuSans-40"/>
      <use x="1423.353516" xlink:href="#DejaVuSans-115"/>
      <use x="1475.453125" xlink:href="#DejaVuSans-41"/>
     </g>
    </g>
   </g>
   <g id="line2d_13">
    <path clip-path="url(#p761b8d7a76)" d="M 73.832727 295.488 
L 73.908404 295.488 
L 74.059758 294.616216 
L 76.481424 294.674335 
L 76.708455 294.732454 
L 77.162517 294.717924 
L 77.540903 294.746984 
L 78.221996 294.776043 
L 86.092409 294.674335 
L 86.319441 294.601686 
L 104.708964 294.543568 
L 104.860318 293.584605 
L 105.163026 293.599135 
L 105.31438 293.119654 
L 105.692765 293.134184 
L 105.84412 292.233341 
L 106.752244 292.2624 
L 106.903598 291.899157 
L 112.428023 292.000865 
L 113.109116 292.029924 
L 115.001043 292.131632 
L 115.83349 292.189751 
L 119.16328 292.291459 
L 119.465989 292.305989 
L 119.69302 291.535914 
L 121.130884 291.637622 
L 121.282238 290.707719 
L 122.266039 290.765838 
L 122.417394 290.431654 
L 124.839059 290.518832 
L 125.217444 290.547892 
L 126.201246 290.63507 
L 127.185048 290.707719 
L 127.336402 290.344476 
L 128.849943 290.446184 
L 129.68239 290.504303 
L 131.347285 290.606011 
L 132.104056 290.6496 
L 132.331087 290.606011 
L 133.617597 290.693189 
L 133.768951 289.632519 
L 135.131138 289.719697 
L 135.206815 288.964151 
L 135.282492 288.978681 
L 135.5852 289.007741 
L 135.736554 288.644497 
L 136.11494 288.659027 
L 136.266294 288.310314 
L 136.720356 288.382962 
L 138.082543 288.48467 
L 138.536605 288.557319 
L 139.369053 288.600908 
L 139.44473 287.903481 
L 139.520407 287.918011 
L 139.974469 287.94707 
L 140.125823 287.714595 
L 141.336656 287.816303 
L 142.169104 287.874422 
L 143.379936 287.97613 
L 144.363738 288.063308 
L 145.877279 288.165016 
L 146.709727 288.223135 
L 147.920559 288.324843 
L 148.753007 288.382962 
L 149.131392 288.397492 
L 149.282746 288.237665 
L 150.266548 288.339373 
L 151.023318 288.382962 
L 153.747692 288.455611 
L 153.899046 288.237665 
L 155.488264 288.339373 
L 155.942327 288.397492 
L 156.320712 288.412022 
L 156.472066 288.208605 
L 157.758576 288.310314 
L 158.591024 288.368432 
L 158.742378 287.932541 
L 159.045086 287.94707 
L 159.19644 287.467589 
L 160.104565 287.554768 
L 160.255919 287.336822 
L 162.223522 287.394941 
L 162.374876 287.031697 
L 162.52623 287.046227 
L 162.677584 286.857341 
L 163.055969 286.857341 
L 163.207324 286.145384 
L 164.56951 286.247092 
L 165.401958 286.305211 
L 169.488519 286.406919 
L 169.866904 286.450508 
L 170.320966 286.479568 
L 170.47232 286.261622 
L 172.818309 286.36333 
L 173.802111 286.450508 
L 175.542683 286.552216 
L 176.450807 286.624865 
L 178.569765 286.726573 
L 178.872473 286.682984 
L 179.553566 286.697514 
L 179.704921 286.465038 
L 180.083306 286.494097 
L 180.23466 286.276151 
L 180.310337 286.290681 
L 180.537368 285.956497 
L 180.915753 285.985557 
L 181.067107 285.418897 
L 181.596847 285.477016 
L 181.672524 284.997535 
L 181.748201 285.012065 
L 181.899555 285.026595 
L 182.050909 284.852238 
L 182.504971 284.881297 
L 182.656325 284.648822 
L 184.245544 284.75053 
L 184.396898 284.765059 
L 184.548252 284.532584 
L 184.85096 284.532584 
L 185.002314 284.387286 
L 185.153668 283.312086 
L 185.305022 283.312086 
L 185.456376 282.527481 
L 187.499657 282.629189 
L 187.878042 282.658249 
L 188.029396 282.5856 
L 188.407781 282.629189 
L 188.71049 282.295005 
L 189.013198 282.236886 
L 189.240229 282.193297 
L 189.921322 282.149708 
L 190.072676 282.077059 
L 190.224031 282.077059 
L 190.299708 281.379632 
L 190.375385 281.408692 
L 190.602416 281.379632 
L 190.678093 280.682205 
L 190.75377 280.696735 
L 191.888926 280.812973 
L 192.04028 280.260843 
L 193.402467 280.231784 
L 193.553821 279.955719 
L 193.629498 279.955719 
L 193.780852 279.766832 
L 195.218716 279.868541 
L 195.899809 279.8976 
L 197.110642 279.984778 
L 197.489027 280.028368 
L 199.078245 280.115546 
L 199.532308 280.173665 
L 201.802619 280.260843 
L 202.181004 280.304432 
L 203.164806 280.406141 
L 204.451316 280.551438 
L 206.191888 280.653146 
L 206.418919 280.667676 
L 206.570273 280.231784 
L 206.721627 280.246314 
L 206.872982 280.086486 
L 206.948659 280.086486 
L 207.100013 279.955719 
L 207.17569 279.970249 
L 207.251367 278.982227 
L 207.327044 278.996757 
L 207.478398 279.011286 
L 207.629752 278.909578 
L 208.689231 279.011286 
L 209.370324 279.025816 
L 209.521678 278.662573 
L 210.278449 278.706162 
L 210.581157 278.706162 
L 210.808188 277.848908 
L 213.229854 277.848908 
L 213.381208 276.860886 
L 213.910947 276.860886 
L 214.062301 276.454054 
L 216.029905 276.454054 
L 216.181259 276.236108 
L 216.786675 276.236108 
L 216.938029 275.858335 
L 217.089383 275.858335 
L 217.392092 275.0592 
L 217.543446 275.0592 
L 217.6948 273.43187 
L 217.770477 273.43187 
L 217.921831 272.138724 
L 217.997508 272.138724 
L 218.224539 271.8336 
L 218.375893 270.598573 
L 219.662403 270.598573 
L 219.813757 270.090032 
L 221.478652 270.090032 
L 221.630006 268.825946 
L 222.613808 268.825946 
L 222.765162 268.608 
L 228.440941 268.608 
L 228.592295 268.172108 
L 230.105836 268.172108 
L 230.25719 267.678097 
L 230.332867 267.678097 
L 230.484221 267.213146 
L 236.462708 267.213146 
L 236.614062 266.559308 
L 236.765416 266.559308 
L 236.992448 265.251632 
L 237.219479 265.251632 
L 237.370833 264.525146 
L 238.73302 264.525146 
L 238.884374 263.130292 
L 238.960051 263.130292 
L 239.111405 261.880735 
L 239.792498 261.880735 
L 240.01953 258.814962 
L 240.095207 258.248303 
L 240.322238 254.775697 
L 240.700623 254.775697 
L 241.003331 252.814184 
L 241.230362 252.814184 
L 241.381716 251.564627 
L 243.046612 251.564627 
L 243.197966 250.997968 
L 243.273643 250.997968 
L 243.424997 250.227892 
L 244.030413 250.227892 
L 244.181767 248.7168 
L 244.560153 248.7168 
L 244.711507 247.205708 
L 244.862861 247.205708 
L 245.014215 246.464692 
L 245.165569 246.464692 
L 245.316923 244.982659 
L 250.0089 244.982659 
L 250.160254 243.631395 
L 252.279212 243.631395 
L 252.506243 241.103222 
L 252.884628 241.103222 
L 253.111659 238.269924 
L 253.33869 238.269924 
L 253.490045 237.587027 
L 257.046866 237.587027 
L 257.19822 235.945168 
L 257.349574 235.945168 
L 257.500928 233.315286 
L 257.727959 233.315286 
L 257.879313 231.687957 
L 261.81452 231.687957 
L 261.965874 230.031568 
L 262.571291 230.031568 
L 262.722645 228.578595 
L 263.176707 228.578595 
L 263.328061 227.76493 
L 264.38754 227.76493 
L 264.538894 226.399135 
L 264.992956 226.399135 
L 265.14431 224.946162 
L 265.371341 224.946162 
L 265.522695 223.958141 
L 266.43082 223.958141 
L 266.582174 222.243632 
L 266.960559 222.243632 
L 267.111914 221.124843 
L 267.490299 221.124843 
L 267.641653 219.889816 
L 267.793007 219.889816 
L 267.944361 218.800086 
L 268.020038 218.800086 
L 268.247069 216.838573 
L 268.398423 216.838573 
L 268.549777 215.719784 
L 269.230871 215.719784 
L 269.382225 214.32493 
L 269.911964 214.32493 
L 270.063318 212.973665 
L 270.668735 212.973665 
L 270.820089 211.215568 
L 270.971443 211.215568 
L 271.122797 209.48653 
L 279.825658 209.48653 
L 280.052689 205.360086 
L 280.27972 205.360086 
L 280.506751 201.989189 
L 280.80946 201.989189 
L 280.960814 200.623395 
L 281.036491 200.623395 
L 281.187845 199.330249 
L 282.398678 199.330249 
L 282.550032 198.19693 
L 284.668989 198.19693 
L 284.820343 196.293535 
L 285.123051 196.293535 
L 285.274406 194.94227 
L 285.501437 194.94227 
L 285.652791 193.518357 
L 286.333884 193.518357 
L 286.485238 192.385038 
L 288.679873 192.385038 
L 288.906904 189.261146 
L 289.058258 189.261146 
L 289.285289 185.425297 
L 289.890706 185.425297 
L 290.04206 184.117622 
L 290.874507 184.117622 
L 291.025861 182.853535 
L 291.555601 182.853535 
L 291.706955 181.458681 
L 293.296173 181.458681 
L 293.447527 179.526227 
L 293.825912 179.526227 
L 293.977266 177.593773 
L 294.052943 177.593773 
L 294.279975 173.9904 
L 294.809714 173.9904 
L 294.961068 172.3776 
L 295.490807 172.3776 
L 295.642161 171.040865 
L 297.307057 171.040865 
L 297.458411 169.442595 
L 298.744921 169.442595 
L 298.896275 168.105859 
L 299.728722 168.105859 
L 299.955753 164.211892 
L 300.03143 164.211892 
L 300.182784 162.787978 
L 301.31794 162.787978 
L 301.469294 161.117059 
L 301.544971 161.117059 
L 301.772003 158.036757 
L 301.923357 158.036757 
L 302.074711 156.700022 
L 302.453096 156.700022 
L 302.60445 154.680389 
L 303.134189 154.680389 
L 303.285544 152.675286 
L 303.436898 152.675286 
L 303.588252 149.217211 
L 307.145073 149.217211 
L 307.296427 147.241168 
L 307.447781 147.241168 
L 307.599135 145.250595 
L 307.674812 145.250595 
L 307.826167 143.274551 
L 307.977521 143.274551 
L 308.128875 141.313038 
L 311.685696 141.313038 
L 311.83705 139.293405 
L 311.988404 139.293405 
L 312.139758 137.302832 
L 320.615588 137.302832 
L 320.766942 135.166962 
L 321.06965 135.166962 
L 321.221004 133.060151 
L 325.231888 133.060151 
L 325.383242 130.895222 
L 329.54548 130.895222 
L 329.696834 128.686703 
L 329.848188 128.686703 
L 329.999542 126.478184 
L 330.150896 126.478184 
L 330.30225 123.630357 
L 330.377928 123.630357 
L 330.529282 120.869708 
L 330.680636 120.869708 
L 330.83199 118.123589 
L 333.102301 118.123589 
L 333.329332 113.982616 
L 333.632041 113.982616 
L 333.783395 112.224519 
L 334.16178 112.224519 
L 334.313134 109.972411 
L 334.464488 109.972411 
L 334.615842 107.749362 
L 334.767196 107.749362 
L 334.994228 103.361384 
L 335.221259 103.361384 
L 335.372613 101.210984 
L 338.853757 101.210984 
L 339.005111 99.002465 
L 339.232142 99.002465 
L 339.383497 96.823005 
L 339.459174 96.823005 
L 339.610528 94.643546 
L 339.686205 94.643546 
L 339.913236 90.342746 
L 340.06459 90.342746 
L 340.215944 88.192346 
L 340.367298 88.192346 
L 340.594329 83.949665 
L 343.39438 83.949665 
L 343.545734 81.813795 
L 343.772765 81.813795 
L 343.92412 79.706984 
L 343.999797 79.706984 
L 344.151151 77.658292 
L 352.399949 77.658292 
L 352.551303 75.507892 
L 352.702657 75.507892 
L 352.854011 73.357492 
L 357.091926 73.357492 
L 357.24328 71.163503 
L 357.394634 71.163503 
L 357.545989 68.984043 
L 361.783903 68.984043 
L 361.935257 66.731935 
L 362.162289 66.731935 
L 362.38932 62.329427 
L 365.946141 62.329427 
L 366.097495 60.106378 
L 366.400203 60.106378 
L 366.551558 57.912389 
L 366.702912 57.912389 
L 366.929943 53.568 
L 398.487273 53.568 
L 398.487273 53.568 
" style="fill:none;stroke:#1f77b4;stroke-linecap:square;stroke-width:1.5;"/>
   </g>
   <g id="line2d_14">
    <path clip-path="url(#p761b8d7a76)" d="M 73.832727 295.488 
L 73.908404 295.488 
L 74.059758 294.616216 
L 76.481424 294.674335 
L 76.708455 294.732454 
L 77.162517 294.717924 
L 77.540903 294.746984 
L 78.221996 294.776043 
L 79.584183 294.688865 
L 79.962568 294.659805 
L 82.459911 294.616216 
L 82.611265 294.514508 
L 91.616834 294.456389 
L 91.843865 294.39827 
L 92.373605 294.4128 
L 92.524959 294.180324 
L 92.676313 294.078616 
L 93.357406 294.107676 
L 104.633287 294.209384 
L 105.238703 294.223914 
L 119.314634 294.165795 
L 119.465989 293.846141 
L 125.444476 293.88973 
L 125.59583 293.250422 
L 126.579631 293.279481 
L 126.730985 292.727351 
L 127.412079 292.756411 
L 130.666192 292.8 
L 130.817546 292.320519 
L 134.677076 292.422227 
L 135.358169 292.451286 
L 138.460928 292.552995 
L 139.066345 292.567524 
L 143.909676 292.669232 
L 144.515092 292.683762 
L 155.488264 292.78547 
L 155.790973 292.8 
L 155.942327 292.596584 
L 166.38576 292.582054 
L 166.537114 292.044454 
L 166.839822 292.058984 
L 166.991176 291.913686 
L 168.883102 291.957276 
L 169.034456 291.695741 
L 169.110134 291.695741 
L 169.337165 290.809427 
L 173.348048 290.911135 
L 173.953465 290.925665 
L 177.888671 291.027373 
L 178.494088 291.041903 
L 182.580648 291.143611 
L 183.261742 291.17267 
L 183.867158 291.1872 
L 184.018512 290.809427 
L 184.245544 290.809427 
L 184.396898 290.446184 
L 185.002314 290.446184 
L 185.153668 290.068411 
L 185.986116 290.082941 
L 186.13747 289.763286 
L 188.105073 289.806876 
L 188.256427 289.516281 
L 191.056478 289.58893 
L 191.207832 289.211157 
L 192.267311 289.254746 
L 192.418665 288.746205 
L 192.570019 288.542789 
L 193.251113 288.571849 
L 193.402467 287.830832 
L 193.629498 287.845362 
L 193.780852 287.220584 
L 193.932206 287.235114 
L 194.08356 287.089816 
L 195.672778 287.147935 
L 195.824132 286.595805 
L 196.202517 286.624865 
L 196.353872 286.450508 
L 196.959288 286.479568 
L 197.110642 286.36333 
L 197.261996 285.593254 
L 197.791736 285.607784 
L 197.94309 284.837708 
L 199.456631 284.924886 
L 199.607985 284.256519 
L 199.683662 284.256519 
L 199.835016 283.907805 
L 199.910693 283.907805 
L 200.062047 283.64627 
L 200.894495 283.67533 
L 201.045849 283.006962 
L 202.635067 283.10867 
L 202.862098 281.873643 
L 203.013452 281.888173 
L 203.164806 281.52493 
L 203.240483 281.539459 
L 203.618868 280.507849 
L 203.770223 280.522378 
L 203.8459 280.217254 
L 203.921577 280.246314 
L 204.678347 280.348022 
L 204.829701 280.217254 
L 204.981055 280.217254 
L 205.132409 280.101016 
L 205.510795 280.159135 
L 205.662149 279.432649 
L 205.813503 279.432649 
L 205.964857 278.749751 
L 206.116211 278.764281 
L 206.191888 278.110443 
L 206.267565 278.124973 
L 207.629752 278.226681 
L 207.856783 278.241211 
L 208.008137 277.790789 
L 208.310846 277.805319 
L 208.4622 277.180541 
L 208.764908 277.22413 
L 208.916262 277.107892 
L 210.127095 277.151481 
L 210.278449 276.904476 
L 211.110896 276.904476 
L 211.413605 276.236108 
L 211.79199 276.236108 
L 211.943344 275.567741 
L 212.094698 275.567741 
L 212.246052 274.913903 
L 213.154177 274.913903 
L 213.305531 274.637838 
L 213.986624 274.637838 
L 214.137978 273.707935 
L 214.289332 273.707935 
L 214.440687 273.213924 
L 215.575842 273.213924 
L 215.727196 272.981449 
L 216.332613 272.89427 
L 216.483967 272.676324 
L 216.635321 271.877189 
L 217.013706 271.877189 
L 217.16506 271.513946 
L 217.392092 271.513946 
L 217.543446 271.194292 
L 217.997508 271.194292 
L 218.148862 270.337038 
L 218.300216 270.20627 
L 218.375893 270.20627 
L 218.527247 269.479784 
L 218.678601 269.479784 
L 218.905633 268.0704 
L 219.132664 268.0704 
L 219.284018 267.300324 
L 219.359695 267.300324 
L 219.511049 266.559308 
L 220.570528 266.559308 
L 220.721882 265.90547 
L 220.948913 265.90547 
L 221.100267 265.280692 
L 221.327298 265.280692 
L 221.478652 264.714032 
L 221.554329 264.714032 
L 221.705683 263.929427 
L 221.857038 263.929427 
L 222.008392 263.406357 
L 222.462454 263.406357 
L 222.689485 262.345686 
L 222.765162 262.345686 
L 222.916516 262.1568 
L 223.370579 262.1568 
L 223.521933 261.372195 
L 223.824641 261.372195 
L 223.975995 260.820065 
L 224.505734 260.820065 
L 224.657088 259.99187 
L 225.792244 259.99187 
L 225.943598 259.178205 
L 227.003077 259.178205 
L 227.154431 258.611546 
L 227.230108 258.611546 
L 227.381462 258.059416 
L 230.181513 258.059416 
L 230.332867 257.289341 
L 232.376147 257.289341 
L 232.527502 256.577384 
L 233.58698 256.577384 
L 233.738334 256.097903 
L 234.192397 256.097903 
L 234.343751 255.385946 
L 234.419428 255.385946 
L 234.570782 254.732108 
L 239.414113 254.732108 
L 239.565467 254.063741 
L 239.641144 254.063741 
L 239.792498 253.409903 
L 239.868175 253.409903 
L 240.095207 252.145816 
L 240.246561 252.145816 
L 240.397915 251.564627 
L 240.473592 251.564627 
L 240.700623 250.547546 
L 240.7763 250.547546 
L 241.003331 249.574054 
L 242.214164 249.574054 
L 242.365518 248.803978 
L 243.803382 248.803978 
L 243.954736 248.019373 
L 244.484476 248.019373 
L 244.63583 247.234768 
L 248.798067 247.234768 
L 248.949421 246.086919 
L 250.462962 246.086919 
L 250.614317 244.982659 
L 252.203535 244.982659 
L 252.430566 243.384389 
L 253.944107 243.384389 
L 254.095461 242.149362 
L 255.079263 242.149362 
L 255.457648 238.473341 
L 255.533325 238.473341 
L 255.684679 237.674205 
L 255.836033 237.674205 
L 255.987387 236.439178 
L 257.425251 236.439178 
L 257.576605 235.741751 
L 258.030668 235.741751 
L 258.182022 234.928086 
L 258.636084 234.928086 
L 258.787438 233.911005 
L 259.392854 233.911005 
L 259.619886 231.717016 
L 259.77124 231.717016 
L 259.998271 230.046097 
L 262.798322 230.046097 
L 262.949676 228.752951 
L 264.38754 228.752951 
L 264.538894 227.445276 
L 264.614571 227.445276 
L 264.917279 224.016259 
L 266.43082 224.016259 
L 266.657851 222.229103 
L 268.776809 222.229103 
L 268.928163 220.935957 
L 269.00384 220.935957 
L 269.155194 219.570162 
L 269.306548 219.570162 
L 269.457902 218.233427 
L 271.04712 218.233427 
L 271.198474 217.303524 
L 271.425505 217.303524 
L 271.57686 215.952259 
L 271.803891 215.952259 
L 271.955245 214.644584 
L 272.030922 214.644584 
L 272.182276 213.351438 
L 274.225556 213.351438 
L 274.37691 212.014703 
L 274.603942 212.014703 
L 274.755296 210.707027 
L 274.830973 210.707027 
L 274.982327 209.413881 
L 275.058004 209.413881 
L 275.209358 208.120735 
L 276.420191 208.120735 
L 276.571545 206.827589 
L 276.94993 206.827589 
L 277.101284 205.534443 
L 277.706701 205.534443 
L 277.933732 202.977211 
L 278.841856 202.977211 
L 278.99321 201.698595 
L 279.220242 201.698595 
L 279.371596 200.449038 
L 279.825658 200.449038 
L 279.977012 199.2576 
L 281.339199 199.2576 
L 281.490553 198.080692 
L 281.641907 198.080692 
L 281.793261 195.814054 
L 281.944615 195.814054 
L 282.171647 193.460238 
L 284.13925 193.460238 
L 284.290604 192.28333 
L 286.258207 192.28333 
L 286.409561 191.091892 
L 286.560915 191.091892 
L 286.71227 189.914984 
L 286.787947 189.914984 
L 286.939301 188.767135 
L 289.209612 188.767135 
L 289.360966 187.604757 
L 289.739352 187.604757 
L 289.966383 185.338119 
L 298.366535 185.338119 
L 298.593566 181.603978 
L 300.258462 181.603978 
L 300.409816 180.209124 
L 331.513083 180.209124 
L 331.664437 177.375827 
L 331.740114 177.375827 
L 331.891469 174.600649 
L 335.069905 174.600649 
L 335.221259 171.810941 
L 336.659123 171.810941 
L 336.886154 167.568259 
L 338.475372 167.568259 
L 338.626726 165.737514 
L 366.097495 165.737514 
L 366.248849 295.488 
L 398.487273 295.488 
L 398.487273 295.488 
" style="fill:none;stroke:#ff7f0e;stroke-linecap:square;stroke-width:1.5;"/>
   </g>
   <g id="line2d_15">
    <path clip-path="url(#p761b8d7a76)" d="M 73.832727 295.488 
L 73.908404 295.488 
L 74.059758 294.616216 
L 76.481424 294.674335 
L 76.708455 294.732454 
L 76.935486 294.732454 
L 77.08684 294.601686 
L 77.465226 294.630746 
L 78.978767 294.688865 
L 79.054444 294.42733 
L 79.130121 294.456389 
L 83.746421 294.558097 
L 83.973452 294.572627 
L 84.200483 294.485449 
L 93.735791 294.470919 
L 93.887146 294.136735 
L 94.568239 294.165795 
L 95.022301 294.107676 
L 95.173655 293.788022 
L 102.135944 293.802551 
L 102.211621 293.642724 
L 102.362975 292.451286 
L 102.665683 292.494876 
L 102.817038 292.364108 
L 104.103547 292.465816 
L 104.935995 292.523935 
L 105.31438 292.538465 
L 106.071151 292.582054 
L 118.40651 292.683762 
L 119.087603 292.712822 
L 124.839059 292.81453 
L 125.520153 292.843589 
L 128.849943 292.945297 
L 129.531036 292.974357 
L 134.223013 293.017946 
L 134.374367 292.596584 
L 134.450045 292.596584 
L 134.601399 292.218811 
L 135.055461 292.233341 
L 135.206815 292.058984 
L 135.887908 292.088043 
L 138.233897 292.189751 
L 138.91499 292.218811 
L 143.379936 292.320519 
L 144.06103 292.349578 
L 148.374622 292.451286 
L 148.980038 292.465816 
L 153.672015 292.567524 
L 154.353109 292.596584 
L 158.212638 292.611114 
L 158.363992 292.364108 
L 160.709981 292.305989 
L 160.861335 291.913686 
L 161.466751 291.928216 
L 161.618106 290.838486 
L 163.358678 290.809427 
L 163.661386 290.388065 
L 163.888417 290.417124 
L 164.039771 290.010292 
L 164.720865 290.039351 
L 165.85602 290.082941 
L 166.007374 289.617989 
L 166.461437 289.530811 
L 166.612791 288.528259 
L 167.520915 288.586378 
L 167.67227 288.412022 
L 167.974978 288.441081 
L 168.126332 288.353903 
L 169.791227 288.441081 
L 169.942581 287.990659 
L 170.093935 288.005189 
L 170.245289 287.569297 
L 170.320966 287.583827 
L 170.396643 286.624865 
L 170.47232 286.639395 
L 170.547997 286.639395 
L 170.699352 286.261622 
L 174.104819 286.33427 
L 174.256173 285.898378 
L 174.558881 285.927438 
L 174.710235 285.549665 
L 174.861589 285.549665 
L 175.012943 285.171892 
L 175.239975 285.142832 
L 175.694037 285.171892 
L 175.845391 284.241989 
L 176.148099 284.285578 
L 176.299453 283.181319 
L 176.980547 283.239438 
L 177.131901 283.065081 
L 178.342734 283.195849 
L 178.494088 283.195849 
L 178.645442 282.774486 
L 179.023827 282.818076 
L 179.175181 282.454832 
L 179.326535 282.425773 
L 179.477889 282.091589 
L 180.764399 282.178768 
L 181.294139 282.265946 
L 182.883357 282.251416 
L 183.110388 281.568519 
L 183.261742 281.597578 
L 183.337419 280.842032 
L 183.413096 280.856562 
L 183.488773 280.565968 
L 183.56445 280.595027 
L 184.926637 280.696735 
L 185.834762 280.769384 
L 186.288824 280.812973 
L 186.440178 280.231784 
L 187.045594 280.159135 
L 187.196949 279.824951 
L 187.348303 279.824951 
L 187.499657 279.534357 
L 187.651011 279.548886 
L 187.802365 279.301881 
L 188.559135 279.403589 
L 188.71049 278.735222 
L 189.769968 278.8224 
L 189.921322 278.473686 
L 191.283509 278.430097 
L 191.434863 277.7472 
L 191.51054 277.776259 
L 191.661894 277.456605 
L 191.813249 277.471135 
L 191.964603 277.22413 
L 192.04028 277.22413 
L 192.267311 276.817297 
L 192.494342 276.846357 
L 192.721373 276.584822 
L 192.948404 276.410465 
L 193.099758 276.439524 
L 193.251113 275.785686 
L 194.234914 275.785686 
L 194.386268 275.524151 
L 195.521424 275.61133 
L 195.597101 275.189968 
L 195.672778 275.204497 
L 197.640381 275.131849 
L 197.791736 274.841254 
L 198.472829 274.913903 
L 198.624183 274.725016 
L 199.078245 274.768605 
L 199.229599 273.809643 
L 199.380954 273.4464 
L 199.456631 273.46093 
L 199.607985 272.182314 
L 200.74314 272.284022 
L 201.197203 272.269492 
L 202.02965 272.35667 
L 202.55939 272.443849 
L 204.526993 272.763503 
L 204.678347 272.676324 
L 205.964857 272.821622 
L 206.948659 272.9088 
L 207.478398 272.995978 
L 209.748709 273.330162 
L 211.413605 273.242984 
L 211.564959 273.155805 
L 212.094698 273.155805 
L 212.246052 272.763503 
L 212.700114 272.763503 
L 212.851469 272.429319 
L 213.381208 272.429319 
L 213.532562 272.124195 
L 215.046103 272.124195 
L 215.197457 271.572065 
L 215.727196 271.572065 
L 215.878551 271.426768 
L 218.375893 271.426768 
L 218.527247 271.296 
L 222.689485 271.296 
L 222.840839 269.828497 
L 222.992193 269.537903 
L 223.294901 269.537903 
L 223.446256 268.08493 
L 227.230108 268.08493 
L 227.381462 267.692627 
L 232.603179 267.692627 
L 232.754533 267.285795 
L 241.533071 267.285795 
L 241.684425 266.428541 
L 241.911456 266.428541 
L 242.06281 264.743092 
L 245.619631 264.743092 
L 245.770985 263.842249 
L 246.452079 263.842249 
L 246.603433 262.970465 
L 246.830464 262.970465 
L 246.981818 262.098681 
L 247.133172 262.098681 
L 247.284526 261.241427 
L 247.511558 261.241427 
L 247.662912 260.413232 
L 247.814266 260.413232 
L 247.96562 259.643157 
L 248.041297 259.643157 
L 248.192651 259.032908 
L 250.53864 259.032908 
L 250.689994 258.146595 
L 250.765671 258.146595 
L 250.917025 257.289341 
L 250.992702 257.289341 
L 251.219733 255.807308 
L 252.203535 255.807308 
L 252.354889 254.920995 
L 253.111659 254.920995 
L 253.263013 253.133838 
L 257.046866 253.133838 
L 257.19822 250.663784 
L 257.273897 250.663784 
L 257.500928 246.435632 
L 257.652282 246.435632 
L 257.803636 244.677535 
L 258.560407 244.677535 
L 258.711761 242.730551 
L 259.014469 242.730551 
L 259.2415 239.214357 
L 259.468531 239.214357 
L 259.695563 236.439178 
L 259.922594 236.439178 
L 260.073948 235.363978 
L 260.149625 235.363978 
L 260.300979 234.375957 
L 260.603687 234.375957 
L 260.755041 232.443503 
L 260.906395 231.629838 
L 262.344259 231.629838 
L 262.495613 230.685405 
L 262.873999 230.685405 
L 263.025353 229.813622 
L 263.782123 229.813622 
L 263.933477 227.910227 
L 264.009154 227.910227 
L 264.160509 226.035892 
L 264.236186 226.035892 
L 264.463217 223.754724 
L 264.614571 223.754724 
L 264.765925 222.92653 
L 265.068633 222.92653 
L 265.219987 220.587243 
L 265.67405 220.587243 
L 265.825404 219.729989 
L 273.998525 219.729989 
L 274.149879 217.332584 
L 274.982327 217.332584 
L 275.209358 213.395027 
L 275.436389 213.395027 
L 275.587743 211.433514 
L 278.312117 211.433514 
L 278.463471 209.181405 
L 287.393363 209.181405 
L 287.544717 207.161773 
L 288.528519 207.161773 
L 288.831227 203.819935 
L 288.982581 203.819935 
L 289.133935 201.727654 
L 289.285289 201.727654 
L 289.436643 199.649903 
L 292.766434 199.649903 
L 292.917788 197.543092 
L 293.144819 197.543092 
L 293.296173 195.450811 
L 293.447527 195.450811 
L 293.674558 191.309838 
L 294.961068 191.309838 
L 295.112422 189.232086 
L 297.307057 189.232086 
L 297.458411 187.125276 
L 297.609765 187.125276 
L 297.761119 185.062054 
L 297.912473 185.062054 
L 298.139504 180.950141 
L 298.290858 180.950141 
L 298.517889 176.910876 
L 298.669243 176.910876 
L 298.820598 174.920303 
L 298.971952 174.920303 
L 299.123306 172.944259 
L 299.198983 172.944259 
L 299.350337 170.968216 
L 301.923357 170.968216 
L 302.074711 168.963114 
L 302.528773 168.963114 
L 302.680127 166.958011 
L 302.907158 166.958011 
L 303.058512 164.967438 
L 304.345022 164.967438 
L 304.496376 163.020454 
L 306.388303 163.020454 
L 306.539657 161.044411 
L 306.691011 161.044411 
L 306.842365 159.082897 
L 306.993719 159.082897 
L 307.145073 157.135914 
L 308.658614 157.135914 
L 308.809968 155.15987 
L 308.961322 155.15987 
L 309.112676 153.198357 
L 311.004603 153.198357 
L 311.155957 151.222314 
L 311.458665 151.222314 
L 311.610019 149.24627 
L 311.685696 149.24627 
L 311.83705 147.299286 
L 313.426268 147.299286 
L 313.577622 145.323243 
L 313.804654 145.323243 
L 313.956008 143.3472 
L 317.210121 143.3472 
L 317.361475 141.342097 
L 317.512829 141.342097 
L 317.664183 139.336995 
L 317.815537 139.336995 
L 318.042568 135.428497 
L 318.193922 135.428497 
L 318.345277 133.496043 
L 320.237203 133.496043 
L 320.464234 129.631135 
L 320.615588 129.631135 
L 320.766942 127.713211 
L 320.842619 127.713211 
L 320.993973 125.809816 
L 322.280483 125.809816 
L 322.431837 123.891892 
L 322.658868 123.891892 
L 322.810223 121.988497 
L 324.702149 121.988497 
L 324.853503 120.070573 
L 325.004857 120.070573 
L 325.156211 118.167178 
L 325.231888 118.167178 
L 325.383242 116.263784 
L 325.610273 116.263784 
L 325.837305 112.602292 
L 326.821106 112.602292 
L 326.97246 110.815135 
L 327.199491 110.815135 
L 327.350846 109.013449 
L 327.426523 109.013449 
L 327.577877 107.240822 
L 329.318449 107.240822 
L 329.469803 105.439135 
L 329.696834 105.439135 
L 329.848188 103.651978 
L 331.664437 103.651978 
L 331.815791 101.864822 
L 333.632041 101.864822 
L 333.783395 100.077665 
L 334.16178 100.077665 
L 334.313134 98.290508 
L 334.540165 98.290508 
L 334.691519 96.532411 
L 335.750998 96.532411 
L 335.978029 93.059805 
L 367.308328 93.059805 
L 367.459682 295.488 
L 398.487273 295.488 
L 398.487273 295.488 
" style="fill:none;stroke:#2ca02c;stroke-linecap:square;stroke-width:1.5;"/>
   </g>
   <g id="line2d_16">
    <path clip-path="url(#p761b8d7a76)" d="M 73.832727 295.488 
L 73.908404 295.488 
L 74.059758 294.616216 
L 76.481424 294.674335 
L 76.708455 294.732454 
L 83.973452 294.659805 
L 84.200483 294.587157 
L 87.303242 294.529038 
L 87.378919 294.282032 
L 87.454596 294.311092 
L 92.600636 294.369211 
L 92.75199 294.136735 
L 93.130375 294.165795 
L 93.281729 293.962378 
L 97.898029 293.8752 
L 98.276414 293.846141 
L 98.427769 293.32307 
L 101.000788 293.410249 
L 101.303497 293.439308 
L 101.530528 293.410249 
L 104.481933 293.511957 
L 105.238703 293.555546 
L 110.990159 293.657254 
L 111.671252 293.686314 
L 112.125315 293.657254 
L 112.276669 293.497427 
L 124.157966 293.599135 
L 124.763382 293.613665 
L 132.936503 293.642724 
L 133.087858 293.119654 
L 138.233897 293.221362 
L 138.460928 293.235892 
L 138.612282 292.988886 
L 139.142022 292.887178 
L 139.747438 292.872649 
L 143.077228 292.8 
L 143.228582 292.698292 
L 143.455613 292.640173 
L 143.531291 292.640173 
L 143.682645 292.494876 
L 144.288061 292.509405 
L 147.012435 292.422227 
L 147.163789 292.291459 
L 147.466497 292.189751 
L 147.769205 291.957276 
L 147.920559 291.884627 
L 148.147591 291.841038 
L 151.931443 291.73933 
L 152.082797 291.608562 
L 152.158474 291.608562 
L 152.309828 291.506854 
L 155.86665 291.463265 
L 156.018004 291.347027 
L 156.320712 291.288908 
L 156.472066 291.230789 
L 159.574825 291.332497 
L 159.95321 291.347027 
L 160.180242 291.17267 
L 162.223522 291.143611 
L 162.374876 290.911135 
L 162.904615 290.911135 
L 164.56951 290.853016 
L 164.796542 290.780368 
L 168.353363 290.882076 
L 169.034456 290.911135 
L 171.75883 290.983784 
L 171.910184 290.736778 
L 173.726434 290.809427 
L 173.877788 290.576951 
L 176.677839 290.678659 
L 177.283255 290.693189 
L 177.358932 290.693189 
L 177.510286 290.446184 
L 177.66164 290.446184 
L 177.812994 290.228238 
L 177.964348 290.242768 
L 178.115702 290.053881 
L 181.672524 290.155589 
L 181.899555 290.170119 
L 182.050909 289.937643 
L 182.202263 289.937643 
L 182.504971 289.472692 
L 182.656325 289.472692 
L 182.80768 289.283805 
L 182.959034 289.211157 
L 183.261742 288.920562 
L 191.813249 288.920562 
L 191.964603 288.688086 
L 192.191634 288.644497 
L 203.618868 288.746205 
L 204.375639 288.789795 
L 207.629752 288.891503 
L 208.310846 288.920562 
L 211.035219 288.833384 
L 211.186573 288.673557 
L 215.727196 288.673557 
L 215.878551 288.324843 
L 216.105582 288.324843 
L 216.256936 287.874422 
L 216.559644 287.874422 
L 216.710998 287.671005 
L 217.089383 287.671005 
L 217.240737 287.43853 
L 218.527247 287.43853 
L 218.678601 287.031697 
L 218.905633 287.031697 
L 219.056987 286.813751 
L 219.511049 286.813751 
L 219.662403 286.465038 
L 226.700369 286.465038 
L 226.851723 286.058205 
L 236.916771 286.058205 
L 237.068125 285.549665 
L 240.01953 285.549665 
L 240.170884 285.070184 
L 242.743903 285.070184 
L 242.895257 284.401816 
L 243.046612 284.401816 
L 243.273643 283.050551 
L 243.424997 283.050551 
L 243.652028 281.452281 
L 245.089892 281.452281 
L 245.241246 280.783914 
L 246.376402 280.783914 
L 246.527756 280.101016 
L 246.67911 280.101016 
L 246.906141 278.793341 
L 246.981818 278.793341 
L 247.133172 278.168562 
L 247.511558 278.168562 
L 247.662912 277.529254 
L 250.53864 277.529254 
L 250.689994 276.875416 
L 251.068379 276.875416 
L 251.29541 275.625859 
L 251.371087 275.625859 
L 251.522441 274.972022 
L 254.171138 274.972022 
L 254.322492 274.187416 
L 270.971443 274.187416 
L 271.122797 272.182314 
L 271.274151 272.182314 
L 271.425505 270.23533 
L 273.847171 270.23533 
L 273.998525 268.273816 
L 274.074202 268.273816 
L 274.301233 265.760173 
L 277.858055 265.760173 
L 278.009409 264.743092 
L 294.65836 264.743092 
L 294.809714 295.488 
L 398.487273 295.488 
L 398.487273 295.488 
" style="fill:none;stroke:#d62728;stroke-linecap:square;stroke-width:1.5;"/>
   </g>
   <g id="line2d_17">
    <path clip-path="url(#p761b8d7a76)" d="M 73.832727 295.488 
L 73.908404 295.488 
L 74.059758 294.616216 
L 78.297673 294.717924 
L 78.449027 294.746984 
L 78.676058 294.659805 
L 88.89246 294.572627 
L 89.119491 294.529038 
L 95.854749 294.499978 
L 96.006103 293.991438 
L 97.898029 293.947849 
L 97.973706 293.410249 
L 98.049383 293.424778 
L 98.427769 293.453838 
L 110.082034 293.555546 
L 110.763128 293.584605 
L 115.379428 293.686314 
L 115.757813 293.700843 
L 115.909167 292.974357 
L 116.514584 292.988886 
L 116.665938 292.829059 
L 118.709218 292.901708 
L 118.784895 292.465816 
L 118.860572 292.480346 
L 119.314634 292.494876 
L 119.465989 292.160692 
L 119.617343 292.175222 
L 119.768697 292.000865 
L 120.601144 292.058984 
L 121.584946 292.102573 
L 121.7363 291.928216 
L 122.417394 291.957276 
L 125.217444 292.058984 
L 125.368798 291.753859 
L 127.336402 291.855568 
L 128.017495 291.884627 
L 130.363484 291.986335 
L 131.120254 292.029924 
L 131.422962 292.015395 
L 133.920305 292.117103 
L 134.601399 292.146162 
L 135.055461 292.146162 
L 135.206815 291.928216 
L 137.931189 292.029924 
L 138.612282 292.073514 
L 138.91499 292.058984 
L 142.244781 292.160692 
L 142.925874 292.189751 
L 146.028633 292.291459 
L 146.709727 292.320519 
L 156.62342 292.422227 
L 157.228837 292.436757 
L 163.358678 292.465816 
L 163.510032 292.102573 
L 166.537114 292.015395 
L 166.688468 291.870097 
L 170.850706 291.782919 
L 171.077737 291.73933 
L 176.072422 291.841038 
L 176.526484 291.855568 
L 176.90487 291.826508 
L 182.353617 291.753859 
L 182.504971 291.623092 
L 182.959034 291.623092 
L 183.110388 291.492324 
L 183.186065 291.492324 
L 183.413096 291.230789 
L 183.56445 291.245319 
L 183.791481 290.998314 
L 183.942835 291.012843 
L 184.169866 290.896605 
L 188.332104 290.867546 
L 188.483458 290.780368 
L 188.71049 290.707719 
L 188.937521 290.591481 
L 190.451062 290.533362 
L 190.678093 290.460714 
L 194.916008 290.562422 
L 195.067362 290.489773 
L 199.759339 290.388065 
L 199.98637 290.315416 
L 208.008137 290.228238 
L 208.159491 290.112 
L 213.154177 290.024822 
L 213.305531 289.864995 
L 213.381208 289.864995 
L 213.532562 289.734227 
L 217.089383 289.734227 
L 217.240737 289.5744 
L 217.392092 288.920562 
L 217.846154 288.920562 
L 217.997508 288.760735 
L 218.073185 288.760735 
L 218.224539 288.629968 
L 218.527247 288.629968 
L 218.678601 286.87187 
L 219.511049 286.87187 
L 219.662403 286.276151 
L 221.554329 286.276151 
L 221.705683 286.000086 
L 222.992193 286.000086 
L 223.143547 285.462486 
L 223.294901 285.462486 
L 223.446256 284.053103 
L 223.900318 284.053103 
L 224.051672 283.515503 
L 224.732765 283.515503 
L 224.88412 282.818076 
L 225.262505 282.818076 
L 225.413859 282.295005 
L 227.532816 282.295005 
L 227.68417 281.757405 
L 227.911202 281.757405 
L 228.062556 281.219805 
L 228.21391 281.219805 
L 228.365264 280.507849 
L 230.030159 280.507849 
L 230.181513 280.086486 
L 232.224793 280.086486 
L 232.376147 279.505297 
L 232.603179 279.505297 
L 232.754533 278.967697 
L 233.359949 278.967697 
L 233.511303 278.459157 
L 233.58698 278.459157 
L 233.738334 278.052324 
L 239.414113 278.052324 
L 239.565467 276.439524 
L 244.257444 276.439524 
L 244.408798 274.797665 
L 244.862861 274.797665 
L 245.089892 271.84813 
L 245.316923 271.84813 
L 245.543954 269.596022 
L 245.998017 269.596022 
L 246.149371 268.767827 
L 246.300725 268.767827 
L 246.452079 267.997751 
L 247.662912 267.997751 
L 247.814266 267.402032 
L 248.041297 267.402032 
L 248.192651 265.803762 
L 248.268328 265.803762 
L 248.419682 264.234551 
L 249.781869 264.234551 
L 250.0089 262.447395 
L 250.235931 262.447395 
L 250.387285 261.837146 
L 268.701132 261.837146 
L 268.852486 295.488 
L 398.487273 295.488 
L 398.487273 295.488 
" style="fill:none;stroke:#9467bd;stroke-linecap:square;stroke-width:1.5;"/>
   </g>
   <g id="patch_3">
    <path d="M 57.6 307.584 
L 57.6 41.472 
" style="fill:none;stroke:#000000;stroke-linecap:square;stroke-linejoin:miter;stroke-width:0.8;"/>
   </g>
   <g id="patch_4">
    <path d="M 414.72 307.584 
L 414.72 41.472 
" style="fill:none;stroke:#000000;stroke-linecap:square;stroke-linejoin:miter;stroke-width:0.8;"/>
   </g>
   <g id="patch_5">
    <path d="M 57.6 307.584 
L 414.72 307.584 
" style="fill:none;stroke:#000000;stroke-linecap:square;stroke-linejoin:miter;stroke-width:0.8;"/>
   </g>
   <g id="patch_6">
    <path d="M 57.6 41.472 
L 414.72 41.472 
" style="fill:none;stroke:#000000;stroke-linecap:square;stroke-linejoin:miter;stroke-width:0.8;"/>
   </g>
   <g id="text_15">
    <!-- San Diego Network: meanWaitingTimeToDepart summary -->
    <defs>
     <path d="M 53.515625 70.515625 
L 53.515625 60.890625 
Q 47.90625 63.578125 42.921875 64.890625 
Q 37.9375 66.21875 33.296875 66.21875 
Q 25.25 66.21875 20.875 63.09375 
Q 16.5 59.96875 16.5 54.203125 
Q 16.5 49.359375 19.40625 46.890625 
Q 22.3125 44.4375 30.421875 42.921875 
L 36.375 41.703125 
Q 47.40625 39.59375 52.65625 34.296875 
Q 57.90625 29 57.90625 20.125 
Q 57.90625 9.515625 50.796875 4.046875 
Q 43.703125 -1.421875 29.984375 -1.421875 
Q 24.8125 -1.421875 18.96875 -0.25 
Q 13.140625 0.921875 6.890625 3.21875 
L 6.890625 13.375 
Q 12.890625 10.015625 18.65625 8.296875 
Q 24.421875 6.59375 29.984375 6.59375 
Q 38.421875 6.59375 43.015625 9.90625 
Q 47.609375 13.234375 47.609375 19.390625 
Q 47.609375 24.75 44.3125 27.78125 
Q 41.015625 30.8125 33.5 32.328125 
L 27.484375 33.5 
Q 16.453125 35.6875 11.515625 40.375 
Q 6.59375 45.0625 6.59375 53.421875 
Q 6.59375 63.09375 13.40625 68.65625 
Q 20.21875 74.21875 32.171875 74.21875 
Q 37.3125 74.21875 42.625 73.28125 
Q 47.953125 72.359375 53.515625 70.515625 
z
" id="DejaVuSans-83"/>
     <path d="M 9.8125 72.90625 
L 23.09375 72.90625 
L 55.421875 11.921875 
L 55.421875 72.90625 
L 64.984375 72.90625 
L 64.984375 0 
L 51.703125 0 
L 19.390625 60.984375 
L 19.390625 0 
L 9.8125 0 
z
" id="DejaVuSans-78"/>
     <path d="M 4.203125 54.6875 
L 13.1875 54.6875 
L 24.421875 12.015625 
L 35.59375 54.6875 
L 46.1875 54.6875 
L 57.421875 12.015625 
L 68.609375 54.6875 
L 77.59375 54.6875 
L 63.28125 0 
L 52.6875 0 
L 40.921875 44.828125 
L 29.109375 0 
L 18.5 0 
z
" id="DejaVuSans-119"/>
     <path d="M 9.078125 75.984375 
L 18.109375 75.984375 
L 18.109375 31.109375 
L 44.921875 54.6875 
L 56.390625 54.6875 
L 27.390625 29.109375 
L 57.625 0 
L 45.90625 0 
L 18.109375 26.703125 
L 18.109375 0 
L 9.078125 0 
z
" id="DejaVuSans-107"/>
     <path d="M 11.71875 12.40625 
L 22.015625 12.40625 
L 22.015625 0 
L 11.71875 0 
z
M 11.71875 51.703125 
L 22.015625 51.703125 
L 22.015625 39.3125 
L 11.71875 39.3125 
z
" id="DejaVuSans-58"/>
     <path d="M 8.5 21.578125 
L 8.5 54.6875 
L 17.484375 54.6875 
L 17.484375 21.921875 
Q 17.484375 14.15625 20.5 10.265625 
Q 23.53125 6.390625 29.59375 6.390625 
Q 36.859375 6.390625 41.078125 11.03125 
Q 45.3125 15.671875 45.3125 23.6875 
L 45.3125 54.6875 
L 54.296875 54.6875 
L 54.296875 0 
L 45.3125 0 
L 45.3125 8.40625 
Q 42.046875 3.421875 37.71875 1 
Q 33.40625 -1.421875 27.6875 -1.421875 
Q 18.265625 -1.421875 13.375 4.4375 
Q 8.5 10.296875 8.5 21.578125 
z
M 31.109375 56 
z
" id="DejaVuSans-117"/>
     <path d="M 32.171875 -5.078125 
Q 28.375 -14.84375 24.75 -17.8125 
Q 21.140625 -20.796875 15.09375 -20.796875 
L 7.90625 -20.796875 
L 7.90625 -13.28125 
L 13.1875 -13.28125 
Q 16.890625 -13.28125 18.9375 -11.515625 
Q 21 -9.765625 23.484375 -3.21875 
L 25.09375 0.875 
L 2.984375 54.6875 
L 12.5 54.6875 
L 29.59375 11.921875 
L 46.6875 54.6875 
L 56.203125 54.6875 
z
" id="DejaVuSans-121"/>
    </defs>
    <g transform="translate(63.2475 35.472)scale(0.12 -0.12)">
     <use xlink:href="#DejaVuSans-83"/>
     <use x="63.476562" xlink:href="#DejaVuSans-97"/>
     <use x="124.755859" xlink:href="#DejaVuSans-110"/>
     <use x="188.134766" xlink:href="#DejaVuSans-32"/>
     <use x="219.921875" xlink:href="#DejaVuSans-68"/>
     <use x="296.923828" xlink:href="#DejaVuSans-105"/>
     <use x="324.707031" xlink:href="#DejaVuSans-101"/>
     <use x="386.230469" xlink:href="#DejaVuSans-103"/>
     <use x="449.707031" xlink:href="#DejaVuSans-111"/>
     <use x="510.888672" xlink:href="#DejaVuSans-32"/>
     <use x="542.675781" xlink:href="#DejaVuSans-78"/>
     <use x="617.480469" xlink:href="#DejaVuSans-101"/>
     <use x="679.003906" xlink:href="#DejaVuSans-116"/>
     <use x="718.212891" xlink:href="#DejaVuSans-119"/>
     <use x="800" xlink:href="#DejaVuSans-111"/>
     <use x="861.181641" xlink:href="#DejaVuSans-114"/>
     <use x="902.294922" xlink:href="#DejaVuSans-107"/>
     <use x="960.205078" xlink:href="#DejaVuSans-58"/>
     <use x="993.896484" xlink:href="#DejaVuSans-32"/>
     <use x="1025.683594" xlink:href="#DejaVuSans-109"/>
     <use x="1123.095703" xlink:href="#DejaVuSans-101"/>
     <use x="1184.619141" xlink:href="#DejaVuSans-97"/>
     <use x="1245.898438" xlink:href="#DejaVuSans-110"/>
     <use x="1309.277344" xlink:href="#DejaVuSans-87"/>
     <use x="1401.779297" xlink:href="#DejaVuSans-97"/>
     <use x="1463.058594" xlink:href="#DejaVuSans-105"/>
     <use x="1490.841797" xlink:href="#DejaVuSans-116"/>
     <use x="1530.050781" xlink:href="#DejaVuSans-105"/>
     <use x="1557.833984" xlink:href="#DejaVuSans-110"/>
     <use x="1621.212891" xlink:href="#DejaVuSans-103"/>
     <use x="1684.689453" xlink:href="#DejaVuSans-84"/>
     <use x="1742.648438" xlink:href="#DejaVuSans-105"/>
     <use x="1770.431641" xlink:href="#DejaVuSans-109"/>
     <use x="1867.84375" xlink:href="#DejaVuSans-101"/>
     <use x="1929.367188" xlink:href="#DejaVuSans-84"/>
     <use x="1973.451172" xlink:href="#DejaVuSans-111"/>
     <use x="2034.632812" xlink:href="#DejaVuSans-68"/>
     <use x="2111.634766" xlink:href="#DejaVuSans-101"/>
     <use x="2173.158203" xlink:href="#DejaVuSans-112"/>
     <use x="2236.634766" xlink:href="#DejaVuSans-97"/>
     <use x="2297.914062" xlink:href="#DejaVuSans-114"/>
     <use x="2339.027344" xlink:href="#DejaVuSans-116"/>
     <use x="2378.236328" xlink:href="#DejaVuSans-32"/>
     <use x="2410.023438" xlink:href="#DejaVuSans-115"/>
     <use x="2462.123047" xlink:href="#DejaVuSans-117"/>
     <use x="2525.501953" xlink:href="#DejaVuSans-109"/>
     <use x="2622.914062" xlink:href="#DejaVuSans-109"/>
     <use x="2720.326172" xlink:href="#DejaVuSans-97"/>
     <use x="2781.605469" xlink:href="#DejaVuSans-114"/>
     <use x="2822.71875" xlink:href="#DejaVuSans-121"/>
    </g>
   </g>
   <g id="legend_1">
    <g id="patch_7">
     <path d="M 64.6 123.418875 
L 140.376563 123.418875 
Q 142.376563 123.418875 142.376563 121.418875 
L 142.376563 48.472 
Q 142.376563 46.472 140.376563 46.472 
L 64.6 46.472 
Q 62.6 46.472 62.6 48.472 
L 62.6 121.418875 
Q 62.6 123.418875 64.6 123.418875 
z
" style="fill:#ffffff;opacity:0.8;stroke:#cccccc;stroke-linejoin:miter;"/>
    </g>
    <g id="line2d_18">
     <path d="M 66.6 54.570438 
L 86.6 54.570438 
" style="fill:none;stroke:#1f77b4;stroke-linecap:square;stroke-width:1.5;"/>
    </g>
    <g id="line2d_19"/>
    <g id="text_16">
     <!-- timed -->
     <defs>
      <path d="M 45.40625 46.390625 
L 45.40625 75.984375 
L 54.390625 75.984375 
L 54.390625 0 
L 45.40625 0 
L 45.40625 8.203125 
Q 42.578125 3.328125 38.25 0.953125 
Q 33.9375 -1.421875 27.875 -1.421875 
Q 17.96875 -1.421875 11.734375 6.484375 
Q 5.515625 14.40625 5.515625 27.296875 
Q 5.515625 40.1875 11.734375 48.09375 
Q 17.96875 56 27.875 56 
Q 33.9375 56 38.25 53.625 
Q 42.578125 51.265625 45.40625 46.390625 
z
M 14.796875 27.296875 
Q 14.796875 17.390625 18.875 11.75 
Q 22.953125 6.109375 30.078125 6.109375 
Q 37.203125 6.109375 41.296875 11.75 
Q 45.40625 17.390625 45.40625 27.296875 
Q 45.40625 37.203125 41.296875 42.84375 
Q 37.203125 48.484375 30.078125 48.484375 
Q 22.953125 48.484375 18.875 42.84375 
Q 14.796875 37.203125 14.796875 27.296875 
z
" id="DejaVuSans-100"/>
     </defs>
     <g transform="translate(94.6 58.070438)scale(0.1 -0.1)">
      <use xlink:href="#DejaVuSans-116"/>
      <use x="39.208984" xlink:href="#DejaVuSans-105"/>
      <use x="66.992188" xlink:href="#DejaVuSans-109"/>
      <use x="164.404297" xlink:href="#DejaVuSans-101"/>
      <use x="225.927734" xlink:href="#DejaVuSans-100"/>
     </g>
    </g>
    <g id="line2d_20">
     <path d="M 66.6 69.248563 
L 86.6 69.248563 
" style="fill:none;stroke:#ff7f0e;stroke-linecap:square;stroke-width:1.5;"/>
    </g>
    <g id="line2d_21"/>
    <g id="text_17">
     <!-- webster -->
     <defs>
      <path d="M 48.6875 27.296875 
Q 48.6875 37.203125 44.609375 42.84375 
Q 40.53125 48.484375 33.40625 48.484375 
Q 26.265625 48.484375 22.1875 42.84375 
Q 18.109375 37.203125 18.109375 27.296875 
Q 18.109375 17.390625 22.1875 11.75 
Q 26.265625 6.109375 33.40625 6.109375 
Q 40.53125 6.109375 44.609375 11.75 
Q 48.6875 17.390625 48.6875 27.296875 
z
M 18.109375 46.390625 
Q 20.953125 51.265625 25.265625 53.625 
Q 29.59375 56 35.59375 56 
Q 45.5625 56 51.78125 48.09375 
Q 58.015625 40.1875 58.015625 27.296875 
Q 58.015625 14.40625 51.78125 6.484375 
Q 45.5625 -1.421875 35.59375 -1.421875 
Q 29.59375 -1.421875 25.265625 0.953125 
Q 20.953125 3.328125 18.109375 8.203125 
L 18.109375 0 
L 9.078125 0 
L 9.078125 75.984375 
L 18.109375 75.984375 
z
" id="DejaVuSans-98"/>
     </defs>
     <g transform="translate(94.6 72.748563)scale(0.1 -0.1)">
      <use xlink:href="#DejaVuSans-119"/>
      <use x="81.787109" xlink:href="#DejaVuSans-101"/>
      <use x="143.310547" xlink:href="#DejaVuSans-98"/>
      <use x="206.787109" xlink:href="#DejaVuSans-115"/>
      <use x="258.886719" xlink:href="#DejaVuSans-116"/>
      <use x="298.095703" xlink:href="#DejaVuSans-101"/>
      <use x="359.619141" xlink:href="#DejaVuSans-114"/>
     </g>
    </g>
    <g id="line2d_22">
     <path d="M 66.6 83.926688 
L 86.6 83.926688 
" style="fill:none;stroke:#2ca02c;stroke-linecap:square;stroke-width:1.5;"/>
    </g>
    <g id="line2d_23"/>
    <g id="text_18">
     <!-- coord -->
     <defs>
      <path d="M 48.78125 52.59375 
L 48.78125 44.1875 
Q 44.96875 46.296875 41.140625 47.34375 
Q 37.3125 48.390625 33.40625 48.390625 
Q 24.65625 48.390625 19.8125 42.84375 
Q 14.984375 37.3125 14.984375 27.296875 
Q 14.984375 17.28125 19.8125 11.734375 
Q 24.65625 6.203125 33.40625 6.203125 
Q 37.3125 6.203125 41.140625 7.25 
Q 44.96875 8.296875 48.78125 10.40625 
L 48.78125 2.09375 
Q 45.015625 0.34375 40.984375 -0.53125 
Q 36.96875 -1.421875 32.421875 -1.421875 
Q 20.0625 -1.421875 12.78125 6.34375 
Q 5.515625 14.109375 5.515625 27.296875 
Q 5.515625 40.671875 12.859375 48.328125 
Q 20.21875 56 33.015625 56 
Q 37.15625 56 41.109375 55.140625 
Q 45.0625 54.296875 48.78125 52.59375 
z
" id="DejaVuSans-99"/>
     </defs>
     <g transform="translate(94.6 87.426688)scale(0.1 -0.1)">
      <use xlink:href="#DejaVuSans-99"/>
      <use x="54.980469" xlink:href="#DejaVuSans-111"/>
      <use x="116.162109" xlink:href="#DejaVuSans-111"/>
      <use x="177.34375" xlink:href="#DejaVuSans-114"/>
      <use x="216.707031" xlink:href="#DejaVuSans-100"/>
     </g>
    </g>
    <g id="line2d_24">
     <path d="M 66.6 98.604813 
L 86.6 98.604813 
" style="fill:none;stroke:#d62728;stroke-linecap:square;stroke-width:1.5;"/>
    </g>
    <g id="line2d_25"/>
    <g id="text_19">
     <!-- collab_pi -->
     <defs>
      <path d="M 9.421875 75.984375 
L 18.40625 75.984375 
L 18.40625 0 
L 9.421875 0 
z
" id="DejaVuSans-108"/>
      <path d="M 50.984375 -16.609375 
L 50.984375 -23.578125 
L -0.984375 -23.578125 
L -0.984375 -16.609375 
z
" id="DejaVuSans-95"/>
     </defs>
     <g transform="translate(94.6 102.104813)scale(0.1 -0.1)">
      <use xlink:href="#DejaVuSans-99"/>
      <use x="54.980469" xlink:href="#DejaVuSans-111"/>
      <use x="116.162109" xlink:href="#DejaVuSans-108"/>
      <use x="143.945312" xlink:href="#DejaVuSans-108"/>
      <use x="171.728516" xlink:href="#DejaVuSans-97"/>
      <use x="233.007812" xlink:href="#DejaVuSans-98"/>
      <use x="296.484375" xlink:href="#DejaVuSans-95"/>
      <use x="346.484375" xlink:href="#DejaVuSans-112"/>
      <use x="409.960938" xlink:href="#DejaVuSans-105"/>
     </g>
    </g>
    <g id="line2d_26">
     <path d="M 66.6 113.561063 
L 86.6 113.561063 
" style="fill:none;stroke:#9467bd;stroke-linecap:square;stroke-width:1.5;"/>
    </g>
    <g id="line2d_27"/>
    <g id="text_20">
     <!-- collab_p -->
     <g transform="translate(94.6 117.061063)scale(0.1 -0.1)">
      <use xlink:href="#DejaVuSans-99"/>
      <use x="54.980469" xlink:href="#DejaVuSans-111"/>
      <use x="116.162109" xlink:href="#DejaVuSans-108"/>
      <use x="143.945312" xlink:href="#DejaVuSans-108"/>
      <use x="171.728516" xlink:href="#DejaVuSans-97"/>
      <use x="233.007812" xlink:href="#DejaVuSans-98"/>
      <use x="296.484375" xlink:href="#DejaVuSans-95"/>
      <use x="346.484375" xlink:href="#DejaVuSans-112"/>
     </g>
    </g>
   </g>
  </g>
 </g>
 <defs>
  <clipPath id="p761b8d7a76">
   <rect height="266.112" width="357.12" x="57.6" y="41.472"/>
  </clipPath>
 </defs>
</svg>
