<?xml version="1.0" encoding="utf-8" standalone="no"?>
<!DOCTYPE svg PUBLIC "-//W3C//DTD SVG 1.1//EN"
  "http://www.w3.org/Graphics/SVG/1.1/DTD/svg11.dtd">
<!-- Created with matplotlib (https://matplotlib.org/) -->
<svg height="345.6pt" version="1.1" viewBox="0 0 460.8 345.6" width="460.8pt" xmlns="http://www.w3.org/2000/svg" xmlns:xlink="http://www.w3.org/1999/xlink">
 <defs>
  <style type="text/css">
*{stroke-linecap:butt;stroke-linejoin:round;}
  </style>
 </defs>
 <g id="figure_1">
  <g id="patch_1">
   <path d="M 0 345.6 
L 460.8 345.6 
L 460.8 0 
L 0 0 
z
" style="fill:#ffffff;"/>
  </g>
  <g id="axes_1">
   <g id="patch_2">
    <path d="M 57.6 307.584 
L 414.72 307.584 
L 414.72 41.472 
L 57.6 41.472 
z
" style="fill:#ffffff;"/>
   </g>
   <g id="matplotlib.axis_1">
    <g id="xtick_1">
     <g id="line2d_1">
      <defs>
       <path d="M 0 0 
L 0 3.5 
" id="mf48ff64c12" style="stroke:#000000;stroke-width:0.8;"/>
      </defs>
      <g>
       <use style="stroke:#000000;stroke-width:0.8;" x="73.832727" xlink:href="#mf48ff64c12" y="307.584"/>
      </g>
     </g>
     <g id="text_1">
      <!-- 0 -->
      <defs>
       <path d="M 31.78125 66.40625 
Q 24.171875 66.40625 20.328125 58.90625 
Q 16.5 51.421875 16.5 36.375 
Q 16.5 21.390625 20.328125 13.890625 
Q 24.171875 6.390625 31.78125 6.390625 
Q 39.453125 6.390625 43.28125 13.890625 
Q 47.125 21.390625 47.125 36.375 
Q 47.125 51.421875 43.28125 58.90625 
Q 39.453125 66.40625 31.78125 66.40625 
z
M 31.78125 74.21875 
Q 44.046875 74.21875 50.515625 64.515625 
Q 56.984375 54.828125 56.984375 36.375 
Q 56.984375 17.96875 50.515625 8.265625 
Q 44.046875 -1.421875 31.78125 -1.421875 
Q 19.53125 -1.421875 13.0625 8.265625 
Q 6.59375 17.96875 6.59375 36.375 
Q 6.59375 54.828125 13.0625 64.515625 
Q 19.53125 74.21875 31.78125 74.21875 
z
" id="DejaVuSans-48"/>
      </defs>
      <g transform="translate(70.651477 322.182437)scale(0.1 -0.1)">
       <use xlink:href="#DejaVuSans-48"/>
      </g>
     </g>
    </g>
    <g id="xtick_2">
     <g id="line2d_2">
      <g>
       <use style="stroke:#000000;stroke-width:0.8;" x="120.238466" xlink:href="#mf48ff64c12" y="307.584"/>
      </g>
     </g>
     <g id="text_2">
      <!-- 1000 -->
      <defs>
       <path d="M 12.40625 8.296875 
L 28.515625 8.296875 
L 28.515625 63.921875 
L 10.984375 60.40625 
L 10.984375 69.390625 
L 28.421875 72.90625 
L 38.28125 72.90625 
L 38.28125 8.296875 
L 54.390625 8.296875 
L 54.390625 0 
L 12.40625 0 
z
" id="DejaVuSans-49"/>
      </defs>
      <g transform="translate(107.513466 322.182437)scale(0.1 -0.1)">
       <use xlink:href="#DejaVuSans-49"/>
       <use x="63.623047" xlink:href="#DejaVuSans-48"/>
       <use x="127.246094" xlink:href="#DejaVuSans-48"/>
       <use x="190.869141" xlink:href="#DejaVuSans-48"/>
      </g>
     </g>
    </g>
    <g id="xtick_3">
     <g id="line2d_3">
      <g>
       <use style="stroke:#000000;stroke-width:0.8;" x="166.644204" xlink:href="#mf48ff64c12" y="307.584"/>
      </g>
     </g>
     <g id="text_3">
      <!-- 2000 -->
      <defs>
       <path d="M 19.1875 8.296875 
L 53.609375 8.296875 
L 53.609375 0 
L 7.328125 0 
L 7.328125 8.296875 
Q 12.9375 14.109375 22.625 23.890625 
Q 32.328125 33.6875 34.8125 36.53125 
Q 39.546875 41.84375 41.421875 45.53125 
Q 43.3125 49.21875 43.3125 52.78125 
Q 43.3125 58.59375 39.234375 62.25 
Q 35.15625 65.921875 28.609375 65.921875 
Q 23.96875 65.921875 18.8125 64.3125 
Q 13.671875 62.703125 7.8125 59.421875 
L 7.8125 69.390625 
Q 13.765625 71.78125 18.9375 73 
Q 24.125 74.21875 28.421875 74.21875 
Q 39.75 74.21875 46.484375 68.546875 
Q 53.21875 62.890625 53.21875 53.421875 
Q 53.21875 48.921875 51.53125 44.890625 
Q 49.859375 40.875 45.40625 35.40625 
Q 44.1875 33.984375 37.640625 27.21875 
Q 31.109375 20.453125 19.1875 8.296875 
z
" id="DejaVuSans-50"/>
      </defs>
      <g transform="translate(153.919204 322.182437)scale(0.1 -0.1)">
       <use xlink:href="#DejaVuSans-50"/>
       <use x="63.623047" xlink:href="#DejaVuSans-48"/>
       <use x="127.246094" xlink:href="#DejaVuSans-48"/>
       <use x="190.869141" xlink:href="#DejaVuSans-48"/>
      </g>
     </g>
    </g>
    <g id="xtick_4">
     <g id="line2d_4">
      <g>
       <use style="stroke:#000000;stroke-width:0.8;" x="213.049942" xlink:href="#mf48ff64c12" y="307.584"/>
      </g>
     </g>
     <g id="text_4">
      <!-- 3000 -->
      <defs>
       <path d="M 40.578125 39.3125 
Q 47.65625 37.796875 51.625 33 
Q 55.609375 28.21875 55.609375 21.1875 
Q 55.609375 10.40625 48.1875 4.484375 
Q 40.765625 -1.421875 27.09375 -1.421875 
Q 22.515625 -1.421875 17.65625 -0.515625 
Q 12.796875 0.390625 7.625 2.203125 
L 7.625 11.71875 
Q 11.71875 9.328125 16.59375 8.109375 
Q 21.484375 6.890625 26.8125 6.890625 
Q 36.078125 6.890625 40.9375 10.546875 
Q 45.796875 14.203125 45.796875 21.1875 
Q 45.796875 27.640625 41.28125 31.265625 
Q 36.765625 34.90625 28.71875 34.90625 
L 20.21875 34.90625 
L 20.21875 43.015625 
L 29.109375 43.015625 
Q 36.375 43.015625 40.234375 45.921875 
Q 44.09375 48.828125 44.09375 54.296875 
Q 44.09375 59.90625 40.109375 62.90625 
Q 36.140625 65.921875 28.71875 65.921875 
Q 24.65625 65.921875 20.015625 65.03125 
Q 15.375 64.15625 9.8125 62.3125 
L 9.8125 71.09375 
Q 15.4375 72.65625 20.34375 73.4375 
Q 25.25 74.21875 29.59375 74.21875 
Q 40.828125 74.21875 47.359375 69.109375 
Q 53.90625 64.015625 53.90625 55.328125 
Q 53.90625 49.265625 50.4375 45.09375 
Q 46.96875 40.921875 40.578125 39.3125 
z
" id="DejaVuSans-51"/>
      </defs>
      <g transform="translate(200.324942 322.182437)scale(0.1 -0.1)">
       <use xlink:href="#DejaVuSans-51"/>
       <use x="63.623047" xlink:href="#DejaVuSans-48"/>
       <use x="127.246094" xlink:href="#DejaVuSans-48"/>
       <use x="190.869141" xlink:href="#DejaVuSans-48"/>
      </g>
     </g>
    </g>
    <g id="xtick_5">
     <g id="line2d_5">
      <g>
       <use style="stroke:#000000;stroke-width:0.8;" x="259.455681" xlink:href="#mf48ff64c12" y="307.584"/>
      </g>
     </g>
     <g id="text_5">
      <!-- 4000 -->
      <defs>
       <path d="M 37.796875 64.3125 
L 12.890625 25.390625 
L 37.796875 25.390625 
z
M 35.203125 72.90625 
L 47.609375 72.90625 
L 47.609375 25.390625 
L 58.015625 25.390625 
L 58.015625 17.1875 
L 47.609375 17.1875 
L 47.609375 0 
L 37.796875 0 
L 37.796875 17.1875 
L 4.890625 17.1875 
L 4.890625 26.703125 
z
" id="DejaVuSans-52"/>
      </defs>
      <g transform="translate(246.730681 322.182437)scale(0.1 -0.1)">
       <use xlink:href="#DejaVuSans-52"/>
       <use x="63.623047" xlink:href="#DejaVuSans-48"/>
       <use x="127.246094" xlink:href="#DejaVuSans-48"/>
       <use x="190.869141" xlink:href="#DejaVuSans-48"/>
      </g>
     </g>
    </g>
    <g id="xtick_6">
     <g id="line2d_6">
      <g>
       <use style="stroke:#000000;stroke-width:0.8;" x="305.861419" xlink:href="#mf48ff64c12" y="307.584"/>
      </g>
     </g>
     <g id="text_6">
      <!-- 5000 -->
      <defs>
       <path d="M 10.796875 72.90625 
L 49.515625 72.90625 
L 49.515625 64.59375 
L 19.828125 64.59375 
L 19.828125 46.734375 
Q 21.96875 47.46875 24.109375 47.828125 
Q 26.265625 48.1875 28.421875 48.1875 
Q 40.625 48.1875 47.75 41.5 
Q 54.890625 34.8125 54.890625 23.390625 
Q 54.890625 11.625 47.5625 5.09375 
Q 40.234375 -1.421875 26.90625 -1.421875 
Q 22.3125 -1.421875 17.546875 -0.640625 
Q 12.796875 0.140625 7.71875 1.703125 
L 7.71875 11.625 
Q 12.109375 9.234375 16.796875 8.0625 
Q 21.484375 6.890625 26.703125 6.890625 
Q 35.15625 6.890625 40.078125 11.328125 
Q 45.015625 15.765625 45.015625 23.390625 
Q 45.015625 31 40.078125 35.4375 
Q 35.15625 39.890625 26.703125 39.890625 
Q 22.75 39.890625 18.8125 39.015625 
Q 14.890625 38.140625 10.796875 36.28125 
z
" id="DejaVuSans-53"/>
      </defs>
      <g transform="translate(293.136419 322.182437)scale(0.1 -0.1)">
       <use xlink:href="#DejaVuSans-53"/>
       <use x="63.623047" xlink:href="#DejaVuSans-48"/>
       <use x="127.246094" xlink:href="#DejaVuSans-48"/>
       <use x="190.869141" xlink:href="#DejaVuSans-48"/>
      </g>
     </g>
    </g>
    <g id="xtick_7">
     <g id="line2d_7">
      <g>
       <use style="stroke:#000000;stroke-width:0.8;" x="352.267157" xlink:href="#mf48ff64c12" y="307.584"/>
      </g>
     </g>
     <g id="text_7">
      <!-- 6000 -->
      <defs>
       <path d="M 33.015625 40.375 
Q 26.375 40.375 22.484375 35.828125 
Q 18.609375 31.296875 18.609375 23.390625 
Q 18.609375 15.53125 22.484375 10.953125 
Q 26.375 6.390625 33.015625 6.390625 
Q 39.65625 6.390625 43.53125 10.953125 
Q 47.40625 15.53125 47.40625 23.390625 
Q 47.40625 31.296875 43.53125 35.828125 
Q 39.65625 40.375 33.015625 40.375 
z
M 52.59375 71.296875 
L 52.59375 62.3125 
Q 48.875 64.0625 45.09375 64.984375 
Q 41.3125 65.921875 37.59375 65.921875 
Q 27.828125 65.921875 22.671875 59.328125 
Q 17.53125 52.734375 16.796875 39.40625 
Q 19.671875 43.65625 24.015625 45.921875 
Q 28.375 48.1875 33.59375 48.1875 
Q 44.578125 48.1875 50.953125 41.515625 
Q 57.328125 34.859375 57.328125 23.390625 
Q 57.328125 12.15625 50.6875 5.359375 
Q 44.046875 -1.421875 33.015625 -1.421875 
Q 20.359375 -1.421875 13.671875 8.265625 
Q 6.984375 17.96875 6.984375 36.375 
Q 6.984375 53.65625 15.1875 63.9375 
Q 23.390625 74.21875 37.203125 74.21875 
Q 40.921875 74.21875 44.703125 73.484375 
Q 48.484375 72.75 52.59375 71.296875 
z
" id="DejaVuSans-54"/>
      </defs>
      <g transform="translate(339.542157 322.182437)scale(0.1 -0.1)">
       <use xlink:href="#DejaVuSans-54"/>
       <use x="63.623047" xlink:href="#DejaVuSans-48"/>
       <use x="127.246094" xlink:href="#DejaVuSans-48"/>
       <use x="190.869141" xlink:href="#DejaVuSans-48"/>
      </g>
     </g>
    </g>
    <g id="xtick_8">
     <g id="line2d_8">
      <g>
       <use style="stroke:#000000;stroke-width:0.8;" x="398.672896" xlink:href="#mf48ff64c12" y="307.584"/>
      </g>
     </g>
     <g id="text_8">
      <!-- 7000 -->
      <defs>
       <path d="M 8.203125 72.90625 
L 55.078125 72.90625 
L 55.078125 68.703125 
L 28.609375 0 
L 18.3125 0 
L 43.21875 64.59375 
L 8.203125 64.59375 
z
" id="DejaVuSans-55"/>
      </defs>
      <g transform="translate(385.947896 322.182437)scale(0.1 -0.1)">
       <use xlink:href="#DejaVuSans-55"/>
       <use x="63.623047" xlink:href="#DejaVuSans-48"/>
       <use x="127.246094" xlink:href="#DejaVuSans-48"/>
       <use x="190.869141" xlink:href="#DejaVuSans-48"/>
      </g>
     </g>
    </g>
    <g id="text_9">
     <!-- time (s) -->
     <defs>
      <path d="M 18.3125 70.21875 
L 18.3125 54.6875 
L 36.8125 54.6875 
L 36.8125 47.703125 
L 18.3125 47.703125 
L 18.3125 18.015625 
Q 18.3125 11.328125 20.140625 9.421875 
Q 21.96875 7.515625 27.59375 7.515625 
L 36.8125 7.515625 
L 36.8125 0 
L 27.59375 0 
Q 17.1875 0 13.234375 3.875 
Q 9.28125 7.765625 9.28125 18.015625 
L 9.28125 47.703125 
L 2.6875 47.703125 
L 2.6875 54.6875 
L 9.28125 54.6875 
L 9.28125 70.21875 
z
" id="DejaVuSans-116"/>
      <path d="M 9.421875 54.6875 
L 18.40625 54.6875 
L 18.40625 0 
L 9.421875 0 
z
M 9.421875 75.984375 
L 18.40625 75.984375 
L 18.40625 64.59375 
L 9.421875 64.59375 
z
" id="DejaVuSans-105"/>
      <path d="M 52 44.1875 
Q 55.375 50.25 60.0625 53.125 
Q 64.75 56 71.09375 56 
Q 79.640625 56 84.28125 50.015625 
Q 88.921875 44.046875 88.921875 33.015625 
L 88.921875 0 
L 79.890625 0 
L 79.890625 32.71875 
Q 79.890625 40.578125 77.09375 44.375 
Q 74.3125 48.1875 68.609375 48.1875 
Q 61.625 48.1875 57.5625 43.546875 
Q 53.515625 38.921875 53.515625 30.90625 
L 53.515625 0 
L 44.484375 0 
L 44.484375 32.71875 
Q 44.484375 40.625 41.703125 44.40625 
Q 38.921875 48.1875 33.109375 48.1875 
Q 26.21875 48.1875 22.15625 43.53125 
Q 18.109375 38.875 18.109375 30.90625 
L 18.109375 0 
L 9.078125 0 
L 9.078125 54.6875 
L 18.109375 54.6875 
L 18.109375 46.1875 
Q 21.1875 51.21875 25.484375 53.609375 
Q 29.78125 56 35.6875 56 
Q 41.65625 56 45.828125 52.96875 
Q 50 49.953125 52 44.1875 
z
" id="DejaVuSans-109"/>
      <path d="M 56.203125 29.59375 
L 56.203125 25.203125 
L 14.890625 25.203125 
Q 15.484375 15.921875 20.484375 11.0625 
Q 25.484375 6.203125 34.421875 6.203125 
Q 39.59375 6.203125 44.453125 7.46875 
Q 49.3125 8.734375 54.109375 11.28125 
L 54.109375 2.78125 
Q 49.265625 0.734375 44.1875 -0.34375 
Q 39.109375 -1.421875 33.890625 -1.421875 
Q 20.796875 -1.421875 13.15625 6.1875 
Q 5.515625 13.8125 5.515625 26.8125 
Q 5.515625 40.234375 12.765625 48.109375 
Q 20.015625 56 32.328125 56 
Q 43.359375 56 49.78125 48.890625 
Q 56.203125 41.796875 56.203125 29.59375 
z
M 47.21875 32.234375 
Q 47.125 39.59375 43.09375 43.984375 
Q 39.0625 48.390625 32.421875 48.390625 
Q 24.90625 48.390625 20.390625 44.140625 
Q 15.875 39.890625 15.1875 32.171875 
z
" id="DejaVuSans-101"/>
      <path id="DejaVuSans-32"/>
      <path d="M 31 75.875 
Q 24.46875 64.65625 21.28125 53.65625 
Q 18.109375 42.671875 18.109375 31.390625 
Q 18.109375 20.125 21.3125 9.0625 
Q 24.515625 -2 31 -13.1875 
L 23.1875 -13.1875 
Q 15.875 -1.703125 12.234375 9.375 
Q 8.59375 20.453125 8.59375 31.390625 
Q 8.59375 42.28125 12.203125 53.3125 
Q 15.828125 64.359375 23.1875 75.875 
z
" id="DejaVuSans-40"/>
      <path d="M 44.28125 53.078125 
L 44.28125 44.578125 
Q 40.484375 46.53125 36.375 47.5 
Q 32.28125 48.484375 27.875 48.484375 
Q 21.1875 48.484375 17.84375 46.4375 
Q 14.5 44.390625 14.5 40.28125 
Q 14.5 37.15625 16.890625 35.375 
Q 19.28125 33.59375 26.515625 31.984375 
L 29.59375 31.296875 
Q 39.15625 29.25 43.1875 25.515625 
Q 47.21875 21.78125 47.21875 15.09375 
Q 47.21875 7.46875 41.1875 3.015625 
Q 35.15625 -1.421875 24.609375 -1.421875 
Q 20.21875 -1.421875 15.453125 -0.5625 
Q 10.6875 0.296875 5.421875 2 
L 5.421875 11.28125 
Q 10.40625 8.6875 15.234375 7.390625 
Q 20.0625 6.109375 24.8125 6.109375 
Q 31.15625 6.109375 34.5625 8.28125 
Q 37.984375 10.453125 37.984375 14.40625 
Q 37.984375 18.0625 35.515625 20.015625 
Q 33.0625 21.96875 24.703125 23.78125 
L 21.578125 24.515625 
Q 13.234375 26.265625 9.515625 29.90625 
Q 5.8125 33.546875 5.8125 39.890625 
Q 5.8125 47.609375 11.28125 51.796875 
Q 16.75 56 26.8125 56 
Q 31.78125 56 36.171875 55.265625 
Q 40.578125 54.546875 44.28125 53.078125 
z
" id="DejaVuSans-115"/>
      <path d="M 8.015625 75.875 
L 15.828125 75.875 
Q 23.140625 64.359375 26.78125 53.3125 
Q 30.421875 42.28125 30.421875 31.390625 
Q 30.421875 20.453125 26.78125 9.375 
Q 23.140625 -1.703125 15.828125 -13.1875 
L 8.015625 -13.1875 
Q 14.5 -2 17.703125 9.0625 
Q 20.90625 20.125 20.90625 31.390625 
Q 20.90625 42.671875 17.703125 53.65625 
Q 14.5 64.65625 8.015625 75.875 
z
" id="DejaVuSans-41"/>
     </defs>
     <g transform="translate(216.768594 335.860562)scale(0.1 -0.1)">
      <use xlink:href="#DejaVuSans-116"/>
      <use x="39.208984" xlink:href="#DejaVuSans-105"/>
      <use x="66.992188" xlink:href="#DejaVuSans-109"/>
      <use x="164.404297" xlink:href="#DejaVuSans-101"/>
      <use x="225.927734" xlink:href="#DejaVuSans-32"/>
      <use x="257.714844" xlink:href="#DejaVuSans-40"/>
      <use x="296.728516" xlink:href="#DejaVuSans-115"/>
      <use x="348.828125" xlink:href="#DejaVuSans-41"/>
     </g>
    </g>
   </g>
   <g id="matplotlib.axis_2">
    <g id="ytick_1">
     <g id="line2d_9">
      <defs>
       <path d="M 0 0 
L -3.5 0 
" id="m32cd7a26f5" style="stroke:#000000;stroke-width:0.8;"/>
      </defs>
      <g>
       <use style="stroke:#000000;stroke-width:0.8;" x="57.6" xlink:href="#m32cd7a26f5" y="295.488"/>
      </g>
     </g>
     <g id="text_10">
      <!-- 0 -->
      <g transform="translate(44.2375 299.287219)scale(0.1 -0.1)">
       <use xlink:href="#DejaVuSans-48"/>
      </g>
     </g>
    </g>
    <g id="ytick_2">
     <g id="line2d_10">
      <g>
       <use style="stroke:#000000;stroke-width:0.8;" x="57.6" xlink:href="#m32cd7a26f5" y="247.054598"/>
      </g>
     </g>
     <g id="text_11">
      <!-- 100 -->
      <g transform="translate(31.5125 250.853817)scale(0.1 -0.1)">
       <use xlink:href="#DejaVuSans-49"/>
       <use x="63.623047" xlink:href="#DejaVuSans-48"/>
       <use x="127.246094" xlink:href="#DejaVuSans-48"/>
      </g>
     </g>
    </g>
    <g id="ytick_3">
     <g id="line2d_11">
      <g>
       <use style="stroke:#000000;stroke-width:0.8;" x="57.6" xlink:href="#m32cd7a26f5" y="198.621196"/>
      </g>
     </g>
     <g id="text_12">
      <!-- 200 -->
      <g transform="translate(31.5125 202.420415)scale(0.1 -0.1)">
       <use xlink:href="#DejaVuSans-50"/>
       <use x="63.623047" xlink:href="#DejaVuSans-48"/>
       <use x="127.246094" xlink:href="#DejaVuSans-48"/>
      </g>
     </g>
    </g>
    <g id="ytick_4">
     <g id="line2d_12">
      <g>
       <use style="stroke:#000000;stroke-width:0.8;" x="57.6" xlink:href="#m32cd7a26f5" y="150.187794"/>
      </g>
     </g>
     <g id="text_13">
      <!-- 300 -->
      <g transform="translate(31.5125 153.987013)scale(0.1 -0.1)">
       <use xlink:href="#DejaVuSans-51"/>
       <use x="63.623047" xlink:href="#DejaVuSans-48"/>
       <use x="127.246094" xlink:href="#DejaVuSans-48"/>
      </g>
     </g>
    </g>
    <g id="ytick_5">
     <g id="line2d_13">
      <g>
       <use style="stroke:#000000;stroke-width:0.8;" x="57.6" xlink:href="#m32cd7a26f5" y="101.754392"/>
      </g>
     </g>
     <g id="text_14">
      <!-- 400 -->
      <g transform="translate(31.5125 105.55361)scale(0.1 -0.1)">
       <use xlink:href="#DejaVuSans-52"/>
       <use x="63.623047" xlink:href="#DejaVuSans-48"/>
       <use x="127.246094" xlink:href="#DejaVuSans-48"/>
      </g>
     </g>
    </g>
    <g id="ytick_6">
     <g id="line2d_14">
      <g>
       <use style="stroke:#000000;stroke-width:0.8;" x="57.6" xlink:href="#m32cd7a26f5" y="53.32099"/>
      </g>
     </g>
     <g id="text_15">
      <!-- 500 -->
      <g transform="translate(31.5125 57.120208)scale(0.1 -0.1)">
       <use xlink:href="#DejaVuSans-53"/>
       <use x="63.623047" xlink:href="#DejaVuSans-48"/>
       <use x="127.246094" xlink:href="#DejaVuSans-48"/>
      </g>
     </g>
    </g>
    <g id="text_16">
     <!-- meanWaitingTimeToDepart (s) -->
     <defs>
      <path d="M 34.28125 27.484375 
Q 23.390625 27.484375 19.1875 25 
Q 14.984375 22.515625 14.984375 16.5 
Q 14.984375 11.71875 18.140625 8.90625 
Q 21.296875 6.109375 26.703125 6.109375 
Q 34.1875 6.109375 38.703125 11.40625 
Q 43.21875 16.703125 43.21875 25.484375 
L 43.21875 27.484375 
z
M 52.203125 31.203125 
L 52.203125 0 
L 43.21875 0 
L 43.21875 8.296875 
Q 40.140625 3.328125 35.546875 0.953125 
Q 30.953125 -1.421875 24.3125 -1.421875 
Q 15.921875 -1.421875 10.953125 3.296875 
Q 6 8.015625 6 15.921875 
Q 6 25.140625 12.171875 29.828125 
Q 18.359375 34.515625 30.609375 34.515625 
L 43.21875 34.515625 
L 43.21875 35.40625 
Q 43.21875 41.609375 39.140625 45 
Q 35.0625 48.390625 27.6875 48.390625 
Q 23 48.390625 18.546875 47.265625 
Q 14.109375 46.140625 10.015625 43.890625 
L 10.015625 52.203125 
Q 14.9375 54.109375 19.578125 55.046875 
Q 24.21875 56 28.609375 56 
Q 40.484375 56 46.34375 49.84375 
Q 52.203125 43.703125 52.203125 31.203125 
z
" id="DejaVuSans-97"/>
      <path d="M 54.890625 33.015625 
L 54.890625 0 
L 45.90625 0 
L 45.90625 32.71875 
Q 45.90625 40.484375 42.875 44.328125 
Q 39.84375 48.1875 33.796875 48.1875 
Q 26.515625 48.1875 22.3125 43.546875 
Q 18.109375 38.921875 18.109375 30.90625 
L 18.109375 0 
L 9.078125 0 
L 9.078125 54.6875 
L 18.109375 54.6875 
L 18.109375 46.1875 
Q 21.34375 51.125 25.703125 53.5625 
Q 30.078125 56 35.796875 56 
Q 45.21875 56 50.046875 50.171875 
Q 54.890625 44.34375 54.890625 33.015625 
z
" id="DejaVuSans-110"/>
      <path d="M 3.328125 72.90625 
L 13.28125 72.90625 
L 28.609375 11.28125 
L 43.890625 72.90625 
L 54.984375 72.90625 
L 70.3125 11.28125 
L 85.59375 72.90625 
L 95.609375 72.90625 
L 77.296875 0 
L 64.890625 0 
L 49.515625 63.28125 
L 33.984375 0 
L 21.578125 0 
z
" id="DejaVuSans-87"/>
      <path d="M 45.40625 27.984375 
Q 45.40625 37.75 41.375 43.109375 
Q 37.359375 48.484375 30.078125 48.484375 
Q 22.859375 48.484375 18.828125 43.109375 
Q 14.796875 37.75 14.796875 27.984375 
Q 14.796875 18.265625 18.828125 12.890625 
Q 22.859375 7.515625 30.078125 7.515625 
Q 37.359375 7.515625 41.375 12.890625 
Q 45.40625 18.265625 45.40625 27.984375 
z
M 54.390625 6.78125 
Q 54.390625 -7.171875 48.1875 -13.984375 
Q 42 -20.796875 29.203125 -20.796875 
Q 24.46875 -20.796875 20.265625 -20.09375 
Q 16.0625 -19.390625 12.109375 -17.921875 
L 12.109375 -9.1875 
Q 16.0625 -11.328125 19.921875 -12.34375 
Q 23.78125 -13.375 27.78125 -13.375 
Q 36.625 -13.375 41.015625 -8.765625 
Q 45.40625 -4.15625 45.40625 5.171875 
L 45.40625 9.625 
Q 42.625 4.78125 38.28125 2.390625 
Q 33.9375 0 27.875 0 
Q 17.828125 0 11.671875 7.65625 
Q 5.515625 15.328125 5.515625 27.984375 
Q 5.515625 40.671875 11.671875 48.328125 
Q 17.828125 56 27.875 56 
Q 33.9375 56 38.28125 53.609375 
Q 42.625 51.21875 45.40625 46.390625 
L 45.40625 54.6875 
L 54.390625 54.6875 
z
" id="DejaVuSans-103"/>
      <path d="M -0.296875 72.90625 
L 61.375 72.90625 
L 61.375 64.59375 
L 35.5 64.59375 
L 35.5 0 
L 25.59375 0 
L 25.59375 64.59375 
L -0.296875 64.59375 
z
" id="DejaVuSans-84"/>
      <path d="M 30.609375 48.390625 
Q 23.390625 48.390625 19.1875 42.75 
Q 14.984375 37.109375 14.984375 27.296875 
Q 14.984375 17.484375 19.15625 11.84375 
Q 23.34375 6.203125 30.609375 6.203125 
Q 37.796875 6.203125 41.984375 11.859375 
Q 46.1875 17.53125 46.1875 27.296875 
Q 46.1875 37.015625 41.984375 42.703125 
Q 37.796875 48.390625 30.609375 48.390625 
z
M 30.609375 56 
Q 42.328125 56 49.015625 48.375 
Q 55.71875 40.765625 55.71875 27.296875 
Q 55.71875 13.875 49.015625 6.21875 
Q 42.328125 -1.421875 30.609375 -1.421875 
Q 18.84375 -1.421875 12.171875 6.21875 
Q 5.515625 13.875 5.515625 27.296875 
Q 5.515625 40.765625 12.171875 48.375 
Q 18.84375 56 30.609375 56 
z
" id="DejaVuSans-111"/>
      <path d="M 19.671875 64.796875 
L 19.671875 8.109375 
L 31.59375 8.109375 
Q 46.6875 8.109375 53.6875 14.9375 
Q 60.6875 21.78125 60.6875 36.53125 
Q 60.6875 51.171875 53.6875 57.984375 
Q 46.6875 64.796875 31.59375 64.796875 
z
M 9.8125 72.90625 
L 30.078125 72.90625 
Q 51.265625 72.90625 61.171875 64.09375 
Q 71.09375 55.28125 71.09375 36.53125 
Q 71.09375 17.671875 61.125 8.828125 
Q 51.171875 0 30.078125 0 
L 9.8125 0 
z
" id="DejaVuSans-68"/>
      <path d="M 18.109375 8.203125 
L 18.109375 -20.796875 
L 9.078125 -20.796875 
L 9.078125 54.6875 
L 18.109375 54.6875 
L 18.109375 46.390625 
Q 20.953125 51.265625 25.265625 53.625 
Q 29.59375 56 35.59375 56 
Q 45.5625 56 51.78125 48.09375 
Q 58.015625 40.1875 58.015625 27.296875 
Q 58.015625 14.40625 51.78125 6.484375 
Q 45.5625 -1.421875 35.59375 -1.421875 
Q 29.59375 -1.421875 25.265625 0.953125 
Q 20.953125 3.328125 18.109375 8.203125 
z
M 48.6875 27.296875 
Q 48.6875 37.203125 44.609375 42.84375 
Q 40.53125 48.484375 33.40625 48.484375 
Q 26.265625 48.484375 22.1875 42.84375 
Q 18.109375 37.203125 18.109375 27.296875 
Q 18.109375 17.390625 22.1875 11.75 
Q 26.265625 6.109375 33.40625 6.109375 
Q 40.53125 6.109375 44.609375 11.75 
Q 48.6875 17.390625 48.6875 27.296875 
z
" id="DejaVuSans-112"/>
      <path d="M 41.109375 46.296875 
Q 39.59375 47.171875 37.8125 47.578125 
Q 36.03125 48 33.890625 48 
Q 26.265625 48 22.1875 43.046875 
Q 18.109375 38.09375 18.109375 28.8125 
L 18.109375 0 
L 9.078125 0 
L 9.078125 54.6875 
L 18.109375 54.6875 
L 18.109375 46.1875 
Q 20.953125 51.171875 25.484375 53.578125 
Q 30.03125 56 36.53125 56 
Q 37.453125 56 38.578125 55.875 
Q 39.703125 55.765625 41.0625 55.515625 
z
" id="DejaVuSans-114"/>
     </defs>
     <g transform="translate(25.432812 250.250656)rotate(-90)scale(0.1 -0.1)">
      <use xlink:href="#DejaVuSans-109"/>
      <use x="97.412109" xlink:href="#DejaVuSans-101"/>
      <use x="158.935547" xlink:href="#DejaVuSans-97"/>
      <use x="220.214844" xlink:href="#DejaVuSans-110"/>
      <use x="283.59375" xlink:href="#DejaVuSans-87"/>
      <use x="376.095703" xlink:href="#DejaVuSans-97"/>
      <use x="437.375" xlink:href="#DejaVuSans-105"/>
      <use x="465.158203" xlink:href="#DejaVuSans-116"/>
      <use x="504.367188" xlink:href="#DejaVuSans-105"/>
      <use x="532.150391" xlink:href="#DejaVuSans-110"/>
      <use x="595.529297" xlink:href="#DejaVuSans-103"/>
      <use x="659.005859" xlink:href="#DejaVuSans-84"/>
      <use x="716.964844" xlink:href="#DejaVuSans-105"/>
      <use x="744.748047" xlink:href="#DejaVuSans-109"/>
      <use x="842.160156" xlink:href="#DejaVuSans-101"/>
      <use x="903.683594" xlink:href="#DejaVuSans-84"/>
      <use x="947.767578" xlink:href="#DejaVuSans-111"/>
      <use x="1008.949219" xlink:href="#DejaVuSans-68"/>
      <use x="1085.951172" xlink:href="#DejaVuSans-101"/>
      <use x="1147.474609" xlink:href="#DejaVuSans-112"/>
      <use x="1210.951172" xlink:href="#DejaVuSans-97"/>
      <use x="1272.230469" xlink:href="#DejaVuSans-114"/>
      <use x="1313.34375" xlink:href="#DejaVuSans-116"/>
      <use x="1352.552734" xlink:href="#DejaVuSans-32"/>
      <use x="1384.339844" xlink:href="#DejaVuSans-40"/>
      <use x="1423.353516" xlink:href="#DejaVuSans-115"/>
      <use x="1475.453125" xlink:href="#DejaVuSans-41"/>
     </g>
    </g>
   </g>
   <g id="line2d_15">
    <path clip-path="url(#pc4511cac38)" d="M 73.832727 295.488 
L 73.971944 295.1974 
L 74.01835 295.245833 
L 74.34319 295.303953 
L 74.528813 295.35723 
L 75.364117 295.420193 
L 95.504207 295.391133 
L 95.643424 295.29911 
L 112.535113 295.231303 
L 112.720736 295.173183 
L 114.20572 295.119906 
L 114.391343 294.587139 
L 115.551486 294.601669 
L 115.690703 294.432152 
L 117.175687 294.451525 
L 117.314904 294.228732 
L 125.807154 294.248105 
L 125.992777 293.865481 
L 127.570572 293.889698 
L 127.756195 293.308497 
L 127.941818 293.274594 
L 128.081035 293.15351 
L 128.405876 293.158353 
L 128.545093 292.751513 
L 128.916339 292.736983 
L 129.055556 292.659489 
L 130.447728 292.606213 
L 130.586945 291.981422 
L 130.633351 291.995952 
L 131.236626 292.005638 
L 131.375843 291.860338 
L 131.51506 291.870025 
L 131.654277 291.623015 
L 131.700683 291.623015 
L 131.8399 291.405064 
L 132.907232 291.322727 
L 133.046449 291.250077 
L 133.928158 291.172584 
L 134.113781 291.114464 
L 134.949085 291.104777 
L 135.041896 290.89167 
L 135.088302 290.92073 
L 136.805314 290.872297 
L 136.944531 290.576853 
L 137.269372 290.581696 
L 137.408589 290.450926 
L 142.327597 290.523576 
L 142.466814 289.976279 
L 142.977277 289.990809 
L 143.116495 289.738955 
L 143.858986 289.787389 
L 144.647884 289.816449 
L 144.787101 289.462885 
L 145.483187 289.501632 
L 145.900839 289.511318 
L 146.086462 288.871997 
L 146.457708 288.804191 
L 146.596925 288.736384 
L 147.060982 288.765444 
L 147.2002 288.562024 
L 147.246605 288.562024 
L 147.385823 288.377977 
L 148.17472 288.3247 
L 148.313937 288.242363 
L 149.056429 288.285953 
L 149.195646 287.937233 
L 150.35579 287.985666 
L 150.495007 287.820992 
L 151.423122 287.796776 
L 151.608745 287.360875 
L 152.072802 287.268852 
L 152.258425 287.128395 
L 154.439495 287.230105 
L 155.135581 287.268852 
L 155.69245 287.312442 
L 155.831667 287.065431 
L 156.063696 287.065431 
L 156.202913 286.687651 
L 156.34213 286.721554 
L 156.527753 286.469701 
L 156.713376 286.469701 
L 156.759782 285.825536 
L 156.852593 285.840066 
L 157.363056 285.864283 
L 157.502274 285.510719 
L 158.755228 285.510719 
L 158.940851 284.711568 
L 159.915372 284.711568 
L 160.054589 284.595328 
L 160.425835 284.595328 
L 160.611458 284.207861 
L 161.307544 284.207861 
L 161.446761 283.87367 
L 161.818007 283.77196 
L 162.00363 283.718683 
L 162.050036 283.718683 
L 162.189253 283.602443 
L 162.699716 283.602443 
L 162.838933 283.263409 
L 163.163774 283.166543 
L 163.210179 283.069676 
L 163.349397 282.590185 
L 164.463134 282.590185 
L 164.648757 281.907274 
L 164.695163 281.907274 
L 164.83438 281.40841 
L 164.880786 281.40841 
L 165.020003 281.27764 
L 165.762495 281.27764 
L 165.948118 280.895016 
L 166.319364 280.895016 
L 166.504987 279.689024 
L 166.644204 279.689024 
L 166.783421 279.209534 
L 167.293884 279.209534 
L 167.433102 279.0158 
L 169.706983 279.0158 
L 169.8462 278.386166 
L 170.217446 278.386166 
L 170.356663 277.882458 
L 170.449475 277.882458 
L 170.635097 276.938007 
L 170.867126 276.938007 
L 171.052749 275.480162 
L 171.145561 275.480162 
L 171.284778 274.773034 
L 172.073675 274.773034 
L 172.259298 273.775306 
L 172.305704 273.775306 
L 172.491327 272.884131 
L 172.723356 271.605489 
L 172.816167 271.605489 
L 172.955384 270.636821 
L 173.00179 270.636821 
L 173.187413 269.886104 
L 173.280225 269.886104 
L 173.419442 269.551913 
L 174.161934 269.551913 
L 174.347557 268.423415 
L 174.718802 268.423415 
L 174.85802 268.089224 
L 175.925352 268.089224 
L 176.064569 267.61942 
L 177.456741 267.61942 
L 177.595958 267.144773 
L 181.447634 267.144773 
L 181.679663 266.282659 
L 184.603225 266.282659 
L 184.788848 265.541628 
L 184.835253 265.541628 
L 184.974471 265.217124 
L 185.067282 265.217124 
L 185.206499 264.408286 
L 185.438528 264.408286 
L 185.624151 262.974657 
L 186.923512 262.974657 
L 187.062729 262.417673 
L 188.68693 262.417673 
L 188.826147 261.962399 
L 191.053622 261.962399 
L 191.19284 261.381198 
L 191.239245 261.381198 
L 191.378462 260.804841 
L 191.656897 260.804841 
L 191.84252 259.594006 
L 192.213766 259.594006 
L 192.352983 259.153262 
L 192.399389 259.153262 
L 192.538606 258.746421 
L 192.81704 258.746421 
L 193.002663 257.511369 
L 193.049069 257.511369 
L 193.188286 256.920482 
L 193.234692 256.920482 
L 193.513126 254.368042 
L 193.559532 254.368042 
L 193.698749 253.820744 
L 193.930778 253.820744 
L 194.116401 252.377429 
L 196.019036 252.377429 
L 196.158254 251.941528 
L 197.039963 251.941528 
L 197.17918 251.520158 
L 197.271991 251.520158 
L 197.411208 251.10363 
L 199.592278 251.10363 
L 199.731495 250.352913 
L 199.777901 250.352913 
L 199.917118 249.897639 
L 205.485807 249.897639 
L 205.625024 249.185668 
L 205.717836 249.185668 
L 205.949864 247.161151 
L 206.135487 247.161151 
L 206.274705 246.454024 
L 207.388442 246.454024 
L 207.527659 245.635499 
L 208.270151 245.635499 
L 208.409368 244.778228 
L 210.358409 244.778228 
L 210.497627 243.746597 
L 210.544032 243.746597 
L 210.68325 242.724652 
L 213.421188 242.724652 
L 213.560405 241.944874 
L 213.653217 241.944874 
L 213.792434 241.063386 
L 219.778774 241.063386 
L 219.917992 240.312668 
L 220.196426 240.312668 
L 220.382049 238.743426 
L 220.47486 238.743426 
L 220.614078 237.920058 
L 221.635004 237.920058 
L 221.774221 236.98045 
L 221.820627 236.98045 
L 221.959844 236.045686 
L 222.284684 236.045686 
L 222.423901 235.106078 
L 223.537639 235.106078 
L 223.676856 234.10835 
L 224.048102 234.10835 
L 224.18732 233.207488 
L 225.115434 233.207488 
L 225.254651 232.07899 
L 225.625897 232.07899 
L 225.765115 230.955335 
L 227.482127 230.955335 
L 227.66775 229.323129 
L 228.178213 229.323129 
L 228.31743 228.320558 
L 231.287397 228.320558 
L 231.426615 227.327673 
L 231.844266 227.327673 
L 232.029889 225.375807 
L 234.396582 225.375807 
L 234.535799 224.445886 
L 236.48484 224.445886 
L 236.624057 223.448158 
L 237.088115 223.448158 
L 237.227332 222.498863 
L 237.691389 222.498863 
L 237.830607 221.389738 
L 237.923418 221.389738 
L 238.109041 219.273199 
L 239.083562 219.273199 
L 239.269184 217.389139 
L 241.032603 217.389139 
L 241.17182 216.284858 
L 241.867906 216.284858 
L 242.007123 215.34525 
L 242.981644 215.34525 
L 243.167266 213.320733 
L 243.213672 213.320733 
L 243.399295 211.330121 
L 251.149053 211.330121 
L 251.288271 210.279116 
L 252.16998 210.279116 
L 252.309197 209.281388 
L 253.979804 209.281388 
L 254.119021 207.901036 
L 255.882439 207.901036 
L 256.021656 206.845188 
L 257.181799 206.845188 
L 257.367422 204.670528 
L 257.413828 204.670528 
L 257.553045 203.604993 
L 257.599451 203.604993 
L 257.785074 201.58532 
L 264.653123 201.58532 
L 264.792341 200.350268 
L 264.885152 200.350268 
L 265.024369 199.124903 
L 266.184513 199.124903 
L 266.370136 196.78557 
L 267.391062 196.78557 
L 267.530279 195.676445 
L 268.087148 195.676445 
L 268.272771 192.688104 
L 268.411988 192.688104 
L 268.551205 191.201199 
L 269.200886 191.201199 
L 269.386509 188.522832 
L 269.47932 188.522832 
L 269.618537 187.2006 
L 273.934271 187.2006 
L 274.073488 185.674947 
L 274.259111 185.674947 
L 274.398328 184.158982 
L 279.131714 184.158982 
L 279.317337 181.514518 
L 279.410148 181.514518 
L 279.549365 180.221346 
L 281.034349 180.221346 
L 281.219972 177.417052 
L 283.725882 177.417052 
L 283.865099 176.128724 
L 285.628517 176.128724 
L 285.767734 174.864612 
L 286.231792 174.864612 
L 286.371009 173.552067 
L 286.974283 173.552067 
L 287.113501 172.239522 
L 287.206312 172.239522 
L 287.391935 169.682238 
L 293.239058 169.682238 
L 293.378275 168.229236 
L 295.420128 168.229236 
L 295.605751 165.294172 
L 295.744968 165.294172 
L 295.884185 163.889603 
L 299.64305 163.889603 
L 299.782267 162.150844 
L 300.014296 162.150844 
L 300.153513 160.421772 
L 300.385542 160.421772 
L 300.571165 156.978157 
L 301.174439 156.978157 
L 301.360062 154.125429 
L 304.283624 154.125429 
L 304.422841 152.391514 
L 307.346403 152.391514 
L 307.48562 150.846488 
L 308.924198 150.846488 
L 309.063415 149.311149 
L 310.362776 149.311149 
L 310.501993 147.683787 
L 315.513813 147.683787 
L 315.65303 146.167821 
L 318.530186 146.167821 
L 318.669403 144.303135 
L 319.319083 144.303135 
L 319.4583 142.443293 
L 319.968763 142.443293 
L 320.154386 139.043268 
L 320.66485 139.043268 
L 320.804067 137.493399 
L 322.381862 137.493399 
L 322.613891 131.976835 
L 322.799513 131.976835 
L 322.985136 128.334643 
L 323.913251 128.334643 
L 324.052468 126.70728 
L 331.013329 126.70728 
L 331.152546 124.997581 
L 331.198952 124.997581 
L 331.338169 123.321786 
L 333.936891 123.321786 
L 334.076108 121.408666 
L 334.215325 121.408666 
L 334.354542 119.626317 
L 338.067001 119.626317 
L 338.206219 117.873028 
L 343.682096 117.873028 
L 343.867719 114.163029 
L 343.96053 114.163029 
L 344.146153 110.511151 
L 344.610211 110.511151 
L 344.749428 108.723958 
L 344.795833 108.723958 
L 344.935051 106.941609 
L 347.580178 106.941609 
L 347.719395 105.110826 
L 347.858612 105.110826 
L 347.997829 103.323634 
L 348.044235 103.323634 
L 348.183452 101.313648 
L 348.229858 101.313648 
L 348.415481 97.535842 
L 351.431854 97.535842 
L 351.571071 95.729277 
L 351.756694 95.729277 
L 351.895911 93.927554 
L 356.026022 93.927554 
L 356.165239 91.903038 
L 356.211645 91.903038 
L 356.397268 88.023522 
L 366.838559 88.023522 
L 366.977776 85.911826 
L 367.024182 85.911826 
L 367.302617 77.566751 
L 367.441834 77.566751 
L 367.581051 75.532548 
L 370.551018 75.532548 
L 370.690235 73.478972 
L 370.783047 73.478972 
L 370.96867 69.400879 
L 371.015076 69.400879 
L 371.247104 63.414511 
L 371.339916 63.414511 
L 371.479133 61.457801 
L 374.913158 61.457801 
L 375.052375 59.472032 
L 375.098781 59.472032 
L 375.284404 55.544083 
L 378.207965 55.544083 
L 378.347182 53.568 
L 398.487273 53.568 
L 398.487273 53.568 
" style="fill:none;stroke:#1f77b4;stroke-linecap:square;stroke-width:1.5;"/>
   </g>
   <g id="line2d_16">
    <path clip-path="url(#pc4511cac38)" d="M 73.832727 295.488 
L 73.971944 295.1974 
L 74.01835 295.245833 
L 74.34319 295.303953 
L 74.528813 295.35723 
L 75.364117 295.420193 
L 91.559719 295.337856 
L 91.698937 295.265206 
L 97.314031 295.21193 
L 97.453248 295.018196 
L 97.499654 295.018196 
L 97.638871 294.853522 
L 99.355883 294.892269 
L 99.495101 294.698536 
L 101.35133 294.708222 
L 101.490547 294.558079 
L 103.253965 294.601669 
L 103.393183 294.446682 
L 103.485994 294.451525 
L 103.625211 294.335285 
L 113.324011 294.441839 
L 114.159314 294.461212 
L 114.344937 294.407935 
L 115.226646 294.354658 
L 115.365863 294.296538 
L 116.526007 294.306225 
L 126.410429 294.412778 
L 127.663384 294.432152 
L 132.582392 294.412778 
L 132.721609 294.243262 
L 135.784388 294.170611 
L 135.970011 294.083431 
L 136.016417 294.088275 
L 136.155634 293.894541 
L 136.758908 293.913914 
L 138.243892 293.855794 
L 138.429515 293.725024 
L 139.821687 293.710494 
L 139.960904 293.613627 
L 144.740695 293.555507 
L 144.879913 293.405364 
L 146.179273 293.42958 
L 146.318491 293.293967 
L 147.52504 293.1971 
L 147.664257 293.105077 
L 148.128314 293.114763 
L 148.267532 292.799946 
L 148.917212 292.80479 
L 149.056429 292.586839 
L 149.334864 292.586839 
L 149.474081 292.465756 
L 150.170167 292.451226 
L 150.309384 292.141252 
L 151.098282 292.146095 
L 151.191093 291.826435 
L 151.237499 291.836121 
L 151.33031 291.836121 
L 151.469528 291.526148 
L 152.351237 291.521304 
L 152.490454 291.346944 
L 152.676077 291.187114 
L 153.232946 291.162897 
L 153.372163 290.857767 
L 156.202913 290.959477 
L 156.620564 290.983694 
L 156.713376 290.983694 
L 156.852593 290.794803 
L 160.286618 290.780273 
L 160.425835 290.523576 
L 160.518646 290.523576 
L 160.657864 290.271723 
L 162.282065 290.271723 
L 162.467688 289.482258 
L 163.349397 289.399921 
L 163.488614 289.235248 
L 164.231106 289.235248 
L 164.370323 289.065731 
L 165.716089 289.065731 
L 165.855306 288.707324 
L 169.335737 288.707324 
L 169.474954 288.416723 
L 170.913532 288.416723 
L 171.052749 288.082533 
L 175.646917 288.082533 
L 175.786134 287.719282 
L 175.878946 287.719282 
L 176.018163 287.360875 
L 180.009057 287.360875 
L 180.148274 287.070275 
L 182.886212 287.070275 
L 183.071835 285.869126 
L 183.860733 285.869126 
L 184.046356 285.050602 
L 184.092762 285.050602 
L 184.231979 284.677665 
L 185.067282 284.677665 
L 185.252905 283.897887 
L 185.438528 283.897887 
L 185.624151 283.147169 
L 187.062729 283.147169 
L 187.201946 282.764545 
L 187.248352 282.764545 
L 187.387569 282.381921 
L 187.619598 282.381921 
L 187.758815 281.781347 
L 187.805221 281.781347 
L 187.944438 281.195303 
L 188.640524 281.195303 
L 188.779741 280.657692 
L 188.872553 280.657692 
L 189.01177 280.134612 
L 190.079102 280.134612 
L 190.218319 279.640591 
L 191.378462 279.640591 
L 191.51768 279.214377 
L 191.749708 279.214377 
L 191.888926 278.79785 
L 192.538606 278.79785 
L 192.677823 278.294142 
L 192.724229 278.294142 
L 192.863446 277.780748 
L 194.626864 277.780748 
L 194.766081 277.310944 
L 197.132774 277.310944 
L 197.271991 276.589287 
L 199.313844 276.589287 
L 199.453061 275.998399 
L 201.819754 275.998399 
L 202.005377 274.753661 
L 202.747868 274.753661 
L 202.887086 274.046533 
L 202.933491 274.046533 
L 203.072709 273.397525 
L 203.768795 273.397525 
L 203.954418 272.390111 
L 204.557692 272.390111 
L 204.696909 271.726573 
L 204.743315 271.726573 
L 204.882532 271.072722 
L 209.012643 271.072722 
L 209.15186 270.530268 
L 213.514 270.530268 
L 213.653217 269.91032 
L 216.437561 269.91032 
L 216.576778 269.241939 
L 217.133647 269.241939 
L 217.31927 267.977828 
L 217.551299 267.977828 
L 217.690516 267.309447 
L 218.293791 267.309447 
L 218.433008 266.452175 
L 218.897065 266.452175 
L 219.036283 265.696614 
L 219.453934 265.696614 
L 219.639557 264.340479 
L 220.289237 264.340479 
L 220.428455 263.580075 
L 220.614078 263.580075 
L 220.753295 262.829357 
L 225.625897 262.829357 
L 225.765115 261.846159 
L 232.493947 261.846159 
L 232.67957 259.899136 
L 233.050816 259.899136 
L 233.190033 259.046708 
L 233.746902 259.046708 
L 233.886119 258.271774 
L 237.923418 258.271774 
L 238.062635 257.448406 
L 239.686836 257.448406 
L 239.872459 255.33671 
L 239.918865 255.33671 
L 240.104488 253.244387 
L 240.475734 253.244387 
L 240.614951 252.169165 
L 245.951611 252.169165 
L 246.090828 251.17628 
L 246.183639 251.17628 
L 246.322857 250.188239 
L 247.390189 250.188239 
L 247.529406 249.209884 
L 247.622217 249.209884 
L 247.761435 248.270276 
L 247.80784 248.270276 
L 247.947058 247.374258 
L 254.026209 247.374258 
L 254.165426 246.250603 
L 254.258238 246.250603 
L 254.397455 245.141479 
L 255.371976 245.141479 
L 255.511193 244.04204 
L 257.274611 244.04204 
L 257.50664 240.797002 
L 263.075328 240.797002 
L 263.214545 239.712094 
L 263.307357 239.712094 
L 263.446574 238.632029 
L 263.49298 238.632029 
L 263.632197 237.561651 
L 267.251845 237.561651 
L 267.391062 236.384719 
L 268.644017 236.384719 
L 268.82964 233.754786 
L 268.922451 233.754786 
L 269.061668 232.461614 
L 274.862386 232.461614 
L 275.094414 228.824265 
L 275.14082 228.824265 
L 275.280037 227.67155 
L 275.790501 227.67155 
L 275.929718 226.329945 
L 275.976123 226.329945 
L 276.115341 225.153014 
L 276.718615 225.153014 
L 276.857833 223.927648 
L 276.904238 223.927648 
L 277.043455 221.559255 
L 277.64673 221.559255 
L 277.785947 220.23218 
L 280.709509 220.23218 
L 280.848726 218.982598 
L 280.941538 218.982598 
L 281.080755 217.73786 
L 281.684029 217.73786 
L 281.823247 216.381724 
L 282.797767 216.381724 
L 282.936984 215.141829 
L 283.540259 215.141829 
L 283.679476 213.776007 
L 286.371009 213.776007 
L 286.510226 212.502209 
L 288.412861 212.502209 
L 288.552079 211.22841 
L 289.29457 211.22841 
L 289.433788 209.818998 
L 291.197206 209.818998 
L 291.336423 208.409586 
L 291.429234 208.409586 
L 291.568452 207.014704 
L 293.192652 207.014704 
L 293.33187 205.624666 
L 293.378275 205.624666 
L 293.517493 204.234627 
L 295.234505 204.234627 
L 295.373722 202.849432 
L 297.090734 202.849432 
L 297.229952 201.459393 
L 299.039775 201.459393 
L 299.178993 200.059668 
L 299.31821 200.059668 
L 299.457427 198.708376 
L 300.896005 198.708376 
L 301.035222 197.347397 
L 302.845046 197.347397 
L 302.984263 195.971889 
L 326.883218 195.971889 
L 327.022436 295.488 
L 398.487273 295.488 
L 398.487273 295.488 
" style="fill:none;stroke:#ff7f0e;stroke-linecap:square;stroke-width:1.5;"/>
   </g>
   <g id="line2d_17">
    <path clip-path="url(#pc4511cac38)" d="M 73.832727 295.488 
L 73.971944 295.1974 
L 74.01835 295.245833 
L 74.34319 295.303953 
L 74.528813 295.35723 
L 75.364117 295.420193 
L 81.489674 295.45894 
L 81.582486 295.231303 
L 81.628891 295.24099 
L 88.079289 295.347543 
L 89.193027 295.352386 
L 98.288551 295.347543 
L 98.427769 295.16834 
L 111.235752 295.061786 
L 112.256679 295.066629 
L 115.18024 295.076316 
L 115.319457 294.901956 
L 115.551486 294.906799 
L 115.737109 294.669476 
L 117.082875 294.577452 
L 117.222093 294.470899 
L 117.964584 294.485429 
L 118.103802 294.427308 
L 118.753482 294.364345 
L 118.939105 294.315912 
L 119.635191 294.238418 
L 119.774408 294.160925 
L 121.537826 294.185141 
L 121.677044 294.001095 
L 123.115621 294.039841 
L 129.473208 294.146395 
L 130.772568 294.170611 
L 132.907232 294.112491 
L 133.046449 293.889698 
L 133.185667 293.889698 
L 133.324884 293.681434 
L 133.742535 293.686277 
L 133.928158 293.013053 
L 133.974564 293.02274 
L 134.113781 292.775729 
L 134.299404 292.780573 
L 134.438622 292.339829 
L 135.552359 292.305925 
L 135.877199 291.821591 
L 138.475921 291.792531 
L 138.661544 291.603641 
L 141.86354 291.652075 
L 141.909945 291.167741 
L 142.002757 291.177427 
L 142.281191 291.182271 
L 142.420409 291.075717 
L 146.272085 291.182271 
L 146.596925 291.104777 
L 146.782548 290.84808 
L 147.803474 290.78996 
L 147.84988 290.426709 
L 147.942691 290.44124 
L 147.989097 290.44124 
L 148.267532 289.995652 
L 148.453155 290.000496 
L 148.592372 289.269151 
L 148.917212 289.293368 
L 149.056429 289.085104 
L 149.381269 289.085104 
L 149.520487 288.009883 
L 149.566892 288.019569 
L 149.706109 287.467429 
L 150.216573 287.506175 
L 150.402196 287.094491 
L 150.541413 287.021841 
L 151.283905 287.041215 
L 151.423122 286.895914 
L 153.789814 286.886228 
L 153.929032 286.629531 
L 156.01729 286.731241 
L 156.574159 286.774831 
L 156.759782 286.716711 
L 157.409462 286.745771 
L 160.750675 286.745771 
L 160.889892 286.498761 
L 161.02911 286.498761 
L 161.168327 286.246907 
L 161.585978 286.246907 
L 161.725196 285.7432 
L 162.189253 285.7432 
L 162.32847 285.287926 
L 162.606905 285.287926 
L 162.792528 284.290197 
L 163.535019 284.290197 
L 163.581425 284.135211 
L 163.720642 283.587913 
L 163.952671 283.587913 
L 164.138294 282.444885 
L 166.644204 282.444885 
L 166.783421 282.125224 
L 167.757942 282.125224 
L 167.897159 281.723227 
L 168.778868 281.723227 
L 168.964491 281.13234 
L 175.090048 281.13234 
L 175.229266 280.735186 
L 175.368483 280.735186 
L 175.5077 280.352562 
L 175.693323 280.352562 
L 175.878946 279.04486 
L 176.018163 279.04486 
L 176.15738 278.400696 
L 176.946278 278.400696 
L 177.085495 277.843712 
L 177.36393 277.843712 
L 177.503147 277.112367 
L 178.060016 277.112367 
L 178.245639 276.274469 
L 178.431262 275.528595 
L 178.570479 275.528595 
L 178.756102 274.690697 
L 179.869839 274.690697 
L 180.055462 273.920606 
L 180.101868 273.920606 
L 180.241085 273.576729 
L 180.333897 273.576729 
L 180.51952 273.019745 
L 180.705143 273.019745 
L 180.84436 272.33199 
L 180.937171 272.33199 
L 181.076389 271.876716 
L 181.865286 271.876716 
L 182.004503 271.339106 
L 185.206499 271.339106 
L 185.345717 270.544798 
L 185.438528 270.544798 
L 185.577745 269.818297 
L 185.624151 269.818297 
L 185.763368 269.106326 
L 187.109135 269.106326 
L 187.248352 268.607462 
L 189.290204 268.607462 
L 189.429421 268.108598 
L 191.656897 268.108598 
L 191.84252 266.892919 
L 192.4922 266.892919 
L 192.631417 266.374682 
L 193.095475 266.374682 
L 193.234692 265.536784 
L 193.466721 265.536784 
L 193.605938 264.916837 
L 194.162807 264.916837 
L 194.34843 263.967542 
L 194.394835 263.967542 
L 194.534053 263.536485 
L 194.905299 263.536485 
L 195.090922 262.214253 
L 195.137327 262.214253 
L 195.276545 261.720232 
L 195.972631 261.720232 
L 196.158254 260.32535 
L 196.761528 260.32535 
L 196.900745 259.681186 
L 197.271991 259.681186 
L 197.411208 258.790011 
L 199.638684 258.790011 
L 199.777901 257.942427 
L 199.917118 257.942427 
L 200.056336 257.099686 
L 201.819754 257.099686 
L 202.005377 255.985717 
L 202.283811 255.985717 
L 202.423028 255.32218 
L 202.469434 255.32218 
L 202.655057 254.130718 
L 205.810647 254.130718 
L 205.949864 253.505927 
L 207.063602 253.505927 
L 207.249225 251.742951 
L 207.388442 251.742951 
L 207.527659 250.934113 
L 209.012643 250.934113 
L 209.15186 250.004192 
L 209.430295 250.004192 
L 209.569512 249.369715 
L 210.172787 249.369715 
L 210.404815 247.030381 
L 211.100901 247.030381 
L 211.286524 245.601596 
L 211.425741 245.601596 
L 211.564959 244.967118 
L 211.611364 244.967118 
L 211.750582 243.945174 
L 212.168233 243.945174 
L 212.353856 242.070801 
L 212.446668 242.070801 
L 212.585885 241.150566 
L 212.910725 241.150566 
L 213.096348 239.896141 
L 214.024463 239.896141 
L 214.16368 238.254249 
L 214.302897 237.566494 
L 214.952578 237.566494 
L 215.091795 236.6172 
L 221.356569 236.6172 
L 221.542192 234.907501 
L 221.635004 234.907501 
L 221.774221 234.09382 
L 223.491233 234.09382 
L 223.630451 233.347945 
L 224.280131 233.347945 
L 224.465754 231.735113 
L 225.997143 231.735113 
L 226.136361 230.965022 
L 226.182766 230.965022 
L 226.321983 230.199774 
L 226.461201 230.199774 
L 226.646824 228.698339 
L 226.739635 228.698339 
L 226.878852 227.996054 
L 226.971664 227.996054 
L 227.157287 225.874671 
L 227.714156 225.874671 
L 227.853373 225.099737 
L 229.059922 225.099737 
L 229.199139 224.029359 
L 235.278291 224.029359 
L 235.417508 223.230207 
L 236.067189 223.230207 
L 236.206406 222.358406 
L 236.252811 222.358406 
L 236.392029 221.486605 
L 238.34107 221.486605 
L 238.480287 220.396853 
L 238.619504 220.396853 
L 238.758721 219.486305 
L 240.522139 219.486305 
L 240.754168 216.110497 
L 242.749615 216.110497 
L 242.935238 213.790537 
L 243.260078 213.790537 
L 243.399295 212.594232 
L 244.281004 212.594232 
L 244.466627 210.453476 
L 244.605844 210.453476 
L 244.745062 209.436375 
L 244.791467 209.436375 
L 244.930685 208.433803 
L 245.626771 208.433803 
L 245.765988 207.489352 
L 245.951611 207.489352 
L 246.090828 206.588491 
L 248.039869 206.588491 
L 248.179086 205.561702 
L 248.225492 205.561702 
L 248.364709 204.539758 
L 248.411115 204.539758 
L 248.596738 202.636325 
L 248.643144 202.636325 
L 248.782361 201.740307 
L 254.815107 201.740307 
L 254.954324 200.476195 
L 255.00073 200.476195 
L 255.139947 199.463937 
L 256.810554 199.463937 
L 256.949771 198.209512 
L 257.321017 198.209512 
L 257.460234 196.911497 
L 258.388349 196.911497 
L 258.527566 195.855649 
L 259.641304 195.855649 
L 259.780521 194.572163 
L 260.569418 194.572163 
L 260.708636 193.559905 
L 263.260951 193.559905 
L 263.400168 192.242517 
L 266.880599 192.242517 
L 267.019816 191.123705 
L 267.112627 191.123705 
L 267.29825 188.890925 
L 267.344656 188.890925 
L 267.483873 187.815704 
L 269.340103 187.815704 
L 269.47932 186.435352 
L 269.525726 186.435352 
L 269.664943 185.28748 
L 271.010709 185.28748 
L 271.196332 182.584896 
L 272.078041 182.584896 
L 272.217259 181.228761 
L 273.145373 181.228761 
L 273.284591 180.071203 
L 273.330996 180.071203 
L 273.516619 177.76093 
L 274.723169 177.76093 
L 274.862386 176.637275 
L 277.32189 176.637275 
L 277.461107 175.203646 
L 281.359189 175.203646 
L 281.498406 174.017028 
L 283.493853 174.017028 
L 283.63307 172.534966 
L 283.772288 172.534966 
L 283.911505 171.06259 
L 286.185386 171.06259 
L 286.324603 169.653178 
L 286.835066 169.653178 
L 286.974283 168.175959 
L 302.566612 168.175959 
L 302.752235 164.921235 
L 302.79864 164.921235 
L 302.937857 163.313246 
L 305.490173 163.313246 
L 305.675796 159.947124 
L 314.353669 159.947124 
L 314.492886 158.290702 
L 314.585698 158.290702 
L 314.724915 156.639123 
L 315.142567 156.639123 
L 315.281784 154.876147 
L 315.32819 154.876147 
L 315.513813 151.379255 
L 315.606624 151.379255 
L 315.792247 147.969544 
L 316.95239 147.969544 
L 317.091608 146.264688 
L 319.875952 146.264688 
L 320.015169 144.588893 
L 320.061575 144.588893 
L 320.200792 142.91794 
L 322.428268 142.91794 
L 322.567485 141.184024 
L 322.613891 141.184024 
L 322.845919 135.977434 
L 322.892325 135.977434 
L 323.124354 130.83865 
L 323.170759 130.83865 
L 323.309977 129.172541 
L 323.402788 129.172541 
L 323.588411 125.898443 
L 323.681223 125.898443 
L 323.866845 122.706681 
L 326.233538 122.706681 
L 326.419161 119.306657 
L 326.604784 119.306657 
L 326.790407 115.993812 
L 327.254464 115.993812 
L 327.393682 114.400353 
L 330.827706 114.400353 
L 330.966923 112.656751 
L 334.49376 112.656751 
L 334.632977 110.888931 
L 334.679383 110.888931 
L 334.865005 107.416256 
L 334.957817 107.416256 
L 335.097034 105.687184 
L 338.391842 105.687184 
L 338.577465 102.229039 
L 338.716682 102.229039 
L 338.855899 100.51934 
L 340.851346 100.51934 
L 341.036969 97.036978 
L 342.104301 97.036978 
L 342.289924 93.66117 
L 342.429141 93.66117 
L 342.568358 91.980531 
L 344.888645 91.980531 
L 345.027862 90.246615 
L 345.120674 90.246615 
L 345.259891 88.52723 
L 345.306297 88.52723 
L 345.445514 86.812687 
L 352.545592 86.812687 
L 352.731215 83.281892 
L 352.824026 83.281892 
L 352.963243 81.533446 
L 384.240711 81.533446 
L 384.379928 295.488 
L 398.487273 295.488 
L 398.487273 295.488 
" style="fill:none;stroke:#2ca02c;stroke-linecap:square;stroke-width:1.5;"/>
   </g>
   <g id="line2d_18">
    <path clip-path="url(#pc4511cac38)" d="M 73.832727 295.488 
L 73.971944 295.1974 
L 74.01835 295.245833 
L 74.34319 295.303953 
L 74.528813 295.35723 
L 75.364117 295.420193 
L 112.720736 295.391133 
L 112.859953 295.265206 
L 113.184793 295.27005 
L 113.324011 295.148966 
L 132.675203 295.086003 
L 132.860826 294.989136 
L 133.649724 294.960076 
L 133.835347 294.843836 
L 137.779835 294.790559 
L 137.919052 294.533862 
L 138.429515 294.441839 
L 138.568732 294.364345 
L 139.960904 294.286852 
L 140.100122 294.219045 
L 141.121048 294.223888 
L 141.260265 294.049528 
L 141.817134 293.676591 
L 142.420409 293.686277 
L 142.559626 293.579724 
L 143.1629 293.594254 
L 143.348523 293.293967 
L 143.580552 293.303654 
L 143.719769 293.148667 
L 143.905392 293.148667 
L 144.091015 292.882283 
L 144.555073 292.887126 
L 144.740695 292.601369 
L 145.575999 292.552936 
L 145.715216 292.489972 
L 145.900839 292.494816 
L 146.179273 291.443811 
L 146.411302 291.458341 
L 146.550519 291.337257 
L 147.246605 291.361474 
L 147.385823 291.221017 
L 152.8617 291.327571 
L 153.279351 291.351787 
L 154.114655 291.371161 
L 154.253872 291.182271 
L 154.346683 291.187114 
L 154.485901 291.00791 
L 155.599638 291.03697 
L 155.738855 290.654346 
L 155.785261 290.654346 
L 156.01729 289.985966 
L 157.548679 290.034399 
L 158.801634 290.034399 
L 158.940851 289.753485 
L 159.961778 289.753485 
L 160.100995 289.278838 
L 160.286618 289.278838 
L 160.472241 288.862311 
L 160.750675 288.862311 
L 160.936298 288.416723 
L 161.400356 288.416723 
L 161.585978 287.879113 
L 162.978151 287.879113 
L 163.163774 287.511019 
L 166.69061 287.443212 
L 166.829827 287.307598 
L 166.876233 287.307598 
L 167.01545 287.176828 
L 170.124634 287.176828 
L 170.263852 286.837794 
L 170.310257 286.837794 
L 170.449475 286.498761 
L 172.166487 286.498761 
L 172.35211 285.689923 
L 172.398516 285.689923 
L 172.537733 285.302456 
L 172.955384 285.302456 
L 173.094602 284.948892 
L 173.883499 284.948892 
L 174.022716 284.537208 
L 174.718802 284.537208 
L 174.85802 284.159427 
L 174.950831 284.159427 
L 175.090048 283.8882 
L 175.646917 283.8882 
L 175.786134 283.306999 
L 175.925352 283.306999 
L 176.064569 282.919532 
L 177.317524 282.919532 
L 177.456741 282.493318 
L 177.503147 282.493318 
L 177.642364 282.081634 
L 179.962651 282.081634 
L 180.101868 281.7426 
L 182.468561 281.7426 
L 182.700589 280.352562 
L 182.793401 280.352562 
L 182.979024 279.572784 
L 183.443081 279.572784 
L 183.582298 279.214377 
L 184.556819 279.214377 
L 184.696036 278.73973 
L 186.552266 278.73973 
L 186.691483 278.231179 
L 190.079102 278.231179 
L 190.218319 277.712941 
L 190.357536 277.712941 
L 190.496753 277.214077 
L 191.239245 277.214077 
L 191.378462 276.68131 
L 192.028143 276.68131 
L 192.16736 276.163073 
L 194.162807 276.163073 
L 194.302024 275.761075 
L 194.394835 275.761075 
L 194.534053 275.373608 
L 197.17918 275.373608 
L 197.318397 274.850527 
L 197.411208 274.850527 
L 197.550426 274.34682 
L 198.710569 274.34682 
L 198.849786 273.736559 
L 200.65961 273.736559 
L 200.798827 273.106925 
L 201.170073 273.106925 
L 201.309291 272.496664 
L 201.402102 272.496664 
L 201.541319 271.891247 
L 202.747868 271.891247 
L 203.026303 269.818297 
L 204.232852 269.818297 
L 204.372069 269.208036 
L 205.207373 269.208036 
L 205.392995 267.890648 
L 205.578618 267.890648 
L 205.717836 267.2707 
L 212.817914 267.2707 
L 213.003537 265.962998 
L 214.906172 265.962998 
L 215.045389 265.202594 
L 215.648664 265.202594 
L 215.787881 264.466406 
L 218.85066 264.466406 
L 218.989877 263.720532 
L 219.036283 263.720532 
L 219.1755 262.969814 
L 219.221906 262.969814 
L 219.407528 261.507125 
L 219.639557 261.507125 
L 219.778774 260.780624 
L 221.588598 260.780624 
L 221.727815 260.068653 
L 227.157287 260.068653 
L 227.296504 259.284032 
L 229.013516 259.284032 
L 229.152734 258.397701 
L 229.802414 258.397701 
L 229.941631 257.535586 
L 233.375656 257.535586 
L 233.561279 255.84526 
L 240.243705 255.84526 
L 240.429328 254.053225 
L 240.475734 254.053225 
L 240.614951 253.166893 
L 243.213672 253.166893 
L 243.352889 252.144948 
L 244.281004 252.144948 
L 244.420221 251.224714 
L 244.837873 251.224714 
L 244.97709 250.246359 
L 247.483 250.246359 
L 247.622217 249.301908 
L 247.715029 249.301908 
L 247.900652 247.374258 
L 247.993463 247.374258 
L 248.13268 246.386217 
L 248.689549 246.386217 
L 248.828767 245.441766 
L 251.798734 245.441766 
L 251.937951 244.473098 
L 251.984357 244.473098 
L 252.123574 243.538333 
L 254.072615 243.538333 
L 254.211832 242.501858 
L 257.367422 242.501858 
L 257.50664 241.37336 
L 260.33739 241.37336 
L 260.476607 240.196428 
L 260.569418 240.196428 
L 260.708636 239.048557 
L 261.822373 239.048557 
L 261.961591 237.992708 
L 267.994337 237.992708 
L 268.133554 236.781873 
L 268.365582 236.781873 
L 268.5048 235.619472 
L 268.551205 235.619472 
L 268.690423 234.490973 
L 271.474767 234.490973 
L 271.613984 233.323728 
L 274.49114 233.323728 
L 274.630357 232.10805 
L 275.976123 232.10805 
L 276.254558 227.332517 
L 277.182673 227.332517 
L 277.32189 226.126525 
L 277.368296 226.126525 
L 277.553919 223.719385 
L 279.595771 223.719385 
L 279.734988 222.532766 
L 280.47748 222.532766 
L 280.616697 221.346148 
L 280.709509 221.346148 
L 280.848726 220.164373 
L 282.194492 220.164373 
L 282.33371 218.856671 
L 282.380115 218.856671 
L 282.519333 217.558656 
L 290.222685 217.558656 
L 290.361902 216.284858 
L 294.074361 216.284858 
L 294.259984 213.596804 
L 294.352796 213.596804 
L 294.492013 212.230982 
L 294.584825 212.230982 
L 294.724042 210.87969 
L 296.48746 210.87969 
L 296.673083 208.118986 
L 296.997923 208.118986 
L 297.13714 206.753164 
L 297.46198 206.753164 
L 297.601198 205.397029 
L 300.107107 205.397029 
L 300.246325 203.973087 
L 300.478353 203.973087 
L 300.617571 202.563675 
L 300.663976 202.563675 
L 300.849599 199.832031 
L 300.942411 199.832031 
L 301.081628 198.475896 
L 335.514686 198.475896 
L 335.653903 295.488 
L 398.487273 295.488 
L 398.487273 295.488 
" style="fill:none;stroke:#d62728;stroke-linecap:square;stroke-width:1.5;"/>
   </g>
   <g id="line2d_19">
    <path clip-path="url(#pc4511cac38)" d="M 73.832727 295.488 
L 73.971944 295.1974 
L 74.01835 295.245833 
L 74.34319 295.303953 
L 74.528813 295.35723 
L 75.364117 295.420193 
L 142.002757 295.323326 
L 142.234786 295.231303 
L 150.773441 295.202243 
L 150.912659 295.071473 
L 151.00547 295.071473 
L 151.144687 294.940703 
L 156.806187 294.901956 
L 156.945405 294.824462 
L 157.270245 294.829306 
L 157.502274 294.601669 
L 162.050036 294.567765 
L 162.189253 294.466055 
L 162.421282 294.466055 
L 162.560499 294.262635 
L 166.737015 294.262635 
L 166.876233 294.151238 
L 170.17104 294.151238 
L 170.310257 293.889698 
L 170.356663 293.889698 
L 170.49588 293.725024 
L 171.377589 293.725024 
L 171.516806 293.540977 
L 171.702429 293.540977 
L 171.841647 293.37146 
L 173.883499 293.37146 
L 174.022716 293.201943 
L 176.667843 293.201943 
L 176.807061 292.86291 
L 185.670557 292.86291 
L 185.809774 292.552936 
L 189.707856 292.552936 
L 189.847073 292.213902 
L 198.710569 292.213902 
L 198.849786 291.695665 
L 200.613204 291.695665 
L 200.752422 291.177427 
L 207.8525 291.177427 
L 207.991717 290.605913 
L 219.314717 290.605913 
L 219.453934 289.952062 
L 222.284684 289.952062 
L 222.423901 289.293368 
L 263.214545 289.293368 
L 263.353763 295.488 
L 398.487273 295.488 
L 398.487273 295.488 
" style="fill:none;stroke:#9467bd;stroke-linecap:square;stroke-width:1.5;"/>
   </g>
   <g id="patch_3">
    <path d="M 57.6 307.584 
L 57.6 41.472 
" style="fill:none;stroke:#000000;stroke-linecap:square;stroke-linejoin:miter;stroke-width:0.8;"/>
   </g>
   <g id="patch_4">
    <path d="M 414.72 307.584 
L 414.72 41.472 
" style="fill:none;stroke:#000000;stroke-linecap:square;stroke-linejoin:miter;stroke-width:0.8;"/>
   </g>
   <g id="patch_5">
    <path d="M 57.6 307.584 
L 414.72 307.584 
" style="fill:none;stroke:#000000;stroke-linecap:square;stroke-linejoin:miter;stroke-width:0.8;"/>
   </g>
   <g id="patch_6">
    <path d="M 57.6 41.472 
L 414.72 41.472 
" style="fill:none;stroke:#000000;stroke-linecap:square;stroke-linejoin:miter;stroke-width:0.8;"/>
   </g>
   <g id="text_17">
    <!-- Ideal Network: meanWaitingTimeToDepart summary -->
    <defs>
     <path d="M 9.8125 72.90625 
L 19.671875 72.90625 
L 19.671875 0 
L 9.8125 0 
z
" id="DejaVuSans-73"/>
     <path d="M 45.40625 46.390625 
L 45.40625 75.984375 
L 54.390625 75.984375 
L 54.390625 0 
L 45.40625 0 
L 45.40625 8.203125 
Q 42.578125 3.328125 38.25 0.953125 
Q 33.9375 -1.421875 27.875 -1.421875 
Q 17.96875 -1.421875 11.734375 6.484375 
Q 5.515625 14.40625 5.515625 27.296875 
Q 5.515625 40.1875 11.734375 48.09375 
Q 17.96875 56 27.875 56 
Q 33.9375 56 38.25 53.625 
Q 42.578125 51.265625 45.40625 46.390625 
z
M 14.796875 27.296875 
Q 14.796875 17.390625 18.875 11.75 
Q 22.953125 6.109375 30.078125 6.109375 
Q 37.203125 6.109375 41.296875 11.75 
Q 45.40625 17.390625 45.40625 27.296875 
Q 45.40625 37.203125 41.296875 42.84375 
Q 37.203125 48.484375 30.078125 48.484375 
Q 22.953125 48.484375 18.875 42.84375 
Q 14.796875 37.203125 14.796875 27.296875 
z
" id="DejaVuSans-100"/>
     <path d="M 9.421875 75.984375 
L 18.40625 75.984375 
L 18.40625 0 
L 9.421875 0 
z
" id="DejaVuSans-108"/>
     <path d="M 9.8125 72.90625 
L 23.09375 72.90625 
L 55.421875 11.921875 
L 55.421875 72.90625 
L 64.984375 72.90625 
L 64.984375 0 
L 51.703125 0 
L 19.390625 60.984375 
L 19.390625 0 
L 9.8125 0 
z
" id="DejaVuSans-78"/>
     <path d="M 4.203125 54.6875 
L 13.1875 54.6875 
L 24.421875 12.015625 
L 35.59375 54.6875 
L 46.1875 54.6875 
L 57.421875 12.015625 
L 68.609375 54.6875 
L 77.59375 54.6875 
L 63.28125 0 
L 52.6875 0 
L 40.921875 44.828125 
L 29.109375 0 
L 18.5 0 
z
" id="DejaVuSans-119"/>
     <path d="M 9.078125 75.984375 
L 18.109375 75.984375 
L 18.109375 31.109375 
L 44.921875 54.6875 
L 56.390625 54.6875 
L 27.390625 29.109375 
L 57.625 0 
L 45.90625 0 
L 18.109375 26.703125 
L 18.109375 0 
L 9.078125 0 
z
" id="DejaVuSans-107"/>
     <path d="M 11.71875 12.40625 
L 22.015625 12.40625 
L 22.015625 0 
L 11.71875 0 
z
M 11.71875 51.703125 
L 22.015625 51.703125 
L 22.015625 39.3125 
L 11.71875 39.3125 
z
" id="DejaVuSans-58"/>
     <path d="M 8.5 21.578125 
L 8.5 54.6875 
L 17.484375 54.6875 
L 17.484375 21.921875 
Q 17.484375 14.15625 20.5 10.265625 
Q 23.53125 6.390625 29.59375 6.390625 
Q 36.859375 6.390625 41.078125 11.03125 
Q 45.3125 15.671875 45.3125 23.6875 
L 45.3125 54.6875 
L 54.296875 54.6875 
L 54.296875 0 
L 45.3125 0 
L 45.3125 8.40625 
Q 42.046875 3.421875 37.71875 1 
Q 33.40625 -1.421875 27.6875 -1.421875 
Q 18.265625 -1.421875 13.375 4.4375 
Q 8.5 10.296875 8.5 21.578125 
z
M 31.109375 56 
z
" id="DejaVuSans-117"/>
     <path d="M 32.171875 -5.078125 
Q 28.375 -14.84375 24.75 -17.8125 
Q 21.140625 -20.796875 15.09375 -20.796875 
L 7.90625 -20.796875 
L 7.90625 -13.28125 
L 13.1875 -13.28125 
Q 16.890625 -13.28125 18.9375 -11.515625 
Q 21 -9.765625 23.484375 -3.21875 
L 25.09375 0.875 
L 2.984375 54.6875 
L 12.5 54.6875 
L 29.59375 11.921875 
L 46.6875 54.6875 
L 56.203125 54.6875 
z
" id="DejaVuSans-121"/>
    </defs>
    <g transform="translate(79.287188 35.472)scale(0.12 -0.12)">
     <use xlink:href="#DejaVuSans-73"/>
     <use x="29.492188" xlink:href="#DejaVuSans-100"/>
     <use x="92.96875" xlink:href="#DejaVuSans-101"/>
     <use x="154.492188" xlink:href="#DejaVuSans-97"/>
     <use x="215.771484" xlink:href="#DejaVuSans-108"/>
     <use x="243.554688" xlink:href="#DejaVuSans-32"/>
     <use x="275.341797" xlink:href="#DejaVuSans-78"/>
     <use x="350.146484" xlink:href="#DejaVuSans-101"/>
     <use x="411.669922" xlink:href="#DejaVuSans-116"/>
     <use x="450.878906" xlink:href="#DejaVuSans-119"/>
     <use x="532.666016" xlink:href="#DejaVuSans-111"/>
     <use x="593.847656" xlink:href="#DejaVuSans-114"/>
     <use x="634.960938" xlink:href="#DejaVuSans-107"/>
     <use x="692.871094" xlink:href="#DejaVuSans-58"/>
     <use x="726.5625" xlink:href="#DejaVuSans-32"/>
     <use x="758.349609" xlink:href="#DejaVuSans-109"/>
     <use x="855.761719" xlink:href="#DejaVuSans-101"/>
     <use x="917.285156" xlink:href="#DejaVuSans-97"/>
     <use x="978.564453" xlink:href="#DejaVuSans-110"/>
     <use x="1041.943359" xlink:href="#DejaVuSans-87"/>
     <use x="1134.445312" xlink:href="#DejaVuSans-97"/>
     <use x="1195.724609" xlink:href="#DejaVuSans-105"/>
     <use x="1223.507812" xlink:href="#DejaVuSans-116"/>
     <use x="1262.716797" xlink:href="#DejaVuSans-105"/>
     <use x="1290.5" xlink:href="#DejaVuSans-110"/>
     <use x="1353.878906" xlink:href="#DejaVuSans-103"/>
     <use x="1417.355469" xlink:href="#DejaVuSans-84"/>
     <use x="1475.314453" xlink:href="#DejaVuSans-105"/>
     <use x="1503.097656" xlink:href="#DejaVuSans-109"/>
     <use x="1600.509766" xlink:href="#DejaVuSans-101"/>
     <use x="1662.033203" xlink:href="#DejaVuSans-84"/>
     <use x="1706.117188" xlink:href="#DejaVuSans-111"/>
     <use x="1767.298828" xlink:href="#DejaVuSans-68"/>
     <use x="1844.300781" xlink:href="#DejaVuSans-101"/>
     <use x="1905.824219" xlink:href="#DejaVuSans-112"/>
     <use x="1969.300781" xlink:href="#DejaVuSans-97"/>
     <use x="2030.580078" xlink:href="#DejaVuSans-114"/>
     <use x="2071.693359" xlink:href="#DejaVuSans-116"/>
     <use x="2110.902344" xlink:href="#DejaVuSans-32"/>
     <use x="2142.689453" xlink:href="#DejaVuSans-115"/>
     <use x="2194.789062" xlink:href="#DejaVuSans-117"/>
     <use x="2258.167969" xlink:href="#DejaVuSans-109"/>
     <use x="2355.580078" xlink:href="#DejaVuSans-109"/>
     <use x="2452.992188" xlink:href="#DejaVuSans-97"/>
     <use x="2514.271484" xlink:href="#DejaVuSans-114"/>
     <use x="2555.384766" xlink:href="#DejaVuSans-121"/>
    </g>
   </g>
   <g id="legend_1">
    <g id="patch_7">
     <path d="M 64.6 123.418875 
L 140.376563 123.418875 
Q 142.376563 123.418875 142.376563 121.418875 
L 142.376563 48.472 
Q 142.376563 46.472 140.376563 46.472 
L 64.6 46.472 
Q 62.6 46.472 62.6 48.472 
L 62.6 121.418875 
Q 62.6 123.418875 64.6 123.418875 
z
" style="fill:#ffffff;opacity:0.8;stroke:#cccccc;stroke-linejoin:miter;"/>
    </g>
    <g id="line2d_20">
     <path d="M 66.6 54.570438 
L 86.6 54.570438 
" style="fill:none;stroke:#1f77b4;stroke-linecap:square;stroke-width:1.5;"/>
    </g>
    <g id="line2d_21"/>
    <g id="text_18">
     <!-- timed -->
     <g transform="translate(94.6 58.070438)scale(0.1 -0.1)">
      <use xlink:href="#DejaVuSans-116"/>
      <use x="39.208984" xlink:href="#DejaVuSans-105"/>
      <use x="66.992188" xlink:href="#DejaVuSans-109"/>
      <use x="164.404297" xlink:href="#DejaVuSans-101"/>
      <use x="225.927734" xlink:href="#DejaVuSans-100"/>
     </g>
    </g>
    <g id="line2d_22">
     <path d="M 66.6 69.248563 
L 86.6 69.248563 
" style="fill:none;stroke:#ff7f0e;stroke-linecap:square;stroke-width:1.5;"/>
    </g>
    <g id="line2d_23"/>
    <g id="text_19">
     <!-- webster -->
     <defs>
      <path d="M 48.6875 27.296875 
Q 48.6875 37.203125 44.609375 42.84375 
Q 40.53125 48.484375 33.40625 48.484375 
Q 26.265625 48.484375 22.1875 42.84375 
Q 18.109375 37.203125 18.109375 27.296875 
Q 18.109375 17.390625 22.1875 11.75 
Q 26.265625 6.109375 33.40625 6.109375 
Q 40.53125 6.109375 44.609375 11.75 
Q 48.6875 17.390625 48.6875 27.296875 
z
M 18.109375 46.390625 
Q 20.953125 51.265625 25.265625 53.625 
Q 29.59375 56 35.59375 56 
Q 45.5625 56 51.78125 48.09375 
Q 58.015625 40.1875 58.015625 27.296875 
Q 58.015625 14.40625 51.78125 6.484375 
Q 45.5625 -1.421875 35.59375 -1.421875 
Q 29.59375 -1.421875 25.265625 0.953125 
Q 20.953125 3.328125 18.109375 8.203125 
L 18.109375 0 
L 9.078125 0 
L 9.078125 75.984375 
L 18.109375 75.984375 
z
" id="DejaVuSans-98"/>
     </defs>
     <g transform="translate(94.6 72.748563)scale(0.1 -0.1)">
      <use xlink:href="#DejaVuSans-119"/>
      <use x="81.787109" xlink:href="#DejaVuSans-101"/>
      <use x="143.310547" xlink:href="#DejaVuSans-98"/>
      <use x="206.787109" xlink:href="#DejaVuSans-115"/>
      <use x="258.886719" xlink:href="#DejaVuSans-116"/>
      <use x="298.095703" xlink:href="#DejaVuSans-101"/>
      <use x="359.619141" xlink:href="#DejaVuSans-114"/>
     </g>
    </g>
    <g id="line2d_24">
     <path d="M 66.6 83.926688 
L 86.6 83.926688 
" style="fill:none;stroke:#2ca02c;stroke-linecap:square;stroke-width:1.5;"/>
    </g>
    <g id="line2d_25"/>
    <g id="text_20">
     <!-- coord -->
     <defs>
      <path d="M 48.78125 52.59375 
L 48.78125 44.1875 
Q 44.96875 46.296875 41.140625 47.34375 
Q 37.3125 48.390625 33.40625 48.390625 
Q 24.65625 48.390625 19.8125 42.84375 
Q 14.984375 37.3125 14.984375 27.296875 
Q 14.984375 17.28125 19.8125 11.734375 
Q 24.65625 6.203125 33.40625 6.203125 
Q 37.3125 6.203125 41.140625 7.25 
Q 44.96875 8.296875 48.78125 10.40625 
L 48.78125 2.09375 
Q 45.015625 0.34375 40.984375 -0.53125 
Q 36.96875 -1.421875 32.421875 -1.421875 
Q 20.0625 -1.421875 12.78125 6.34375 
Q 5.515625 14.109375 5.515625 27.296875 
Q 5.515625 40.671875 12.859375 48.328125 
Q 20.21875 56 33.015625 56 
Q 37.15625 56 41.109375 55.140625 
Q 45.0625 54.296875 48.78125 52.59375 
z
" id="DejaVuSans-99"/>
     </defs>
     <g transform="translate(94.6 87.426688)scale(0.1 -0.1)">
      <use xlink:href="#DejaVuSans-99"/>
      <use x="54.980469" xlink:href="#DejaVuSans-111"/>
      <use x="116.162109" xlink:href="#DejaVuSans-111"/>
      <use x="177.34375" xlink:href="#DejaVuSans-114"/>
      <use x="216.707031" xlink:href="#DejaVuSans-100"/>
     </g>
    </g>
    <g id="line2d_26">
     <path d="M 66.6 98.604813 
L 86.6 98.604813 
" style="fill:none;stroke:#d62728;stroke-linecap:square;stroke-width:1.5;"/>
    </g>
    <g id="line2d_27"/>
    <g id="text_21">
     <!-- collab_pi -->
     <defs>
      <path d="M 50.984375 -16.609375 
L 50.984375 -23.578125 
L -0.984375 -23.578125 
L -0.984375 -16.609375 
z
" id="DejaVuSans-95"/>
     </defs>
     <g transform="translate(94.6 102.104813)scale(0.1 -0.1)">
      <use xlink:href="#DejaVuSans-99"/>
      <use x="54.980469" xlink:href="#DejaVuSans-111"/>
      <use x="116.162109" xlink:href="#DejaVuSans-108"/>
      <use x="143.945312" xlink:href="#DejaVuSans-108"/>
      <use x="171.728516" xlink:href="#DejaVuSans-97"/>
      <use x="233.007812" xlink:href="#DejaVuSans-98"/>
      <use x="296.484375" xlink:href="#DejaVuSans-95"/>
      <use x="346.484375" xlink:href="#DejaVuSans-112"/>
      <use x="409.960938" xlink:href="#DejaVuSans-105"/>
     </g>
    </g>
    <g id="line2d_28">
     <path d="M 66.6 113.561063 
L 86.6 113.561063 
" style="fill:none;stroke:#9467bd;stroke-linecap:square;stroke-width:1.5;"/>
    </g>
    <g id="line2d_29"/>
    <g id="text_22">
     <!-- collab_p -->
     <g transform="translate(94.6 117.061063)scale(0.1 -0.1)">
      <use xlink:href="#DejaVuSans-99"/>
      <use x="54.980469" xlink:href="#DejaVuSans-111"/>
      <use x="116.162109" xlink:href="#DejaVuSans-108"/>
      <use x="143.945312" xlink:href="#DejaVuSans-108"/>
      <use x="171.728516" xlink:href="#DejaVuSans-97"/>
      <use x="233.007812" xlink:href="#DejaVuSans-98"/>
      <use x="296.484375" xlink:href="#DejaVuSans-95"/>
      <use x="346.484375" xlink:href="#DejaVuSans-112"/>
     </g>
    </g>
   </g>
  </g>
 </g>
 <defs>
  <clipPath id="pc4511cac38">
   <rect height="266.112" width="357.12" x="57.6" y="41.472"/>
  </clipPath>
 </defs>
</svg>
